<svg width="1268" height="566" viewBox="0 0 1268 566" fill="none" xmlns="http://www.w3.org/2000/svg">
<path d="M663.123 12.9999C694.726 52.3131 688.591 57.8628 714.569 81.9558C721.628 88.3664 727.039 96.4055 730.338 105.384C733.363 113.956 735.233 122.897 735.897 131.97C736.566 141.577 740.579 150.638 747.228 157.558L781.521 192.767C781.991 193.247 782.351 193.825 782.575 194.461C782.8 195.096 782.884 195.773 782.821 196.445C782.758 197.116 782.55 197.766 782.211 198.347C781.873 198.929 781.412 199.429 780.861 199.812L770.865 206.824C768.279 208.678 765.115 209.531 761.956 209.225C758.796 208.92 755.851 207.478 753.661 205.163C739.394 189.643 707.972 171.067 694.842 169.555L681.993 168.658C674.055 168.114 666.392 165.513 659.745 161.109C653.098 156.704 647.694 150.645 644.055 143.518L635.808 127.284C616.526 163.839 623.784 194.213 660.187 217.674C733.703 269.084 766.098 315.708 775.071 380.161C778.231 401.453 777.572 423.142 773.125 444.199C758.89 508.552 712.475 544.293 635.808 553.166C581.508 551.471 533.674 535.271 505.188 475.271C490.03 443.285 490.063 405.833 506.524 374.528C524.668 340.15 555.694 321.358 603.627 322.62C642.34 324.199 673.943 338.439 688.821 382.438C694.489 398.391 694.6 415.812 689.135 431.837C679.073 459.984 654.661 473.592 618.209 475.038C671.486 457.558 684.549 398.605 643.297 373.349C624.905 362.116 602.06 361.95 582.663 371.471C567.554 378.915 555.76 389.998 550.466 408.225C544.582 428.883 547.033 451.045 557.285 469.892C567.537 488.739 584.761 502.746 605.211 508.868C611.14 510.604 617.212 511.794 623.355 512.424C646.102 515.129 669.035 509.206 687.683 495.808C704.92 483.063 717.175 465.118 721.86 439.314C728.705 401.563 723.048 357.896 696.442 330.496C639.107 270.995 565.014 290.568 493.988 335.863C481.947 292.479 478.863 246.021 515.943 185.805C525.048 224.288 533.592 254.628 548.932 276.295C549.75 277.528 550.917 278.484 552.283 279.038C553.648 279.592 555.147 279.719 556.585 279.402C563.183 277.741 563.975 266.608 552.857 220.915C547.88 200.957 546.208 180.308 547.909 159.801C552.165 111.615 573.789 76.7218 639.47 53.1605C654.826 47.6939 661.54 33.1051 663.123 12.9999Z" fill="#01CFFD" fill-opacity="0.2" stroke="#01CFFD" stroke-width="3"/>
<path d="M283.247 11.5L282.1 13.6953L93.2607 374.843H311.707V225.957H370.312V374.843H439.82V429.528H370.312V554.5H311.707V429.528H27.5V375.975L27.6709 375.647L217.657 12.3047L218.078 11.5H283.247Z" fill="#01CFFD" fill-opacity="0.2" stroke="#01CFFD" stroke-width="3"/>
<path d="M1084.61 11.5L1083.46 13.6953L894.621 374.843H1113.07V225.957H1171.67V374.843H1241.18V429.528H1171.67V554.5H1113.07V429.528H828.86V375.975L829.031 375.647L1019.02 12.3047L1019.44 11.5H1084.61Z" fill="#01CFFD" fill-opacity="0.2" stroke="#01CFFD" stroke-width="3"/>
</svg>
