<svg width="1280" height="1280" viewBox="0 0 1280 1280" fill="none" xmlns="http://www.w3.org/2000/svg">
<rect y="1280" width="1280" height="1280" rx="40" transform="rotate(-90 0 1280)" fill="#436AF6"/>
<mask id="mask0_1086_792" style="mask-type:alpha" maskUnits="userSpaceOnUse" x="0" y="0" width="1280" height="1280">
<rect y="1280" width="1280" height="1280" rx="40" transform="rotate(-90 0 1280)" fill="#436AF6"/>
</mask>
<g mask="url(#mask0_1086_792)">
<path d="M533.823 857.689C324.623 794.525 -120.6 398.174 -136.647 383.848C-137.066 383.474 -137.393 383.802 -137.758 384.229L-412.296 706.27C-412.615 706.644 -412.615 707.194 -412.296 707.568L558.348 1844.6C558.682 1844.99 559.26 1845.07 559.682 1844.77L1371.72 1275.28C1372.09 1275.02 1372.31 1274.74 1372.15 1274.31C1366.61 1259.38 1242.58 933.254 967.342 882.828C819.589 855.758 746.88 922.017 533.823 857.689Z" fill="#B7E9FD"/>
<path d="M326.292 1061.91C107.201 1036.46 -45.4023 773.351 -370.953 437.968C-371.734 437.164 -373.083 438.015 -372.618 439.036L268.188 1846.17C268.412 1846.66 268.985 1846.88 269.484 1846.67L1047.61 1521.51C1047.86 1521.41 1048.01 1521.32 1048.11 1521.07C1051.26 1512.85 1121.43 1323.76 974.14 1177.75C823.546 1028.47 546.288 1087.47 326.292 1061.91Z" fill="#65D1FF"/>
</g>
</svg>
