<svg width="1280" height="1280" viewBox="0 0 1280 1280" fill="none" xmlns="http://www.w3.org/2000/svg">
<rect y="1280" width="1280" height="1280" rx="40" transform="rotate(-90 0 1280)" fill="#436AF6"/>
<mask id="mask0_1086_792" style="mask-type:alpha" maskUnits="userSpaceOnUse" x="0" y="0" width="1280" height="1280">
<rect y="1280" width="1280" height="1280" rx="40" transform="rotate(-90 0 1280)" fill="#436AF6"/>
</mask>
<g mask="url(#mask0_1086_792)">
<path d="M681.5 844C509.667 979.011 -70.4748 1115.95 -91.4179 1120.86C-91.9649 1120.99 -91.884 1121.45 -91.7433 1121.99L14.2863 1531.67C14.4094 1532.15 14.86 1532.47 15.3492 1532.42L1503.59 1390.59C1504.11 1390.54 1504.5 1390.11 1504.5 1389.59V397.766C1504.5 397.314 1504.39 396.97 1503.95 396.856C1488.54 392.821 1150.32 307.11 951 503.5C844 608.927 856.5 706.501 681.5 844Z" fill="#B7E9FD"/>
<path d="M848 1031C762.471 1172.72 535.501 1195.27 205.464 1313.04C204.408 1313.42 204.627 1315 205.748 1315H1366.03C1366.57 1315 1367.01 1314.57 1367.03 1314.03L1386.99 680.922C1387 680.652 1386.91 680.41 1386.72 680.218C1380.61 674.053 1273.65 569.148 1129 624C980 680.5 934 888.5 848 1031Z" fill="#65D1FF"/>
</g>
</svg>
