<svg width="2000" height="1333" viewBox="0 0 2000 1333" fill="none" xmlns="http://www.w3.org/2000/svg">
<g clip-path="url(#clip0_4689_632)">
<path d="M2000 0H0V1333H2000V0Z" fill="url(#paint0_linear_4689_632)" fill-opacity="0.2"/>
<path d="M2094 -42.0002H-43V1456H2094V-42.0002Z" fill="#01CFFD"/>
<path d="M707.969 1847.13C1993.03 2191.46 3172.31 1957.29 3341.97 1324.1C3511.63 690.918 2607.43 -101.516 1322.37 -445.846C37.3138 -790.175 -1141.97 -556.01 -1311.63 77.1767C-1481.29 710.364 -577.086 1502.8 707.969 1847.13Z" fill="url(#paint1_radial_4689_632)"/>
<path d="M888.681 157.5C689.181 153.5 633.681 52.4998 620.5 3.49976C607.319 -45.5002 637.181 -197.5 637.181 -197.5L2138.68 -280L2266.18 458.5C2266.18 458.5 1948.5 682.041 1736.18 633C1480.77 574.005 1571.65 177.528 1319.18 107C1156.15 61.4566 1088.18 161.5 888.681 157.5Z" fill="url(#paint2_linear_4689_632)" stroke="white" stroke-opacity="0.2"/>
<path d="M859.34 390.088C660.237 376.366 563.999 232.501 556.499 116.001C548.999 -0.500214 616.141 -169.501 616.141 -169.501L2131.08 -50.5194L2219.79 796.049C2219.79 796.049 1890.7 1035.93 1681.15 970.344C1429.06 891.447 1563.91 438.616 1292.08 352.382C1130.39 301.086 1058.44 403.809 859.34 390.088Z" fill="url(#paint3_linear_4689_632)" stroke="white" stroke-opacity="0.2"/>
<path d="M1001.23 -179.096C807.343 -226.32 793.201 -404.435 793.201 -404.435L842.31 -628.169L2329.05 -398.087L2273.16 451.277C2273.16 451.277 1908.24 631.992 1712.84 531.885C1477.79 411.458 1638.07 -39.3113 1434.06 -143.011C1230.04 -246.711 1195.11 -131.872 1001.23 -179.096Z" fill="url(#paint4_linear_4689_632)" stroke="white" stroke-opacity="0.2"/>
<path d="M1291.91 1386.21C1491.41 1390.21 1543.41 1540.21 1543.41 1540.21V1741.21L41.9062 1823.71L-85.5938 1085.21C-85.5938 1085.21 232.089 861.665 444.407 910.706C699.818 969.701 639.907 1386.21 861.407 1436.71C1082.91 1487.21 1092.41 1382.21 1291.91 1386.21Z" fill="url(#paint5_linear_4689_632)" stroke="white" stroke-opacity="0.2"/>
<path d="M1289.95 1162.61C1489.03 1176.33 1533.12 1349.48 1533.12 1349.48L1522.6 1578.3L18.3644 1603.22L-70.3301 756.656C-70.3301 756.656 258.722 516.774 468.247 582.358C720.3 661.254 638.642 1132.65 857.264 1200.32C1075.89 1267.98 1090.87 1148.89 1289.95 1162.61Z" fill="url(#paint6_linear_4689_632)" stroke="white" stroke-opacity="0.2"/>
<path d="M1179.36 1722.8C1373.25 1770.03 1387.39 1948.14 1387.39 1948.14L1338.28 2171.87L-148.465 1941.79L-92.566 1092.43C-92.566 1092.43 272.346 911.714 467.744 1011.82C702.803 1132.25 542.522 1583.02 746.533 1686.72C950.544 1790.42 985.477 1675.58 1179.36 1722.8Z" fill="url(#paint7_linear_4689_632)" stroke="white" stroke-opacity="0.2"/>
<path d="M1881 1527C2003.61 1527 2103 1427.61 2103 1305C2103 1182.39 2003.61 1083 1881 1083C1758.39 1083 1659 1182.39 1659 1305C1659 1427.61 1758.39 1527 1881 1527Z" fill="url(#paint8_linear_4689_632)"/>
<path d="M1881 1526.5C2003.33 1526.5 2102.5 1427.33 2102.5 1305C2102.5 1182.67 2003.33 1083.5 1881 1083.5C1758.67 1083.5 1659.5 1182.67 1659.5 1305C1659.5 1427.33 1758.67 1526.5 1881 1526.5Z" stroke="white" stroke-opacity="0.2"/>
<path d="M231 169C316.604 169 386 99.6039 386 13.9998C386 -71.6044 316.604 -141 231 -141C145.396 -141 76 -71.6044 76 13.9998C76 99.6039 145.396 169 231 169Z" fill="url(#paint9_linear_4689_632)"/>
<path d="M231 168.5C316.328 168.5 385.5 99.3278 385.5 13.9998C385.5 -71.3282 316.328 -140.5 231 -140.5C145.672 -140.5 76.5 -71.3282 76.5 13.9998C76.5 99.3278 145.672 168.5 231 168.5Z" stroke="white" stroke-opacity="0.2"/>
</g>
<defs>
<linearGradient id="paint0_linear_4689_632" x1="1000" y1="0" x2="1000" y2="1333" gradientUnits="userSpaceOnUse">
<stop stop-opacity="0"/>
<stop offset="1"/>
</linearGradient>
<radialGradient id="paint1_radial_4689_632" cx="0" cy="0" r="1" gradientUnits="userSpaceOnUse" gradientTransform="translate(982.999 675.001) rotate(32.9782) scale(1997.91 1997.91)">
<stop stop-color="#01CFFD"/>
<stop offset="1" stop-color="#15214B"/>
</radialGradient>
<linearGradient id="paint2_linear_4689_632" x1="1441.66" y1="-280" x2="1441.66" y2="640.032" gradientUnits="userSpaceOnUse">
<stop stop-color="white" stop-opacity="0.1"/>
<stop offset="0.870192" stop-color="#01CFFD" stop-opacity="0.1"/>
<stop offset="1" stop-color="white" stop-opacity="0.2"/>
</linearGradient>
<linearGradient id="paint3_linear_4689_632" x1="1414.32" y1="-132.787" x2="1363.88" y2="963.773" gradientUnits="userSpaceOnUse">
<stop stop-color="white" stop-opacity="0.1"/>
<stop offset="0.870192" stop-color="#01CFFD" stop-opacity="0.1"/>
<stop offset="1" stop-color="white" stop-opacity="0.2"/>
</linearGradient>
<linearGradient id="paint4_linear_4689_632" x1="1658.03" y1="-545.376" x2="1433.24" y2="478.717" gradientUnits="userSpaceOnUse">
<stop stop-color="white" stop-opacity="0.1"/>
<stop offset="0.870192" stop-color="#01CFFD" stop-opacity="0.1"/>
<stop offset="1" stop-color="white" stop-opacity="0.2"/>
</linearGradient>
<linearGradient id="paint5_linear_4689_632" x1="728.907" y1="1823.71" x2="728.907" y2="903.674" gradientUnits="userSpaceOnUse">
<stop stop-color="white" stop-opacity="0.1"/>
<stop offset="0.870192" stop-color="#01CFFD" stop-opacity="0.1"/>
<stop offset="1" stop-color="white" stop-opacity="0.2"/>
</linearGradient>
<linearGradient id="paint6_linear_4689_632" x1="704.639" y1="1634.79" x2="752.815" y2="587.426" gradientUnits="userSpaceOnUse">
<stop stop-color="white" stop-opacity="0.1"/>
<stop offset="0.870192" stop-color="#01CFFD" stop-opacity="0.1"/>
<stop offset="1" stop-color="white" stop-opacity="0.2"/>
</linearGradient>
<linearGradient id="paint7_linear_4689_632" x1="522.561" y1="2089.08" x2="747.347" y2="1064.99" gradientUnits="userSpaceOnUse">
<stop stop-color="white" stop-opacity="0.1"/>
<stop offset="0.870192" stop-color="#01CFFD" stop-opacity="0.1"/>
<stop offset="1" stop-color="white" stop-opacity="0.2"/>
</linearGradient>
<linearGradient id="paint8_linear_4689_632" x1="1881" y1="1083" x2="2077.5" y2="1527" gradientUnits="userSpaceOnUse">
<stop stop-color="white" stop-opacity="0.2"/>
<stop offset="0.211538" stop-color="#01CFFD" stop-opacity="0.1"/>
<stop offset="1" stop-color="white" stop-opacity="0.1"/>
</linearGradient>
<linearGradient id="paint9_linear_4689_632" x1="106.5" y1="-141" x2="304.5" y2="169" gradientUnits="userSpaceOnUse">
<stop stop-color="white" stop-opacity="0"/>
<stop offset="0.711538" stop-color="#01CFFD" stop-opacity="0.1"/>
<stop offset="1" stop-color="white" stop-opacity="0.2"/>
</linearGradient>
<clipPath id="clip0_4689_632">
<rect width="2000" height="1333" fill="white"/>
</clipPath>
</defs>
</svg>
