<svg width="102" height="100" viewBox="0 0 102 100" fill="none" xmlns="http://www.w3.org/2000/svg">
<path d="M80.0959 45.1662C86.8469 44.2176 92.0444 38.4297 92.0589 31.4174C92.0589 24.5067 87.0211 18.7769 80.4153 17.6929" stroke="#121229" stroke-width="3" stroke-linecap="round" stroke-linejoin="round"/>
<path d="M89.0044 61.396C95.5424 62.3736 100.106 64.6626 100.106 69.381C100.106 72.6282 97.9573 74.7382 94.4826 76.0642" stroke="#121229" stroke-width="3" stroke-linecap="round" stroke-linejoin="round"/>
<path fill-rule="evenodd" clip-rule="evenodd" d="M51.0552 63.3982C35.5014 63.3982 22.2173 65.755 22.2173 75.1676C22.2173 84.5754 35.4192 87 51.0552 87C66.609 87 79.8883 84.6674 79.8883 75.2499C79.8883 65.8324 66.6913 63.3982 51.0552 63.3982Z" fill="white" stroke="#121229" stroke-width="3" stroke-linecap="round" stroke-linejoin="round"/>
<path fill-rule="evenodd" clip-rule="evenodd" d="M51.056 49.9633C61.2623 49.9633 69.5376 41.6928 69.5376 31.4817C69.5376 21.2754 61.2623 13 51.056 13C40.8497 13 32.5744 21.2754 32.5744 31.4817C32.5356 41.6541 40.7481 49.9295 50.9205 49.9633H51.056Z" fill="#01CFFD" stroke="#121229" stroke-width="3" stroke-linecap="round" stroke-linejoin="round"/>
<path d="M22.0094 45.1662C15.2536 44.2176 10.0609 38.4297 10.0464 31.4174C10.0464 24.5067 15.0842 18.7769 21.69 17.6929" stroke="#121229" stroke-width="3" stroke-linecap="round" stroke-linejoin="round"/>
<path d="M13.1016 61.396C6.56355 62.3736 2 64.6626 2 69.381C2 72.6282 4.14869 74.7382 7.62338 76.0642" stroke="#121229" stroke-width="3" stroke-linecap="round" stroke-linejoin="round"/>
</svg>
