<svg width="127" height="127" viewBox="0 0 127 127" fill="none" xmlns="http://www.w3.org/2000/svg">
<path d="M67.5 20C67.5 17.5147 65.4853 15.5 63 15.5C60.5147 15.5 58.5 17.5147 58.5 20H67.5ZM63 106H67.5V20H63H58.5L58.5 106H63Z" fill="#15214B"/>
<path d="M64.5115 91.6606C66.1953 90.7526 68.1276 90.6406 69.8728 91.0854C72.8082 91.8337 75.4839 94.2804 75.4666 97.5142C76.8477 97.0123 78.464 97.2671 79.7683 98.2261C81.6147 99.5837 82.7855 102.268 82.2429 106.105L82.1511 106.75H44.9597L44.7888 106.238C43.9713 103.785 44.4671 101.676 45.8943 100.487C47.0005 99.565 48.5226 99.3199 50.0681 99.7866C49.9002 96.8773 51.4571 94.6845 53.7283 93.8013C56.0115 92.9135 58.8734 93.4011 61.1843 95.5659C61.9293 93.7023 63.1066 92.4183 64.5115 91.6606Z" fill="#FFEC18" stroke="#15214B" stroke-width="1.5"/>
<path d="M44.1353 42.2882C44.3665 42.1056 44.6666 42.0343 44.9553 42.0934L65.7004 46.3367C66.1658 46.4319 66.5 46.8414 66.5 47.3164V55.087C66.5 55.6042 66.1056 56.0361 65.5905 56.0829L44.9332 57.9609C44.6569 57.986 44.3826 57.8952 44.1758 57.7102L35.8864 50.2933C35.4236 49.8793 35.4462 49.148 35.9336 48.7632L44.1353 42.2882Z" fill="#65D1FF" stroke="#15214B" stroke-width="1.5"/>
<path d="M81.8647 25.2882C81.6335 25.1056 81.3334 25.0343 81.0447 25.0934L60.2996 29.3367C59.8342 29.4319 59.5 29.8414 59.5 30.3164V38.087C59.5 38.6042 59.8944 39.0361 60.4095 39.0829L81.0668 40.9609C81.3431 40.986 81.6174 40.8952 81.8242 40.7102L90.1136 33.2933C90.5764 32.8793 90.5538 32.148 90.0664 31.7632L81.8647 25.2882Z" fill="#65D1FF" stroke="#15214B" stroke-width="1.5"/>
<path d="M81.8647 58.2882C81.6335 58.1056 81.3334 58.0343 81.0447 58.0934L60.2996 62.3367C59.8342 62.4319 59.5 62.8414 59.5 63.3164V71.087C59.5 71.6042 59.8944 72.0361 60.4095 72.0829L81.0668 73.9609C81.3431 73.986 81.6174 73.8952 81.8242 73.7102L90.1136 66.2933C90.5764 65.8793 90.5538 65.148 90.0664 64.7632L81.8647 58.2882Z" fill="#65D1FF" stroke="#15214B" stroke-width="1.5"/>
<path d="M28.1424 36.9191C27.6847 36.6791 27.5081 36.1135 27.7481 35.6557C27.9881 35.1979 28.5538 35.0214 29.0115 35.2614L38.4055 40.1863C38.8632 40.4263 39.0398 40.9919 38.7998 41.4497C38.5598 41.9075 37.9941 42.084 37.5364 41.844L28.1424 36.9191Z" fill="#15214B"/>
<path d="M51.4621 25.4621C51.6189 24.9696 52.1453 24.6975 52.6378 24.8543C53.1303 25.0112 53.4024 25.5376 53.2456 26.0301L50.0267 36.1365C49.8699 36.629 49.3435 36.9011 48.851 36.7442C48.3585 36.5874 48.0864 36.061 48.2432 35.5685L51.4621 25.4621Z" fill="#15214B"/>
<path d="M37.4293 26.7591C37.2338 26.2806 37.4633 25.7343 37.9418 25.5388C38.4203 25.3434 38.9666 25.5728 39.1621 26.0513L43.1728 35.8704C43.3683 36.3489 43.1388 36.8952 42.6603 37.0907C42.1818 37.2861 41.6355 37.0567 41.4401 36.5782L37.4293 26.7591Z" fill="#15214B"/>
</svg>
