<svg width="585" height="528" viewBox="0 0 585 528" fill="none" xmlns="http://www.w3.org/2000/svg">
<path d="M248.568 291.662L261.883 330.218L264.111 359.936C264.202 361.157 264.55 362.345 265.13 363.423C265.71 364.501 266.511 365.445 267.48 366.194C268.448 366.943 269.564 367.48 270.754 367.77C271.943 368.06 273.181 368.096 274.386 367.877C276.502 367.493 278.402 366.342 279.722 364.644C281.042 362.946 281.689 360.821 281.54 358.676L276.575 287.531" fill="#121229"/>
<path d="M249.899 291.301L253.992 303.155L260.938 323.269L262.98 329.182C263.23 330.037 263.365 330.921 263.382 331.812L264.848 351.359L265.426 359.064C265.662 362.217 267.171 365.106 270.332 366.217C271.469 366.606 272.683 366.714 273.87 366.532C275.058 366.35 276.184 365.884 277.151 365.172C278.119 364.461 278.9 363.525 279.428 362.446C279.956 361.367 280.214 360.177 280.181 358.976C280.154 358.165 280.073 357.353 280.016 356.543L279.004 342.034L277.494 320.396L276.051 299.729L275.239 288.091L275.2 287.537C275.077 285.768 277.832 285.776 277.955 287.537L278.546 296.007L279.923 315.743L281.499 338.322L282.662 354.992C282.744 356.157 282.83 357.323 282.906 358.488C283.087 360.762 282.494 363.03 281.223 364.924C279.952 366.818 278.078 368.227 275.905 368.921C273.732 369.616 271.387 369.556 269.253 368.75C267.119 367.945 265.319 366.442 264.147 364.485C262.821 362.288 262.731 359.866 262.546 357.402L261 336.783C260.841 334.665 260.6 332.535 260.522 330.412C260.508 330.012 260.5 330.522 260.548 330.562C260.476 330.503 260.434 330.234 260.405 330.148L259.676 328.037L253.253 309.439L247.561 292.956L247.243 292.034C246.663 290.355 249.323 289.634 249.899 291.302L249.899 291.301Z" fill="#121229"/>
<path d="M209.688 298.443C208.811 294.14 208.855 289.7 209.819 285.415C210.804 281.113 213.182 277.257 216.584 274.444C219.602 272.063 222.92 271.197 226.351 270.405C227.957 270.035 229.588 269.68 231.225 269.195C237.482 267.339 243.661 265.107 249.794 262.877C260.133 259.117 270.341 254.984 280.314 250.337C294.766 243.602 308.864 235.817 321.602 226.181C333.919 216.863 341.769 206.851 349.635 194.119C352.655 189.231 353.848 183.029 358.268 179.356C359.991 177.954 362.048 177.023 364.239 176.655C367.782 176.079 371.417 176.561 374.687 178.041C387.11 183.571 393.217 198.077 399.171 209.418C405.744 221.846 411.253 234.809 415.637 248.167C418.996 258.43 421.538 268.942 423.241 279.605C424.803 289.54 426.911 300.4 424.871 310.307C424.054 314.275 422.751 318.229 420.312 321.464C417.873 324.698 414.154 327.142 410.106 327.312C404.845 327.533 400.24 324.08 395.981 320.984C394.342 319.709 392.56 318.631 390.67 317.773C376.71 311.987 361.536 308.631 346.665 306.298C311.553 300.789 274.927 302.749 240.469 310.985L234.908 312.314C229.3 313.654 223.037 314.91 218.056 312.005C213.192 309.168 210.665 303.747 209.688 298.443Z" fill="white"/>
<path d="M384.536 183.339C378.453 177.206 369.108 172.599 360.549 176.359C356.457 178.156 353.999 181.813 352.173 185.734C351.263 187.688 350.457 189.691 349.469 191.609C348.445 193.595 347.187 195.469 345.971 197.342C341.131 204.991 335.382 212.026 328.851 218.294C321.559 225.134 313.175 230.809 304.633 235.962C286.271 247.04 266.429 255.42 246.296 262.686C241.128 264.551 235.938 266.401 230.658 267.927C225.969 269.281 220.942 269.772 216.807 272.585C208.294 278.376 206.668 289.351 208.364 298.809L208.505 299.588C209.277 303.468 211.025 307.093 213.592 310.115C215.081 311.747 216.902 313.041 218.934 313.909C220.966 314.778 223.161 315.2 225.37 315.148C230.339 315.142 235.251 313.648 240.045 312.502C250.557 309.969 261.202 308.026 271.931 306.682C293.389 303.992 315.091 303.864 336.579 306.301C347.249 307.513 357.83 309.408 368.257 311.972C373.311 313.227 378.318 314.682 383.234 316.404C385.766 317.233 388.254 318.192 390.688 319.278C392.93 320.474 395.06 321.871 397.052 323.449C400.867 326.177 405.231 328.899 410.111 328.69C414.524 328.501 418.525 325.979 421.198 322.559C424.193 318.726 425.709 313.89 426.485 309.142C427.239 303.914 427.289 298.609 426.631 293.368C426.075 288.156 425.195 282.975 424.341 277.805C423.443 272.408 422.328 267.059 420.995 261.759C418.306 251.168 414.851 240.785 410.657 230.695C406.845 221.471 402.338 212.624 397.805 203.742C394.126 196.535 390.291 189.142 384.536 183.339ZM359.665 180.01C363.488 177.25 368.661 177.295 372.956 178.823C380.38 181.466 385.687 188.102 389.668 194.592C391.737 197.964 393.56 201.478 395.358 204.998C397.397 208.992 399.498 212.953 401.469 216.981C406.066 226.335 410.058 235.974 413.419 245.84C416.854 255.907 419.513 266.222 421.371 276.695C422.271 281.827 423.134 286.994 423.742 292.17C424.434 297.162 424.521 302.218 423.999 307.231C423.408 311.925 422.065 316.969 419.126 320.769C416.585 324.055 412.594 326.393 408.341 325.874C403.657 325.303 399.751 321.981 396.048 319.34C391.963 316.427 387.174 314.823 382.454 313.228C372.617 309.999 362.545 307.531 352.328 305.845C342.075 304.045 331.726 302.841 321.333 302.238C300.365 301.095 279.335 302.315 258.639 305.872C253.487 306.749 248.364 307.765 243.27 308.92C238.397 310.026 233.527 311.539 228.563 312.178C224.173 312.743 219.779 312.231 216.437 309.085C213.369 306.197 211.792 302.142 211.02 298.077C211.019 298.072 211.017 298.066 211.016 298.06C210.027 293.282 210.289 288.33 211.778 283.683C213.174 279.462 216.146 275.943 220.075 273.861C222.088 272.932 224.204 272.244 226.378 271.813C229.01 271.197 231.605 270.541 234.186 269.733C244.34 266.553 254.363 262.806 264.223 258.813C283.18 251.136 301.818 242.075 318.503 230.16C325.976 224.945 332.761 218.807 338.698 211.894C341.447 208.608 344.026 205.182 346.424 201.631C349.002 198.035 351.257 194.217 353.162 190.224C354.786 186.593 356.314 182.429 359.665 180.01Z" fill="#121229"/>
<path d="M384.536 183.339C378.453 177.206 369.108 172.599 360.549 176.359C356.457 178.156 353.999 181.813 352.173 185.734C351.263 187.688 350.457 189.691 349.469 191.609C348.445 193.595 347.187 195.469 345.971 197.342C341.131 204.991 335.382 212.026 328.851 218.294C321.559 225.134 313.175 230.809 304.633 235.962C286.271 247.04 266.429 255.42 246.296 262.686C241.128 264.551 235.938 266.401 230.658 267.927C225.969 269.281 220.942 269.772 216.807 272.585C208.294 278.376 206.668 289.351 208.364 298.809L208.505 299.588C209.277 303.468 211.025 307.093 213.592 310.115C215.081 311.747 216.902 313.041 218.934 313.909C220.966 314.778 223.161 315.2 225.37 315.148C230.339 315.142 235.251 313.648 240.045 312.502C250.557 309.969 261.202 308.026 271.931 306.682C293.389 303.992 315.091 303.864 336.579 306.301C347.249 307.513 357.83 309.408 368.257 311.972C373.311 313.227 378.318 314.682 383.234 316.404C385.766 317.233 388.254 318.192 390.688 319.278C392.93 320.474 395.06 321.871 397.052 323.449C400.867 326.177 405.231 328.899 410.111 328.69C414.524 328.501 418.525 325.979 421.198 322.559C424.193 318.726 425.709 313.89 426.485 309.142C427.239 303.914 427.289 298.609 426.631 293.368C426.075 288.156 425.195 282.975 424.341 277.805C423.443 272.408 422.328 267.059 420.995 261.759C418.306 251.168 414.851 240.785 410.657 230.695C406.845 221.471 402.338 212.624 397.805 203.742C394.126 196.535 390.291 189.142 384.536 183.339ZM359.665 180.01C363.488 177.25 368.661 177.295 372.956 178.823C380.38 181.466 385.687 188.102 389.668 194.592C391.737 197.964 393.56 201.478 395.358 204.998C397.397 208.992 399.498 212.953 401.469 216.981C406.066 226.335 410.058 235.974 413.419 245.84C416.854 255.907 419.513 266.222 421.371 276.695C422.271 281.827 423.134 286.994 423.742 292.17C424.434 297.162 424.521 302.218 423.999 307.231C423.408 311.925 422.065 316.969 419.126 320.769C416.585 324.055 412.594 326.393 408.341 325.874C403.657 325.303 399.751 321.981 396.048 319.34C391.963 316.427 387.174 314.823 382.454 313.228C372.617 309.999 362.545 307.531 352.328 305.845C342.075 304.045 331.726 302.841 321.333 302.238C300.365 301.095 279.335 302.315 258.639 305.872C253.487 306.749 248.364 307.765 243.27 308.92C238.397 310.026 233.527 311.539 228.563 312.178C224.173 312.743 219.779 312.231 216.437 309.085C213.369 306.197 211.792 302.142 211.02 298.077C211.019 298.072 211.017 298.066 211.016 298.06C210.027 293.282 210.289 288.33 211.778 283.683C213.174 279.462 216.146 275.943 220.075 273.861C222.088 272.932 224.204 272.244 226.378 271.813C229.01 271.197 231.605 270.541 234.186 269.733C244.34 266.553 254.363 262.806 264.223 258.813C283.18 251.136 301.818 242.075 318.503 230.16C325.976 224.945 332.761 218.807 338.698 211.894C341.447 208.608 344.026 205.182 346.424 201.631C349.002 198.035 351.257 194.217 353.162 190.224C354.786 186.593 356.314 182.429 359.665 180.01Z" stroke="#121229"/>
<path d="M371.574 224.765C372.12 225.076 372.686 225.351 373.267 225.59C376.735 226.917 380.29 228.007 383.906 228.852C391.622 230.662 399.544 231.436 407.464 231.155C409.158 231.036 410.836 230.753 412.476 230.311L420.614 228.393C422.232 228.011 423.982 227.639 425.513 228.288C428.441 229.531 429.227 234.284 430.216 236.966C431.676 240.926 433.636 243.87 433.646 248.372C433.751 249.451 433.449 250.531 432.799 251.401C432.315 251.854 431.742 252.203 431.117 252.426C421.773 256.483 411.958 263.541 404.293 270.404C399.632 274.602 395.328 279.182 391.427 284.094C390.842 284.834 390.258 285.578 389.687 286.331C383.742 276.349 379.284 265.554 376.452 254.287C374.01 244.598 372.378 234.724 371.574 224.765Z" fill="#FFEE33"/>
<path d="M372.276 223.578C371.894 223.372 371.523 223.359 371.202 223.468C370.62 223.565 370.134 223.997 370.202 224.767C370.203 224.778 370.205 224.79 370.206 224.801C370.199 224.924 370.21 225.046 370.239 225.165C370.675 229.993 371.249 234.81 372.013 239.597C374.664 256.219 379.757 272.565 388.503 287.029C388.628 287.231 388.804 287.398 389.012 287.514C389.22 287.63 389.454 287.691 389.693 287.691C389.931 287.691 390.165 287.63 390.373 287.514C390.581 287.398 390.757 287.231 390.882 287.029C397.375 278.526 405.015 270.964 413.583 264.557C417.373 261.693 421.353 259.089 425.494 256.762C427.45 255.674 429.449 254.664 431.496 253.758C432.532 253.485 433.445 252.868 434.084 252.008C434.723 251.148 435.051 250.096 435.013 249.026C435.295 244.775 433.293 241.08 431.798 237.253C430.634 234.272 430.194 230.718 427.899 228.318C427.231 227.653 426.418 227.153 425.524 226.857C424.629 226.561 423.678 226.477 422.745 226.612C420.256 226.991 417.793 227.528 415.371 228.218C412.975 228.91 410.529 229.42 408.056 229.744C405.627 229.897 403.191 229.906 400.762 229.77C395.799 229.571 390.862 228.95 386.005 227.913C383.61 227.404 381.242 226.792 378.903 226.076C376.617 225.465 374.397 224.628 372.276 223.578ZM373.168 227.003C374.795 227.689 376.465 228.269 378.171 228.732C380.703 229.503 383.263 230.156 385.851 230.691C391.086 231.774 396.407 232.399 401.751 232.558C404.112 232.688 406.48 232.641 408.833 232.417C411.283 232.035 413.71 231.52 416.104 230.874C418.38 230.338 420.765 229.507 423.102 229.333C423.868 229.244 424.642 229.406 425.309 229.794C425.975 230.182 426.498 230.776 426.798 231.487C427.475 232.869 428.01 234.317 428.394 235.808C428.943 237.5 429.583 239.161 430.313 240.783C431.134 242.533 431.74 244.376 432.115 246.272C432.323 247.333 432.352 248.421 432.203 249.491C432.015 250.522 431.319 250.842 430.428 251.24C422.211 255.046 414.538 259.93 407.612 265.764C401.057 271.153 395.105 277.233 389.855 283.895C387.921 280.556 386.162 277.119 384.591 273.595C378.029 258.895 374.739 242.967 373.168 227.003Z" fill="#121229"/>
<path d="M372.276 223.578C371.894 223.372 371.523 223.359 371.202 223.468C370.62 223.565 370.134 223.997 370.202 224.767C370.203 224.778 370.205 224.79 370.206 224.801C370.199 224.924 370.21 225.046 370.239 225.165C370.675 229.993 371.249 234.81 372.013 239.597C374.664 256.219 379.757 272.565 388.503 287.029C388.628 287.231 388.804 287.398 389.012 287.514C389.22 287.63 389.454 287.691 389.693 287.691C389.931 287.691 390.165 287.63 390.373 287.514C390.581 287.398 390.757 287.231 390.882 287.029C397.375 278.526 405.015 270.964 413.583 264.557C417.373 261.693 421.353 259.089 425.494 256.762C427.45 255.674 429.449 254.664 431.496 253.758C432.532 253.485 433.445 252.868 434.084 252.008C434.723 251.148 435.051 250.096 435.013 249.026C435.295 244.775 433.293 241.08 431.798 237.253C430.634 234.272 430.194 230.718 427.899 228.318C427.231 227.653 426.418 227.153 425.524 226.857C424.629 226.561 423.678 226.477 422.745 226.612C420.256 226.991 417.793 227.528 415.371 228.218C412.975 228.91 410.529 229.42 408.056 229.744C405.627 229.897 403.191 229.906 400.762 229.77C395.799 229.571 390.862 228.95 386.005 227.913C383.61 227.404 381.242 226.792 378.903 226.076C376.617 225.465 374.397 224.628 372.276 223.578ZM373.168 227.003C374.795 227.689 376.465 228.269 378.171 228.732C380.703 229.503 383.263 230.156 385.851 230.691C391.086 231.774 396.407 232.399 401.751 232.558C404.112 232.688 406.48 232.641 408.833 232.417C411.283 232.035 413.71 231.52 416.104 230.874C418.38 230.338 420.765 229.507 423.102 229.333C423.868 229.244 424.642 229.406 425.309 229.794C425.975 230.182 426.498 230.776 426.798 231.487C427.475 232.869 428.01 234.317 428.394 235.808C428.943 237.5 429.583 239.161 430.313 240.783C431.134 242.533 431.74 244.376 432.115 246.272C432.323 247.333 432.352 248.421 432.203 249.491C432.015 250.522 431.319 250.842 430.428 251.24C422.211 255.046 414.538 259.93 407.612 265.764C401.057 271.153 395.105 277.233 389.855 283.895C387.921 280.556 386.162 277.119 384.591 273.595C378.029 258.895 374.739 242.967 373.168 227.003Z" stroke="#121229"/>
<path d="M372.119 202.438C372.294 200.672 369.537 200.69 369.364 202.438C368.65 209.896 368.648 217.406 369.356 224.865C370.716 238.57 373.794 252.05 378.517 264.987C383.127 277.818 388.953 290.179 395.915 301.902C396.105 302.206 396.406 302.423 396.754 302.509C397.101 302.594 397.469 302.54 397.778 302.359C398.087 302.179 398.314 301.885 398.41 301.54C398.506 301.195 398.465 300.827 398.294 300.513C394.467 294.051 390.976 287.396 387.835 280.575C382.099 268.246 377.724 255.329 374.788 242.052C371.845 229.066 370.945 215.701 372.119 202.438Z" fill="#121229"/>
<path d="M372.119 202.438C372.294 200.672 369.537 200.69 369.364 202.438C368.65 209.896 368.648 217.406 369.356 224.865C370.716 238.57 373.794 252.05 378.517 264.987C383.127 277.818 388.953 290.179 395.915 301.902C396.105 302.206 396.406 302.423 396.754 302.509C397.101 302.594 397.469 302.54 397.778 302.359C398.087 302.179 398.314 301.885 398.41 301.54C398.506 301.195 398.465 300.827 398.294 300.513C394.467 294.051 390.976 287.396 387.835 280.575C382.099 268.246 377.724 255.329 374.788 242.052C371.845 229.066 370.945 215.701 372.119 202.438Z" stroke="#121229"/>
<path d="M209.814 285.416C210.799 281.113 213.177 277.257 216.579 274.444C219.597 272.063 222.916 271.197 226.347 270.405C227.953 270.035 229.584 269.681 231.22 269.195C237.478 267.339 243.657 265.107 249.789 262.877C250.871 262.484 251.95 262.086 253.028 261.683C253.531 268.35 259.425 290.958 260.353 293.156C262.331 297.584 264.653 301.851 267.299 305.916C258.253 307.182 249.288 308.876 240.465 310.985L234.904 312.314C229.296 313.654 223.032 314.91 218.051 312.005C213.187 309.168 210.66 303.747 209.683 298.443C208.806 294.14 208.851 289.7 209.814 285.416Z" fill="#FFEE33"/>
<path d="M253.29 260.34C253.083 260.299 252.869 260.304 252.664 260.358C248.65 261.851 244.622 263.314 240.575 264.717C236.995 265.959 233.39 267.216 229.726 268.188C226.457 269.055 223.096 269.574 219.965 270.899C213.99 273.426 210.062 278.872 208.489 285.053L208.364 285.616C207.124 291.448 207.524 297.512 209.526 303.136C211.08 307.398 213.83 311.419 217.964 313.526C222.602 315.889 227.983 315.244 232.885 314.192C238.597 312.966 244.243 311.462 249.969 310.291C255.839 309.096 261.739 308.081 267.669 307.247C267.872 307.19 268.058 307.086 268.215 306.946C268.372 306.805 268.494 306.631 268.573 306.436C268.653 306.241 268.687 306.031 268.673 305.821C268.659 305.611 268.597 305.406 268.492 305.224C266.957 302.74 265.431 300.248 264.052 297.673C263.069 295.966 262.223 294.184 261.52 292.344C259.912 287.688 258.845 282.786 257.686 278.006C256.922 274.856 256.191 271.696 255.54 268.521C255.027 266.267 254.649 263.985 254.408 261.686C254.405 261.475 254.355 261.267 254.26 261.078C254.165 260.89 254.027 260.726 253.859 260.598C253.692 260.47 253.497 260.382 253.29 260.34ZM251.877 263.577C252.166 265.783 252.562 267.975 253.068 270.142C254.372 276.342 255.896 282.505 257.564 288.617C257.958 290.247 258.435 291.856 258.993 293.438C260.544 297.446 262.775 301.199 265.033 304.865C259.472 305.681 253.941 306.659 248.439 307.8C243.098 308.908 237.823 310.292 232.497 311.461C228.161 312.413 223.144 313.215 219.051 310.989C215.283 308.938 212.953 305.083 211.739 301.076C210.214 296.118 210.01 290.846 211.147 285.784C211.147 285.783 211.147 285.782 211.148 285.781C211.9 282.589 213.443 279.636 215.635 277.195C220.211 272.284 227.086 271.915 233.152 270.054C239.465 268.117 245.686 265.873 251.877 263.577Z" fill="#121229"/>
<path d="M253.29 260.34C253.083 260.299 252.869 260.304 252.664 260.358C248.65 261.851 244.622 263.314 240.575 264.717C236.995 265.959 233.39 267.216 229.726 268.188C226.457 269.055 223.096 269.574 219.965 270.899C213.99 273.426 210.062 278.872 208.489 285.053L208.364 285.616C207.124 291.448 207.524 297.512 209.526 303.136C211.08 307.398 213.83 311.419 217.964 313.526C222.602 315.889 227.983 315.244 232.885 314.192C238.597 312.966 244.243 311.462 249.969 310.291C255.839 309.096 261.739 308.081 267.669 307.247C267.872 307.19 268.058 307.086 268.215 306.946C268.372 306.805 268.494 306.631 268.573 306.436C268.653 306.241 268.687 306.031 268.673 305.821C268.659 305.611 268.597 305.406 268.492 305.224C266.957 302.74 265.431 300.248 264.052 297.673C263.069 295.966 262.223 294.184 261.52 292.344C259.912 287.688 258.845 282.786 257.686 278.006C256.922 274.856 256.191 271.696 255.54 268.521C255.027 266.267 254.649 263.985 254.408 261.686C254.405 261.475 254.355 261.267 254.26 261.078C254.165 260.89 254.027 260.726 253.859 260.598C253.692 260.47 253.497 260.382 253.29 260.34ZM251.877 263.577C252.166 265.783 252.562 267.975 253.068 270.142C254.372 276.342 255.896 282.505 257.564 288.617C257.958 290.247 258.435 291.856 258.993 293.438C260.544 297.446 262.775 301.199 265.033 304.865C259.472 305.681 253.941 306.659 248.439 307.8C243.098 308.908 237.823 310.292 232.497 311.461C228.161 312.413 223.144 313.215 219.051 310.989C215.283 308.938 212.953 305.083 211.739 301.076C210.214 296.118 210.01 290.846 211.147 285.784C211.147 285.783 211.147 285.782 211.148 285.781C211.9 282.589 213.443 279.636 215.635 277.195C220.211 272.284 227.086 271.915 233.152 270.054C239.465 268.117 245.686 265.873 251.877 263.577Z" stroke="#121229"/>
<path d="M473.086 215.239C474.964 214.367 473.183 211.936 471.315 212.802L468.982 213.885L452.835 221.38C450.957 222.251 452.738 224.682 454.606 223.815L456.939 222.733L473.086 215.239Z" fill="#121229"/>
<path d="M473.086 215.239C474.964 214.367 473.183 211.936 471.315 212.802L468.982 213.885L452.835 221.38C450.957 222.251 452.738 224.682 454.606 223.815L456.939 222.733L473.086 215.239Z" stroke="#121229"/>
<path d="M454.824 242.997C452.79 242.443 452.053 245.261 454.068 245.81L456.535 246.483L474.022 251.249C476.055 251.803 476.793 248.985 474.778 248.436L472.31 247.763L454.824 242.997Z" fill="#121229"/>
<path d="M454.824 242.997C452.79 242.443 452.053 245.261 454.068 245.81L456.535 246.483L474.022 251.249C476.055 251.803 476.793 248.985 474.778 248.436L472.31 247.763L454.824 242.997Z" stroke="#121229"/>
<path d="M443.912 192.261C443.487 192.185 443.045 192.254 442.676 192.454C442.307 192.654 442.039 192.971 441.928 193.339L441.08 195.467L435.046 210.627C434.949 211 435.024 211.391 435.253 211.716C435.483 212.041 435.849 212.274 436.274 212.364C436.699 212.44 437.141 212.371 437.511 212.171C437.88 211.971 438.147 211.654 438.258 211.287L439.106 209.158L445.14 193.997C445.237 193.625 445.162 193.234 444.933 192.909C444.703 192.584 444.337 192.351 443.912 192.261Z" fill="#121229"/>
<path d="M443.912 192.261C443.487 192.185 443.045 192.254 442.676 192.454C442.307 192.654 442.039 192.971 441.928 193.339L441.08 195.467L435.046 210.627C434.949 211 435.024 211.391 435.253 211.716C435.483 212.041 435.849 212.274 436.274 212.364C436.699 212.44 437.141 212.371 437.511 212.171C437.88 211.971 438.147 211.654 438.258 211.287L439.106 209.158L445.14 193.997C445.237 193.625 445.162 193.234 444.933 192.909C444.703 192.584 444.337 192.351 443.912 192.261Z" stroke="#121229"/>
<circle cx="277" cy="189" r="10" fill="white"/>
<circle cx="277" cy="189" r="11" stroke="white" stroke-opacity="0.3" stroke-width="2" stroke-linejoin="round"/>
<path d="M172.651 491.186L190.252 486L185.116 503.651L190.252 521.252L172.651 516.117L155 521.252L160.186 503.651L155 486L172.651 491.186Z" fill="white"/>
<path d="M189.97 485.041C190.32 484.938 190.699 485.034 190.958 485.292C191.217 485.55 191.314 485.929 191.212 486.28L186.157 503.651L191.212 520.972C191.314 521.322 191.217 521.701 190.959 521.959C190.701 522.217 190.322 522.314 189.972 522.212L172.65 517.157L155.279 522.212C154.928 522.314 154.55 522.217 154.292 521.958C154.034 521.699 153.938 521.321 154.041 520.97L159.143 503.65L154.041 486.282C153.938 485.931 154.034 485.552 154.293 485.293C154.552 485.035 154.931 484.938 155.282 485.041L172.649 490.143L189.97 485.041Z" stroke="white" stroke-opacity="0.3" stroke-width="2" stroke-miterlimit="10" stroke-linejoin="round"/>
<circle cx="567.5" cy="200.5" r="15.5" fill="#FFEE33"/>
<circle cx="567.5" cy="200.5" r="16.5" stroke="white" stroke-opacity="0.3" stroke-width="2" stroke-linejoin="round"/>
<circle cx="21" cy="283.748" r="19" fill="#FFEE33"/>
<circle cx="21" cy="283.748" r="20" stroke="white" stroke-opacity="0.3" stroke-width="2" stroke-linejoin="round"/>
<path d="M206.834 33.3008L231.495 41.5002L211.253 57.8749L202.996 82.4956L186.679 62.2933L162 53.9957L182.26 37.7193L190.5 13.0002L206.834 33.3008Z" fill="white"/>
<path d="M231.811 40.5517C232.158 40.6671 232.414 40.9624 232.479 41.3219C232.544 41.6814 232.408 42.0477 232.124 42.2775L212.107 58.4691L203.944 82.8135C203.828 83.1597 203.532 83.4152 203.172 83.4798C202.813 83.5444 202.447 83.408 202.217 83.1239L186.085 63.1479L161.681 54.9433C161.335 54.8269 161.08 54.531 161.016 54.1713C160.952 53.8116 161.089 53.4455 161.374 53.2166L181.404 37.1244L189.551 12.6846C189.667 12.3375 189.963 12.0809 190.323 12.0161C190.683 11.9514 191.05 12.0889 191.279 12.3739L207.43 32.4448L231.811 40.5517Z" stroke="white" stroke-opacity="0.3" stroke-width="2" stroke-miterlimit="10" stroke-linejoin="round"/>
<rect x="108.726" y="138.849" width="81.903" height="92.8234" rx="11.6196" transform="rotate(7.07165 108.726 138.849)" fill="white"/>
<rect x="107.857" y="137.733" width="83.903" height="94.8234" rx="12.6196" transform="rotate(7.07165 107.857 137.733)" stroke="white" stroke-opacity="0.3" stroke-width="2"/>
<mask id="mask0_1120_438" style="mask-type:alpha" maskUnits="userSpaceOnUse" x="115" y="154" width="61" height="50">
<rect x="121.897" y="155.748" width="52.5121" height="40.6816" rx="3.86289" transform="rotate(7.07165 121.897 155.748)" fill="#FFC24D" stroke="#121229" stroke-width="3"/>
</mask>
<g mask="url(#mask0_1120_438)">
<rect x="121.679" y="155.47" width="53.0121" height="41.1816" rx="4.11289" transform="rotate(7.07165 121.679 155.47)" fill="#01CFFD" stroke="#121229" stroke-width="2.5"/>
<path d="M134.742 168.367C135.159 168.412 135.563 168.543 135.929 168.75C136.295 168.958 136.616 169.237 136.873 169.574L147.952 184.119L148.721 185.129L149.719 184.346L158.861 177.165C159.506 176.659 160.32 176.429 161.128 176.524C161.936 176.618 162.677 177.029 163.19 177.671L171.289 187.807L169.876 199.283C169.599 201.537 167.547 203.136 165.293 202.854L120.581 197.264C118.524 197.006 117.034 195.192 117.158 193.145L117.176 192.946L118.675 180.761L132.405 169.088C132.728 168.814 133.1 168.609 133.502 168.485C133.904 168.362 134.326 168.321 134.742 168.367Z" fill="white" stroke="#121229" stroke-width="2.5"/>
</g>
<circle cx="120.14" cy="213.166" r="5.57525" transform="rotate(7.07165 120.14 213.166)" fill="#01CFFD" stroke="#121229" stroke-width="2.5"/>
<line x1="132.655" y1="214.834" x2="167.202" y2="219.12" stroke="#121229" stroke-width="2.5" stroke-linecap="round"/>
<rect x="49.6588" y="124.329" width="81.903" height="92.8234" rx="11.6196" transform="rotate(-7.24491 49.6588 124.329)" fill="white"/>
<rect x="48.5407" y="123.463" width="83.903" height="94.8234" rx="12.6196" transform="rotate(-7.24491 48.5407 123.463)" stroke="white" stroke-opacity="0.3" stroke-width="2"/>
<mask id="mask1_1120_438" style="mask-type:alpha" maskUnits="userSpaceOnUse" x="65" y="129" width="60" height="50">
<rect x="66.5991" y="137.448" width="52.5121" height="40.6816" rx="3.86289" transform="rotate(-7.24491 66.5991 137.448)" fill="#FFC24D" stroke="#121229" stroke-width="3"/>
</mask>
<g mask="url(#mask1_1120_438)">
<rect x="66.4948" y="137.538" width="53.0121" height="41.1816" rx="4.11289" transform="rotate(-7.24491 66.4948 137.538)" fill="#01CFFD" stroke="#121229" stroke-width="2.5"/>
<path d="M83.1252 149.15C82.7858 146.478 85.4845 144.454 87.9542 145.527L99.97 150.751C102.385 151.801 102.799 155.052 100.722 156.673L90.3943 164.735C88.2715 166.392 85.1526 165.107 84.813 162.436L83.1252 149.15Z" fill="white" stroke="#121229" stroke-width="3"/>
</g>
<circle cx="79.0951" cy="193.517" r="5.57525" transform="rotate(-7.24491 79.0951 193.517)" fill="#01CFFD" stroke="#121229" stroke-width="2.5"/>
<line x1="91.6343" y1="192.038" x2="126.168" y2="187.648" stroke="#121229" stroke-width="2.5" stroke-linecap="round"/>
<rect width="86.9197" height="87.0876" rx="24" transform="matrix(0.994603 -0.103752 0.105309 0.994439 270.679 441.26)" fill="white"/>
<rect x="-1.09991" y="-0.890687" width="88.9197" height="89.0876" rx="25" transform="matrix(0.994603 -0.103752 0.105309 0.994439 270.766 441.141)" stroke="white" stroke-opacity="0.3" stroke-width="2"/>
<path d="M336.883 478.138C335.112 478.322 333.486 477.001 333.297 475.224L332.72 469.808L327.321 470.368C325.55 470.552 323.924 469.231 323.735 467.454C323.545 465.678 324.857 464.052 326.628 463.868L335.267 462.972C337.038 462.789 338.664 464.11 338.853 465.886L339.776 474.552C339.965 476.329 338.654 477.955 336.883 478.138Z" fill="#01CFFD"/>
<path d="M299.349 495.196C298.528 495.281 297.674 495.062 296.957 494.479C295.569 493.351 295.348 491.27 296.467 489.882L308.82 474.57C309.437 473.805 310.308 473.364 311.311 473.347C312.271 473.335 313.191 473.766 313.841 474.532L319.309 481.155L333.013 464.168C334.132 462.781 336.207 462.566 337.594 463.693C338.981 464.821 339.203 466.902 338.083 468.29L321.871 488.387C321.253 489.153 320.383 489.594 319.379 489.61C318.419 489.622 317.499 489.191 316.85 488.426L311.381 481.802L301.538 494.004C300.959 494.722 300.17 495.11 299.349 495.196Z" fill="#01CFFD"/>
<rect x="458" y="70.0002" width="75.2557" height="72.6822" rx="21" transform="rotate(10 458 70.0002)" fill="white"/>
<rect x="457.189" y="68.8418" width="77.2557" height="74.6822" rx="22" transform="rotate(10 457.189 68.8418)" stroke="white" stroke-opacity="0.3" stroke-width="2"/>
<path d="M501.465 96.2111C502.954 96.4736 504.347 97.123 505.505 98.0946C506.663 99.0663 507.545 100.326 508.062 101.746C508.98 104.269 509.057 107.021 508.281 109.59C507.504 112.16 505.916 114.409 503.755 116.001L485.458 129.478L472.875 110.556C471.388 108.321 470.666 105.664 470.816 102.984C470.965 100.304 471.978 97.7443 473.703 95.6881C474.675 94.5302 475.934 93.6479 477.354 93.1309C478.686 92.6461 480.116 92.4988 481.516 92.6985L481.795 92.7427C483.41 93.0275 484.91 93.7675 486.119 94.8756C487.328 95.9839 488.195 97.4149 488.619 98.9993L489.398 101.913L489.954 103.988L491.184 102.228L492.913 99.7565C493.853 98.4126 495.157 97.3644 496.672 96.7364C498.187 96.1085 499.85 95.9263 501.465 96.2111Z" fill="#01CFFD" stroke="black" stroke-width="2"/>
<rect x="432.939" y="362" width="90.4803" height="90.4803" rx="26.06" transform="rotate(11.6562 432.939 362)" fill="#15214B"/>
<rect x="432.162" y="360.819" width="92.4803" height="92.4803" rx="27.06" transform="rotate(11.6562 432.162 360.819)" stroke="white" stroke-opacity="0.3" stroke-width="2"/>
<path d="M492.404 420.215C487.482 419.208 483.002 416.674 479.603 412.975L477.076 425.221C476.422 428.388 474.879 431.303 472.626 433.624C470.374 435.944 467.507 437.574 464.361 438.323C461.215 439.071 457.92 438.906 454.865 437.848C451.809 436.79 449.118 434.882 447.109 432.348C445.099 429.815 443.854 426.76 443.519 423.544C443.184 420.327 443.774 417.082 445.218 414.189C446.663 411.296 448.903 408.875 451.675 407.21C454.448 405.545 457.637 404.705 460.87 404.79L458.767 414.985C457.55 415.282 456.434 415.9 455.538 416.775C454.641 417.65 453.995 418.749 453.668 419.959C453.341 421.168 453.345 422.443 453.679 423.651C454.012 424.858 454.664 425.954 455.565 426.824C456.467 427.694 457.586 428.306 458.804 428.596C460.023 428.886 461.297 428.844 462.494 428.474C463.691 428.104 464.767 427.42 465.609 426.492C466.451 425.564 467.029 424.428 467.282 423.201L473.748 391.861L483.542 393.881C482.791 397.518 483.516 401.303 485.557 404.405C487.598 407.507 490.788 409.671 494.424 410.421L492.404 420.215Z" fill="white"/>
<rect x="524.506" y="260" width="57.5255" height="57.5255" rx="15" transform="rotate(10.8693 524.506 260)" fill="white" stroke="white" stroke-opacity="0.3" stroke-width="2"/>
<path fill-rule="evenodd" clip-rule="evenodd" d="M549.022 279.921C540.887 278.359 533.183 282.864 531.816 289.982C531.035 294.051 532.498 298.088 535.41 301.096L534.158 307.615L541.363 304.938C542.228 305.257 543.13 305.519 544.072 305.7C552.207 307.262 559.911 302.758 561.278 295.639C562.645 288.521 557.157 281.483 549.022 279.921Z" fill="#01CFFD" stroke="black" stroke-width="2" stroke-linejoin="round"/>
<rect x="56.0575" y="360.68" width="90.4803" height="90.4803" rx="26.06" transform="rotate(-12.3038 56.0575 360.68)" fill="#15214B"/>
<rect x="54.8674" y="359.916" width="92.4803" height="92.4803" rx="27.06" transform="rotate(-12.3038 54.8674 359.916)" stroke="white" stroke-opacity="0.3" stroke-width="2"/>
<path d="M118.805 417.803L114.151 396.463L121.675 394.822L120.987 386.259L112.337 388.146L111.179 382.836C110.654 380.428 110.998 378.634 114.625 377.843L119.25 376.832L117.628 369.394C116.806 369.467 114.01 369.84 110.816 370.536C104.146 371.991 100.426 376.862 101.978 383.98L103.316 390.114L95.773 391.759L97.587 400.075L105.13 398.43L109.784 419.77L118.805 417.803Z" fill="white"/>
<rect x="282.659" y="31.2798" width="90.4803" height="90.4803" rx="26.06" transform="rotate(-7.79991 282.659 31.2798)" fill="#15214B"/>
<rect x="281.532" y="30.4248" width="92.4803" height="92.4803" rx="27.06" transform="rotate(-7.79991 281.532 30.4248)" stroke="white" stroke-opacity="0.3" stroke-width="2"/>
<path d="M330.588 47.8283C339.429 46.6172 343.851 46.0119 347.324 47.6826C348.874 48.4286 350.258 49.4793 351.394 50.7721C353.937 53.6676 354.543 58.0883 355.754 66.9295C356.965 75.771 357.57 80.1924 355.899 83.6651C355.153 85.2156 354.103 86.5999 352.81 87.7353C349.914 90.2784 345.493 90.8844 336.652 92.0956C327.81 93.3066 323.39 93.9117 319.917 92.2411C318.366 91.4951 316.982 90.4444 315.847 89.1516C313.304 86.2561 312.698 81.8348 311.487 72.9933C310.275 64.1521 309.67 59.7313 311.341 56.2586C312.087 54.708 313.138 53.3238 314.43 52.1884C317.326 49.6454 321.747 49.0394 330.588 47.8283ZM332.051 58.5029C325.723 59.37 321.295 65.2035 322.162 71.5319C323.029 77.8601 328.862 82.2873 335.19 81.4207C341.519 80.5538 345.947 74.721 345.08 68.3925C344.213 62.064 338.38 57.636 332.051 58.5029ZM343.177 51.1337C341.009 51.4308 339.491 53.43 339.788 55.5988C340.085 57.7677 342.084 59.2852 344.253 58.9881C346.422 58.6909 347.94 56.6917 347.642 54.5229C347.345 52.3542 345.346 50.8367 343.177 51.1337Z" fill="white"/>
<path d="M441.899 12.6858C441.899 12.6858 430.466 25.3147 420.377 49.9623" stroke="white" stroke-width="2.62722" stroke-linecap="round"/>
<path d="M417.437 25.3359C427.909 28.7194 438.183 37.3137 438.183 37.3137" stroke="white" stroke-width="2.62722" stroke-linecap="round"/>
<path d="M414.823 39.8276C433.454 25.2643 460.265 20.3307 460.265 20.3307" stroke="white" stroke-width="2.62722" stroke-linecap="round"/>
<path d="M424.278 8.8731C425.302 25.2915 436.602 56.7613 436.602 56.7613" stroke="white" stroke-width="2.62722" stroke-linecap="round"/>
</svg>
