<svg width="516" height="492" viewBox="0 0 516 492" fill="none" xmlns="http://www.w3.org/2000/svg">
<g clip-path="url(#clip0_909_880)">
<path d="M392.85 436.967L408.227 433.863L402.537 448.513L405.6 463.886L390.992 458.2L375.577 461.259L381.304 446.655L378.203 431.236L392.85 436.967Z" fill="#436AF6"/>
</g>
<g clip-path="url(#clip1_909_880)">
<path d="M469.37 46.4538L494.899 63.4053L466.804 75.7834L449.799 101.249L437.474 73.2174L411.955 56.1486L440.04 43.8878L457.055 18.3049L469.37 46.4538Z" fill="white"/>
</g>
<ellipse cx="89.9002" cy="429.157" rx="13.2514" ry="13.2513" transform="rotate(5 89.9002 429.157)" fill="#436AF6"/>
<circle cx="490.238" cy="219.006" r="8.54926" transform="rotate(5 490.238 219.006)" fill="#436AF6"/>
<ellipse cx="164.262" cy="26.4464" rx="20.0907" ry="20.0907" transform="rotate(5 164.262 26.4464)" fill="#436AF6"/>
<line x1="272.092" y1="100.294" x2="243.854" y2="423.061" stroke="#15214B"/>
<line x1="80.6376" y1="234.752" x2="415.359" y2="264.036" stroke="#15214B"/>
<line x1="94.3826" y1="322.797" x2="407.059" y2="176.993" stroke="#15214B"/>
<line x1="125.881" y1="152.84" x2="391.286" y2="338.679" stroke="#15214B"/>
<line x1="185.047" y1="99.0387" x2="321.975" y2="392.682" stroke="#15214B"/>
<line x1="164.184" y1="377.963" x2="350.023" y2="112.558" stroke="#15214B"/>
<path d="M225.755 379.29C221.516 380.337 217.055 377.137 215.842 372.16L196.903 295.317L212.229 291.529L231.185 368.476C232.403 373.402 229.97 378.241 225.755 379.29Z" fill="#15214B"/>
<path d="M223.45 380.021C222.248 379.916 221.046 379.527 219.921 378.836C217.646 377.451 215.946 375.086 215.263 372.294L196.324 295.452C196.247 295.161 196.429 294.842 196.745 294.767L212.071 290.979C212.229 290.941 212.383 290.954 212.504 291.042C212.625 291.13 212.718 291.241 212.756 291.399L231.711 368.346C232.981 373.561 230.366 378.719 225.861 379.846C225.098 380.037 224.268 380.093 223.45 380.021ZM197.587 295.743L216.394 372.032C216.999 374.534 218.512 376.677 220.519 377.883C222.135 378.849 223.937 379.162 225.623 378.742C229.521 377.769 231.774 373.223 230.632 368.613L211.808 292.219L197.587 295.743Z" fill="#15214B"/>
<path d="M215.229 226.892L164.077 257.032L143.632 274.858L135.129 287.234L135.094 287.334C133.44 289.457 133.83 294.724 136.102 300.258C138.33 305.711 141.797 309.674 144.438 310.111L144.357 310.156L158.362 312.928L185.195 311.022L243.129 295.832L311.91 313.912L312.394 313.98C295.14 309.171 273.515 283.644 259.21 248.962C244.928 214.309 242.323 181.063 251.28 165.557L251.255 165.555L215.684 226.107L215.229 226.892Z" fill="#F9DE32"/>
<path d="M324.124 313.553C342.166 306.097 342.385 265.158 324.614 222.115C306.842 179.071 277.809 150.221 259.767 157.677C241.725 165.133 241.506 206.071 259.278 249.115C277.05 292.159 306.083 321.009 324.124 313.553Z" fill="white"/>
<path d="M316.332 315.227C308.815 314.569 300.13 309.582 291.102 300.57C278.803 288.308 267.286 270.057 258.681 249.148C245.657 217.491 241.904 185.872 249.136 168.591C251.547 162.822 255.08 158.956 259.596 157.108C268.572 153.46 280.34 158.253 292.758 170.629C305.057 182.891 316.574 201.142 325.179 222.051C338.229 253.71 341.981 285.329 334.724 302.608C332.313 308.377 328.78 312.243 324.264 314.091C321.83 315.115 319.17 315.475 316.332 315.227ZM267.478 157.128C264.845 156.897 262.343 157.22 260.044 158.179C255.797 159.895 252.486 163.574 250.202 169.071C243.069 186.103 246.825 217.387 259.744 248.777C277.341 291.479 306.094 320.336 323.861 313.102C328.107 311.385 331.418 307.706 333.702 302.209C340.835 285.177 337.079 253.893 324.161 222.503C308.836 185.335 285.095 158.669 267.478 157.128Z" fill="#15214B"/>
<path d="M316.331 315.228C308.814 314.571 300.129 309.584 291.102 300.572C278.803 288.309 267.285 270.058 258.68 249.149C245.656 217.492 241.904 185.873 249.135 168.592C251.546 162.824 255.08 158.957 259.595 157.11C265.608 154.646 273.06 156.045 281.143 161.134C288.884 166.013 297.007 174.173 304.69 184.717C304.874 184.965 304.818 185.321 304.57 185.505C304.322 185.69 303.966 185.633 303.781 185.385C288.187 163.967 271.425 153.531 260.043 158.18C255.796 159.896 252.485 163.576 250.201 169.072C243.068 186.104 246.824 217.388 259.743 248.778C275.044 285.919 298.808 312.613 316.4 314.152C319.033 314.382 321.535 314.06 323.834 313.101C328.081 311.385 331.392 307.705 333.676 302.209C340.809 285.177 337.053 253.893 324.134 222.503C320.29 213.145 315.81 204.273 310.879 196.135C310.723 195.864 310.805 195.51 311.077 195.353C311.348 195.197 311.701 195.279 311.858 195.551C316.835 203.744 321.311 212.667 325.202 222.081C338.228 253.712 341.98 285.331 334.723 302.61C332.312 308.379 328.779 312.245 324.263 314.092C321.829 315.117 319.169 315.477 316.331 315.228Z" fill="#15214B"/>
<path d="M289.556 257.713C293.735 255.986 293.79 246.511 289.677 236.549C285.564 226.588 278.842 219.913 274.662 221.64C270.482 223.367 270.428 232.843 274.541 242.804C278.654 252.766 285.376 259.441 289.556 257.713Z" fill="#F9DE32"/>
<path d="M287.718 258.539C283.32 258.154 277.681 251.938 274.007 242.982C270.947 235.549 270.079 228.102 271.803 224C272.419 222.559 273.303 221.579 274.452 221.113C278.993 219.268 285.903 225.981 290.198 236.383C293.257 243.816 294.126 251.264 292.402 255.366C291.786 256.807 290.902 257.786 289.753 258.253C289.112 258.506 288.434 258.601 287.718 258.539ZM276.39 221.927C275.853 221.88 275.333 221.937 274.878 222.129C273.996 222.491 273.311 223.255 272.822 224.424C271.225 228.254 272.069 235.39 275.023 242.556C278.934 252.048 285.481 258.781 289.303 257.208C290.185 256.847 290.87 256.082 291.359 254.914C292.959 251.059 292.087 243.946 289.158 236.782C285.712 228.464 280.277 222.267 276.39 221.927Z" fill="#15214B"/>
<path d="M313.28 305.344C306.684 304.767 299.08 300.39 291.164 292.506C280.406 281.771 270.314 265.783 262.793 247.495C251.381 219.794 248.109 192.109 254.432 176.966C256.551 171.893 259.656 168.504 263.638 166.868C272.774 163.157 285.183 169.449 297.709 184.128C297.919 184.379 297.889 184.711 297.639 184.921C297.389 185.131 297.057 185.102 296.847 184.852C284.648 170.562 272.694 164.361 264.062 167.91C260.374 169.418 257.494 172.594 255.477 177.392C249.255 192.261 252.531 219.611 263.835 247.071C277.199 279.557 297.961 302.87 313.353 304.216C315.654 304.418 317.819 304.117 319.848 303.315C323.535 301.808 326.415 298.632 328.432 293.834C334.654 278.965 331.379 251.614 320.074 224.155C316.652 215.865 312.7 208.019 308.329 200.857C308.172 200.586 308.254 200.232 308.526 200.076C308.797 199.919 309.151 200.001 309.307 200.273C313.723 207.515 317.698 215.389 321.142 223.732C332.554 251.434 335.826 279.119 329.503 294.262C327.384 299.335 324.279 302.723 320.297 304.36C318.109 305.225 315.761 305.561 313.28 305.344Z" fill="#15214B"/>
<path d="M158.343 313.471C158.318 313.469 158.292 313.467 158.292 313.467L144.287 310.695C144.21 310.688 144.135 310.656 144.063 310.598C141.189 309.883 137.829 305.877 135.596 300.475C133.209 294.776 132.831 289.382 134.61 287.012L134.642 286.937L143.147 274.536C143.177 274.487 143.205 274.464 143.233 274.44L163.678 256.614C163.706 256.591 163.734 256.568 163.762 256.544L214.779 226.469L250.742 165.256C250.83 165.135 250.941 165.041 251.099 165.004C251.257 164.966 251.411 164.979 251.532 165.067C251.802 165.22 251.901 165.564 251.748 165.834C242.608 181.659 245.825 214.984 259.723 248.728C273.642 282.525 294.891 308.509 312.578 313.381C312.854 313.457 313.037 313.731 312.984 314.036C312.934 314.315 312.66 314.497 312.377 314.498L311.893 314.43C311.868 314.428 311.842 314.425 311.817 314.423L243.161 296.38L185.36 311.53C185.334 311.528 185.281 311.549 185.255 311.547L158.422 313.452C158.394 313.476 158.369 313.473 158.343 313.471ZM144.79 309.656L158.442 312.346L185.147 310.429L243.053 295.262C243.157 295.245 243.236 295.226 243.336 295.261L305.142 311.494C288.841 302.567 270.948 278.861 258.73 249.182C246.596 219.716 242.58 190.523 247.742 172.752L215.722 227.171C215.664 227.243 215.606 227.315 215.525 227.36L164.425 257.505L144.065 275.235L135.56 287.636C135.558 287.662 135.53 287.685 135.53 287.685C134.019 289.641 134.467 294.835 136.613 300.049C138.717 305.156 142.051 309.159 144.541 309.557C144.643 309.566 144.718 309.598 144.79 309.656Z" fill="#15214B"/>
<path d="M215.323 226.69L251.257 165.525L251.283 165.528C242.325 181.034 244.956 214.282 259.212 248.933C273.515 283.64 295.14 309.168 312.449 313.93L311.966 313.862L243.285 295.816L241.698 295.394C233.718 293.252 223.825 281.767 217.393 266.049C210.791 249.929 210.73 234.433 214.898 227.426L215.323 226.69Z" fill="white"/>
<path d="M312.401 314.489C312.376 314.487 312.401 314.489 312.401 314.489L311.892 314.419C311.866 314.417 311.841 314.414 311.815 314.412L243.134 296.367L241.548 295.944C233.114 293.686 223.207 281.762 216.858 266.282C209.663 248.693 210.539 233.666 214.408 227.148L214.858 226.414L250.79 165.275C250.878 165.154 250.989 165.06 251.147 165.023C251.305 164.985 251.458 164.998 251.579 165.086C251.849 165.239 251.948 165.583 251.796 165.853C242.656 181.678 245.872 215.003 259.77 248.747C273.689 282.544 294.939 308.528 312.625 313.401C312.902 313.476 313.084 313.75 313.032 314.055C312.933 314.304 312.682 314.514 312.401 314.489ZM247.689 172.736L215.813 226.987L215.362 227.721C211.524 234.19 211.15 249.364 217.902 265.832C224.123 281.017 233.743 292.684 241.851 294.837L243.437 295.259L305.115 311.481C288.814 302.554 270.921 278.848 258.703 249.169C246.569 219.703 242.553 190.51 247.689 172.736Z" fill="#15214B"/>
<path d="M157.582 313.318C157.557 313.316 157.531 313.313 157.531 313.313L144.258 310.709C144.182 310.702 144.107 310.67 144.035 310.612C141.16 309.897 137.801 305.891 135.568 300.489C133.209 294.767 132.83 289.373 134.61 287.002L134.642 286.928L143.147 274.527C143.325 274.259 143.664 274.211 143.932 274.389C144.2 274.567 144.247 274.907 144.069 275.175L135.56 287.627C135.557 287.652 135.53 287.676 135.53 287.676C134.019 289.631 134.466 294.825 136.612 300.039C138.716 305.146 142.05 309.15 144.54 309.548C144.617 309.555 144.717 309.589 144.764 309.645L157.732 312.197C158.036 312.249 158.242 312.551 158.164 312.853C158.114 313.132 157.864 313.343 157.582 313.318Z" fill="black"/>
<path d="M158.525 312.832C154.205 312.145 148.659 305.448 144.981 296.543C141.092 287.104 140.809 277.672 143.964 274.597L135.155 287.229L135.095 287.327C133.44 289.451 133.83 294.717 136.102 300.251C138.331 305.704 141.797 309.668 144.438 310.105L144.357 310.149L158.525 312.832Z" fill="white"/>
<path d="M158.477 313.403C158.451 313.401 158.451 313.401 158.425 313.399C158.323 313.39 158.198 313.353 158.095 313.344L144.258 310.716C144.181 310.709 144.107 310.677 144.034 310.619C141.16 309.903 137.8 305.898 135.567 300.496C133.208 294.774 132.83 289.38 134.609 287.009L134.641 286.935L142.391 275.808C142.705 275.165 143.089 274.606 143.54 274.156C143.739 273.941 144.074 273.945 144.291 274.118C144.505 274.317 144.555 274.631 144.379 274.873L143.292 276.402C141.428 280.337 142.212 288.448 145.445 296.257C148.95 304.786 154.182 311.249 158.252 312.146L158.556 312.199C158.861 312.251 159.066 312.553 159.014 312.857C159.008 313.218 158.758 313.428 158.477 313.403ZM144.763 309.652L154.443 311.504C150.895 308.77 147.187 303.446 144.448 296.762C141.791 290.318 140.765 283.785 141.424 279.203L135.559 287.634C135.557 287.659 135.529 287.683 135.529 287.683C134.018 289.638 134.466 294.832 136.612 300.046C138.716 305.153 142.05 309.156 144.54 309.555C144.616 309.561 144.716 309.596 144.763 309.652Z" fill="#15214B"/>
<path d="M184.242 311.043L185.387 310.911C179.19 311.658 170.381 301.608 164.749 287.945C158.988 273.986 158.85 260.545 164.104 257.036L163.409 257.619L144.023 274.533C140.821 277.552 141.074 287.033 144.984 296.525C148.744 305.669 154.616 312.472 158.991 312.829L184.242 311.043Z" fill="#15214B"/>
<path d="M158.915 313.413C154.261 313.005 148.341 306.173 144.449 296.759C140.499 287.135 140.139 277.412 143.62 274.134L162.643 257.549C162.985 257.167 163.375 256.84 163.785 256.567C164.031 256.408 164.361 256.463 164.548 256.685C164.732 256.933 164.703 257.266 164.481 257.452L163.392 258.414C159.421 262.861 160.12 275.191 165.284 287.731C170.851 301.26 179.432 310.955 185.254 310.381L185.333 310.363C185.644 310.338 185.91 310.542 185.959 310.856C185.984 311.167 185.78 311.433 185.467 311.483C185.441 311.48 185.415 311.478 185.388 311.502L184.321 311.614L184.296 311.612L159.045 313.398C158.994 313.394 158.94 313.415 158.915 313.413ZM160.882 260.591L144.397 274.975C141.307 277.901 141.775 287.272 145.517 296.337C149.172 305.214 154.848 311.897 159.013 312.287L181.309 310.707C175.561 308.09 168.939 299.546 164.24 288.181C159.777 277.352 158.628 266.632 160.882 260.591Z" fill="#15214B"/>
<path d="M274.669 221.623C270.475 223.318 270.233 232.859 274.519 242.771C281.699 259.354 288.69 258.084 289.507 257.872C289.532 257.874 289.53 257.9 289.505 257.897L273.766 268.454C269.976 262.014 266.45 254.901 263.303 247.28C260.309 239.981 257.875 232.758 256.063 225.794L274.669 221.623Z" fill="#15214B"/>
<path d="M273.711 269.021C273.685 269.019 273.66 269.017 273.634 269.015C273.483 268.976 273.362 268.888 273.271 268.751C269.391 262.148 265.87 254.984 262.787 247.523C259.832 240.357 257.375 233.105 255.525 225.984C255.487 225.826 255.501 225.673 255.588 225.552C255.676 225.43 255.788 225.337 255.945 225.299L274.552 221.128C274.84 221.076 275.135 221.23 275.213 221.521C275.291 221.811 275.161 222.109 274.895 222.214C273.987 222.573 273.272 223.387 272.776 224.632C271.172 228.539 272.084 235.784 275.068 242.618C282.077 258.799 288.675 257.598 289.387 257.402C289.652 257.322 289.948 257.477 290.055 257.718C290.163 257.96 290.083 258.288 289.863 258.449L274.08 268.925C273.971 268.993 273.839 269.032 273.711 269.021ZM256.766 226.222C258.611 233.11 260.987 240.123 263.831 247.073C266.806 254.293 270.22 261.215 273.96 267.651L287.618 258.485C284.714 258.102 279.407 255.447 274.005 242.989C270.874 235.781 269.975 228.382 271.713 224.127C271.941 223.58 272.188 223.112 272.484 222.674L256.766 226.222Z" fill="#15214B"/>
<ellipse cx="52.6915" cy="235.769" rx="28.8105" ry="28.8105" transform="rotate(11.9667 52.6915 235.769)" fill="#15214B"/>
<g clip-path="url(#clip2_909_880)">
<path d="M69.1648 229.891L69.64 227.649C69.7661 227.054 69.6507 226.434 69.3194 225.924C68.988 225.415 68.4679 225.058 67.8733 224.932L43.2119 219.705C42.6173 219.579 41.997 219.694 41.4874 220.025C40.9779 220.357 40.6208 220.877 40.4948 221.471L40.0196 223.713C39.8936 224.308 40.0089 224.928 40.3403 225.438C40.6716 225.947 41.1918 226.304 41.7864 226.43L38.9353 239.882L37.8143 239.645C37.517 239.582 37.2069 239.639 36.9521 239.805C36.6973 239.971 36.5188 240.231 36.4558 240.528C36.3928 240.825 36.4504 241.135 36.6161 241.39C36.7818 241.645 37.0419 241.823 37.3392 241.886L49.6698 244.5L49.1537 246.935C48.3497 247.041 47.609 247.428 47.0626 248.027C46.5162 248.626 46.1992 249.399 46.1676 250.21C46.1361 251.02 46.392 251.815 46.8901 252.455C47.3883 253.095 48.0966 253.538 48.8899 253.706C49.6832 253.874 50.5104 253.757 51.2253 253.374C51.9402 252.991 52.4967 252.368 52.7966 251.615C53.0965 250.861 53.1203 250.026 52.8639 249.257C52.6076 248.487 52.0875 247.833 51.3956 247.41L51.9118 244.975L64.2425 247.589C64.5397 247.652 64.8499 247.594 65.1047 247.428C65.3595 247.263 65.538 247.003 65.601 246.705C65.664 246.408 65.6064 246.098 65.4407 245.843C65.275 245.588 65.0149 245.41 64.7176 245.347L63.5967 245.109L66.4477 231.657C67.0423 231.783 67.6626 231.668 68.1722 231.337C68.6818 231.005 69.0388 230.485 69.1648 229.891ZM48.8534 237.299C48.7904 237.596 48.6119 237.856 48.3571 238.022C48.1023 238.188 47.7922 238.245 47.4949 238.182C47.1976 238.119 46.9375 237.941 46.7718 237.686C46.6061 237.431 46.5485 237.121 46.6115 236.824L47.0867 234.582C47.1497 234.285 47.3282 234.024 47.583 233.859C47.8378 233.693 48.1479 233.635 48.4452 233.698C48.7425 233.761 49.0026 233.94 49.1683 234.195C49.3339 234.45 49.3916 234.76 49.3286 235.057L48.8534 237.299ZM49.3653 251.463C49.1436 251.416 48.9408 251.305 48.7825 251.142C48.6243 250.98 48.5177 250.775 48.4763 250.552C48.4349 250.329 48.4604 250.099 48.5498 249.891C48.6391 249.682 48.7882 249.505 48.9782 249.382C49.1682 249.258 49.3906 249.194 49.6172 249.197C49.8438 249.199 50.0645 249.269 50.2513 249.398C50.4382 249.526 50.5828 249.707 50.6669 249.917C50.751 250.128 50.7708 250.358 50.7238 250.58C50.6608 250.877 50.4823 251.137 50.2275 251.303C49.9727 251.469 49.6626 251.526 49.3653 251.463ZM53.3373 238.249C53.2743 238.547 53.0958 238.807 52.841 238.972C52.5862 239.138 52.276 239.196 51.9787 239.133C51.6814 239.07 51.4214 238.891 51.2557 238.636C51.09 238.382 51.0324 238.071 51.0954 237.774L51.8081 234.411C51.8711 234.114 52.0497 233.854 52.3045 233.688C52.5592 233.523 52.8694 233.465 53.1667 233.528C53.464 233.591 53.7241 233.769 53.8898 234.024C54.0554 234.279 54.1131 234.589 54.0501 234.886L53.3373 238.249ZM57.8212 239.2C57.7582 239.497 57.5796 239.757 57.3249 239.923C57.0701 240.088 56.7599 240.146 56.4626 240.083C56.1653 240.02 55.9052 239.842 55.7396 239.587C55.5739 239.332 55.5162 239.022 55.5793 238.725L56.5296 234.241C56.5926 233.943 56.7712 233.683 57.0259 233.518C57.2807 233.352 57.5909 233.294 57.8882 233.357C58.1855 233.42 58.4456 233.599 58.6112 233.854C58.7769 234.108 58.8346 234.419 58.7715 234.716L57.8212 239.2ZM42.2616 224.189L42.7367 221.947L67.3981 227.174L66.9229 229.416L42.2616 224.189Z" fill="white"/>
</g>
<ellipse cx="429.415" cy="173.027" rx="28.8105" ry="28.8105" transform="rotate(17.5216 429.415 173.027)" fill="#15214B"/>
<path d="M447.146 166.06C447.146 166.06 447.142 166.074 447.139 166.081L430.913 189.788C430.658 190.175 430.291 190.476 429.86 190.649C429.43 190.822 428.957 190.86 428.504 190.756C428.44 190.742 428.376 190.725 428.313 190.705C427.9 190.576 427.532 190.331 427.252 189.999C426.973 189.667 426.795 189.263 426.738 188.833L424.988 177.06C424.97 176.942 424.99 176.822 425.044 176.716C425.099 176.61 425.185 176.523 425.29 176.468L435.699 171.054C435.961 170.91 436.156 170.669 436.242 170.383C436.328 170.097 436.299 169.788 436.161 169.523C436.024 169.258 435.788 169.057 435.504 168.963C435.22 168.87 434.911 168.891 434.642 169.022L424.229 174.434C424.124 174.489 424.003 174.51 423.885 174.493C423.767 174.477 423.657 174.424 423.571 174.342L414.927 166.147C414.588 165.829 414.354 165.416 414.255 164.962C414.156 164.508 414.198 164.035 414.374 163.606C414.55 163.176 414.853 162.81 415.242 162.556C415.631 162.302 416.088 162.172 416.552 162.184L445.279 162.512L445.299 162.518C445.706 162.531 446.101 162.652 446.445 162.868C446.79 163.085 447.07 163.389 447.258 163.749C447.446 164.11 447.535 164.514 447.515 164.92C447.495 165.326 447.368 165.72 447.146 166.06Z" fill="white"/>
<circle cx="108.237" cy="161.222" r="34.0487" transform="rotate(-19.3412 108.237 161.222)" fill="#F9DE32"/>
<g clip-path="url(#clip3_909_880)">
<path d="M124.669 150.794C128.593 161.975 115.192 176.843 114.617 177.465C114.466 177.63 114.277 177.756 114.065 177.83C113.854 177.904 113.628 177.925 113.406 177.89C112.569 177.764 92.815 174.533 88.8906 163.352C87.972 160.726 88.1328 157.842 89.3376 155.334C90.5425 152.826 92.6931 150.898 95.3175 149.973C98.6158 148.816 102.001 149.22 104.643 150.986C105.602 147.957 107.992 145.525 111.29 144.367C113.916 143.448 116.8 143.609 119.308 144.814C121.816 146.019 123.744 148.169 124.669 150.794Z" fill="#15214B"/>
</g>
<ellipse cx="315.031" cy="387.766" rx="31.4296" ry="31.4296" transform="rotate(-11.1938 315.031 387.766)" fill="#15214B"/>
<g clip-path="url(#clip4_909_880)">
<path d="M311.875 371.824C309.123 372.368 306.558 373.615 304.431 375.445C302.304 377.274 300.686 379.623 299.736 382.263C298.786 384.902 298.535 387.743 299.009 390.509C299.482 393.274 300.664 395.87 302.438 398.043L301.731 403.606C301.673 404.067 301.744 404.535 301.936 404.958C302.128 405.38 302.435 405.741 302.82 405.999C303.206 406.258 303.656 406.403 304.12 406.42C304.584 406.437 305.044 406.325 305.448 406.095L310.323 403.322C312.686 404.036 315.18 404.203 317.617 403.809C320.054 403.415 322.369 402.471 324.387 401.048C326.404 399.626 328.071 397.763 329.261 395.6C330.451 393.437 331.133 391.032 331.254 388.567C331.376 386.101 330.934 383.64 329.962 381.371C328.991 379.102 327.515 377.084 325.647 375.47C323.779 373.856 321.568 372.689 319.182 372.057C316.796 371.425 314.297 371.346 311.875 371.824ZM322.941 384.553L319.007 390.428C318.916 390.565 318.798 390.682 318.662 390.773C318.525 390.864 318.372 390.928 318.211 390.96C318.049 390.992 317.884 390.991 317.723 390.959C317.561 390.927 317.408 390.863 317.272 390.772L312.435 387.532L309.197 392.37C309.012 392.645 308.726 392.836 308.4 392.901C308.075 392.965 307.737 392.898 307.462 392.713C307.186 392.528 306.995 392.242 306.931 391.917C306.866 391.591 306.934 391.254 307.118 390.978L311.053 385.102C311.144 384.966 311.261 384.848 311.398 384.757C311.535 384.666 311.688 384.603 311.849 384.571C312.01 384.539 312.176 384.539 312.337 384.571C312.498 384.604 312.651 384.667 312.788 384.759L317.625 387.999L320.863 383.161C320.954 383.024 321.072 382.907 321.208 382.816C321.345 382.725 321.498 382.662 321.659 382.63C321.82 382.598 321.986 382.598 322.147 382.63C322.308 382.662 322.462 382.726 322.598 382.817C322.734 382.909 322.852 383.026 322.943 383.163C323.034 383.3 323.097 383.453 323.129 383.614C323.161 383.775 323.161 383.941 323.129 384.102C323.096 384.263 323.033 384.416 322.941 384.553Z" fill="white"/>
</g>
<ellipse cx="234.317" cy="455.683" rx="34.0487" ry="34.0488" transform="rotate(5 234.317 455.683)" fill="white"/>
<path d="M252.557 457.489C252.177 461.775 250.242 465.774 247.118 468.732C243.994 471.691 239.896 473.405 235.596 473.551C235.5 473.554 235.405 473.536 235.316 473.499C235.228 473.462 235.149 473.406 235.083 473.337C235.018 473.267 234.968 473.184 234.937 473.093C234.907 473.002 234.895 472.906 234.904 472.811L236.014 460.12L240.062 460.474C240.247 460.49 240.433 460.469 240.609 460.41C240.785 460.352 240.948 460.258 241.086 460.134C241.224 460.01 241.336 459.859 241.413 459.691C241.491 459.522 241.533 459.339 241.537 459.153C241.537 458.804 241.405 458.467 241.168 458.211C240.93 457.955 240.604 457.798 240.256 457.772L236.251 457.422L236.605 453.374C236.667 452.659 237.012 451.998 237.562 451.536C238.112 451.074 238.823 450.85 239.539 450.912L242.237 451.148C242.422 451.165 242.608 451.143 242.784 451.085C242.961 451.027 243.123 450.932 243.261 450.809C243.399 450.685 243.511 450.534 243.588 450.365C243.666 450.197 243.708 450.014 243.712 449.828C243.712 449.478 243.58 449.141 243.342 448.884C243.103 448.628 242.777 448.471 242.427 448.446L239.775 448.214C238.344 448.089 236.921 448.538 235.821 449.461C234.72 450.384 234.032 451.707 233.906 453.138L233.552 457.186L229.505 456.832C229.32 456.815 229.134 456.837 228.958 456.895C228.782 456.953 228.619 457.048 228.481 457.171C228.343 457.295 228.231 457.446 228.154 457.615C228.076 457.784 228.034 457.966 228.03 458.152C228.03 458.502 228.162 458.839 228.4 459.096C228.639 459.352 228.965 459.509 229.315 459.534L233.316 459.884L232.206 472.578C232.198 472.674 232.17 472.766 232.124 472.85C232.078 472.934 232.015 473.007 231.938 473.064C231.862 473.122 231.775 473.162 231.681 473.184C231.588 473.205 231.492 473.206 231.398 473.187C227.076 472.273 223.254 469.77 220.69 466.172C218.126 462.575 217.006 458.146 217.551 453.762C218.685 444.685 226.709 437.928 235.853 438.371C238.22 438.486 240.54 439.077 242.673 440.109C244.807 441.142 246.71 442.593 248.27 444.378C249.829 446.163 251.013 448.244 251.749 450.497C252.486 452.749 252.761 455.128 252.557 457.489Z" fill="#436AF6"/>
<ellipse cx="154.8" cy="391.005" rx="26.1914" ry="26.1913" transform="rotate(-7.80601 154.8 391.005)" fill="#F9DE32"/>
<g clip-path="url(#clip5_909_880)">
<path d="M167.629 382.953C167.293 382.664 166.9 382.449 166.475 382.323C166.049 382.197 165.602 382.164 165.163 382.224L157.939 383.214L157.656 381.15C157.468 379.782 156.745 378.544 155.644 377.709C154.544 376.873 153.157 376.51 151.788 376.697C151.596 376.723 151.416 376.803 151.266 376.926C151.117 377.049 151.005 377.211 150.943 377.394L147.406 387.813L141.851 388.574C141.303 388.649 140.808 388.939 140.474 389.379C140.14 389.819 139.994 390.374 140.069 390.921L141.626 402.274C141.701 402.821 141.99 403.316 142.43 403.65C142.871 403.984 143.425 404.13 143.973 404.055L166.162 401.013C166.916 400.91 167.607 400.535 168.104 399.959C168.602 399.382 168.872 398.644 168.863 397.883L168.714 385.286C168.709 384.842 168.609 384.405 168.422 384.003C168.235 383.6 167.965 383.243 167.629 382.953ZM142.133 390.638L147.294 389.931L148.85 401.283L143.69 401.991L142.133 390.638Z" fill="#15214B"/>
</g>
<ellipse cx="71.9221" cy="340.514" rx="28.8105" ry="28.8105" transform="rotate(-12.8622 71.9221 340.514)" fill="white"/>
<g clip-path="url(#clip6_909_880)">
<rect width="36.6679" height="36.6679" transform="translate(49.9677 326.722) rotate(-12.8621)" fill="white"/>
<path d="M68.6068 325.992C65.7345 326.648 63.1212 328.141 61.0973 330.282C59.0735 332.423 57.73 335.116 57.2367 338.021C56.7435 340.925 57.1226 343.911 58.3262 346.6C59.5298 349.289 61.5038 351.561 63.9986 353.128C66.4934 354.696 69.3969 355.488 72.3419 355.405C75.287 355.322 78.1413 354.368 80.544 352.663C82.9466 350.958 84.7897 348.578 85.8402 345.826C86.8906 343.073 87.1012 340.071 86.4454 337.199C85.5622 333.349 83.1879 330.007 79.8436 327.906C76.4993 325.805 72.4581 325.117 68.6068 325.992ZM77.795 340.141L71.6816 346.826C71.5404 346.98 71.3598 347.092 71.1592 347.151C70.9586 347.21 70.7457 347.213 70.5436 347.16C70.3415 347.106 70.1579 346.999 70.0126 346.848C69.8673 346.698 69.7659 346.511 69.7193 346.307L67.4236 336.253C67.3771 336.049 67.3872 335.836 67.4528 335.638C67.5185 335.439 67.6372 335.263 67.7961 335.127C67.955 334.991 68.148 334.901 68.3543 334.867C68.5605 334.833 68.7722 334.856 68.9663 334.934L77.3754 338.303C77.5475 338.372 77.7003 338.481 77.8208 338.622C77.9412 338.763 78.0257 338.931 78.067 339.112C78.1082 339.292 78.105 339.48 78.0577 339.66C78.0103 339.839 77.9202 340.004 77.795 340.141Z" fill="#436AF6"/>
</g>
<ellipse cx="269.267" cy="69.4608" rx="31.4297" ry="31.4296" transform="rotate(-6.46999 269.267 69.4608)" fill="#15214B"/>
<path d="M286.117 73.839L284.875 73.9798L283.185 59.0749C283.073 58.0866 282.572 57.1834 281.794 56.5638C281.016 55.9443 280.024 55.6592 279.036 55.7712L256.678 58.3067C255.69 58.4188 254.787 58.9188 254.167 59.6969C253.548 60.4749 253.263 61.4672 253.375 62.4555L255.065 77.3604L253.823 77.5013C253.493 77.5387 253.192 77.7053 252.986 77.9647C252.779 78.224 252.684 78.5548 252.722 78.8842L253.003 81.3684C253.115 82.3566 253.615 83.2599 254.394 83.8795C255.172 84.499 256.164 84.7841 257.152 84.672L284.478 81.5732C285.466 81.4611 286.369 80.961 286.989 80.183C287.609 79.4049 287.894 78.4126 287.782 77.4244L287.5 74.9402C287.463 74.6108 287.296 74.3097 287.037 74.1032C286.777 73.8967 286.446 73.8016 286.117 73.839ZM265.795 61.0469L270.764 60.4835C271.093 60.4461 271.424 60.5412 271.683 60.7477C271.943 60.9542 272.109 61.2553 272.147 61.5847C272.184 61.9141 272.089 62.2449 271.883 62.5042C271.676 62.7636 271.375 62.9303 271.045 62.9676L266.077 63.5311C265.748 63.5684 265.417 63.4734 265.158 63.2669C264.898 63.0604 264.732 62.7593 264.694 62.4299C264.657 62.1004 264.752 61.7697 264.958 61.5103C265.165 61.251 265.466 61.0843 265.795 61.0469ZM285.297 77.7061C285.335 78.0355 285.24 78.3663 285.033 78.6256C284.827 78.885 284.526 79.0516 284.196 79.089L256.87 82.1879C256.541 82.2252 256.21 82.1302 255.951 81.9237C255.692 81.7172 255.525 81.4161 255.488 81.0867L255.347 79.8446L285.157 76.464L285.297 77.7061Z" fill="white"/>
<ellipse cx="193.65" cy="127.162" rx="28.8105" ry="28.8105" fill="#15214B"/>
<path d="M200.525 112.266H186.775C184.648 112.268 182.609 113.114 181.105 114.618C179.602 116.121 178.756 118.16 178.753 120.287V134.037C178.756 136.164 179.602 138.203 181.105 139.707C182.609 141.21 184.648 142.056 186.775 142.059H200.525C202.652 142.056 204.691 141.21 206.194 139.707C207.698 138.203 208.544 136.164 208.546 134.037V120.287C208.544 118.16 207.698 116.121 206.194 114.618C204.691 113.114 202.652 112.268 200.525 112.266ZM193.65 134.037C192.29 134.037 190.961 133.634 189.83 132.879C188.699 132.123 187.818 131.05 187.298 129.793C186.778 128.537 186.641 127.155 186.907 125.821C187.172 124.487 187.827 123.262 188.788 122.301C189.75 121.339 190.975 120.684 192.308 120.419C193.642 120.154 195.025 120.29 196.281 120.81C197.537 121.331 198.611 122.212 199.366 123.343C200.122 124.473 200.525 125.802 200.525 127.162C200.523 128.985 199.798 130.733 198.509 132.022C197.22 133.311 195.473 134.036 193.65 134.037ZM202.244 120.287C201.904 120.287 201.572 120.186 201.289 119.997C201.006 119.808 200.786 119.54 200.656 119.226C200.526 118.912 200.492 118.566 200.558 118.233C200.624 117.899 200.788 117.593 201.028 117.353C201.269 117.112 201.575 116.949 201.908 116.882C202.242 116.816 202.587 116.85 202.902 116.98C203.216 117.11 203.484 117.331 203.673 117.613C203.862 117.896 203.963 118.228 203.963 118.568C203.963 119.024 203.782 119.461 203.459 119.784C203.137 120.106 202.7 120.287 202.244 120.287ZM198.233 127.162C198.233 128.069 197.964 128.955 197.461 129.709C196.957 130.462 196.241 131.05 195.404 131.397C194.566 131.744 193.645 131.834 192.756 131.658C191.866 131.481 191.05 131.044 190.409 130.403C189.768 129.762 189.331 128.946 189.154 128.056C188.977 127.167 189.068 126.246 189.415 125.408C189.762 124.571 190.35 123.855 191.103 123.351C191.857 122.848 192.743 122.579 193.65 122.579C194.865 122.579 196.031 123.062 196.891 123.921C197.75 124.781 198.233 125.947 198.233 127.162Z" fill="white"/>
<ellipse cx="345.746" cy="118.663" rx="26.1914" ry="26.1913" transform="rotate(-10.6436 345.746 118.663)" fill="#F9DE32"/>
<path d="M353.276 107.432C350.337 105.444 346.731 104.698 343.244 105.357L343.107 105.383C339.608 106.078 336.524 108.125 334.526 111.081C332.528 114.036 331.777 117.661 332.436 121.167C333.47 126.67 337.739 130.646 343.577 131.55C344.236 131.652 344.909 131.594 345.54 131.382C346.172 131.17 346.743 130.809 347.207 130.331C347.67 129.852 348.012 129.269 348.204 128.631C348.395 127.993 348.431 127.319 348.308 126.664C348.206 126.121 348.324 125.56 348.636 125.103C348.948 124.647 349.428 124.334 349.971 124.232L355.885 123.12C356.815 122.95 357.658 122.467 358.276 121.751C358.893 121.036 359.247 120.131 359.279 119.186C359.319 118.135 359.236 117.084 359.033 116.052C358.692 114.306 358.007 112.645 357.018 111.165C356.03 109.685 354.758 108.416 353.276 107.432ZM341.077 124.843C340.773 124.9 340.459 124.866 340.175 124.745C339.891 124.623 339.649 124.421 339.48 124.162C339.311 123.903 339.222 123.6 339.226 123.291C339.229 122.982 339.324 122.681 339.498 122.426C339.672 122.171 339.919 121.973 340.205 121.858C340.492 121.742 340.807 121.715 341.109 121.778C341.412 121.842 341.688 121.994 341.905 122.214C342.121 122.435 342.267 122.715 342.324 123.019C342.4 123.426 342.312 123.847 342.078 124.189C341.844 124.531 341.484 124.767 341.077 124.843ZM339.73 117.677C339.426 117.734 339.112 117.7 338.828 117.578C338.544 117.457 338.302 117.254 338.133 116.995C337.964 116.737 337.875 116.434 337.879 116.125C337.882 115.815 337.977 115.514 338.151 115.259C338.326 115.004 338.572 114.806 338.859 114.691C339.145 114.576 339.46 114.548 339.762 114.612C340.065 114.675 340.342 114.827 340.558 115.048C340.774 115.269 340.92 115.549 340.977 115.852C341.053 116.26 340.965 116.681 340.731 117.023C340.497 117.365 340.137 117.6 339.73 117.677ZM344.783 113.547C344.48 113.604 344.166 113.57 343.882 113.449C343.597 113.327 343.355 113.125 343.186 112.866C343.018 112.607 342.929 112.304 342.932 111.995C342.936 111.686 343.03 111.385 343.205 111.13C343.379 110.875 343.625 110.677 343.912 110.562C344.199 110.446 344.513 110.419 344.816 110.482C345.118 110.546 345.395 110.698 345.611 110.918C345.828 111.139 345.973 111.419 346.03 111.723C346.107 112.13 346.019 112.551 345.785 112.893C345.551 113.235 345.191 113.471 344.783 113.547ZM350.991 115.56C350.688 115.617 350.374 115.583 350.09 115.462C349.805 115.341 349.563 115.138 349.394 114.879C349.225 114.62 349.137 114.317 349.14 114.008C349.144 113.699 349.238 113.398 349.413 113.143C349.587 112.888 349.833 112.69 350.12 112.575C350.407 112.46 350.721 112.432 351.024 112.495C351.326 112.559 351.603 112.711 351.819 112.931C352.036 113.152 352.181 113.432 352.238 113.736C352.315 114.143 352.227 114.564 351.993 114.906C351.759 115.249 351.399 115.484 350.991 115.56Z" fill="#15214B"/>
<ellipse cx="383.004" cy="345.463" rx="26.1914" ry="26.1913" transform="rotate(-2.02379 383.004 345.463)" fill="#F9DE32"/>
<path d="M391.074 337.878L391.589 352.452C391.608 353.005 391.408 353.542 391.031 353.946C390.654 354.351 390.132 354.589 389.58 354.608L370.841 355.27C370.289 355.29 369.752 355.089 369.347 354.712C368.943 354.336 368.705 353.814 368.686 353.262L368.17 338.687C368.151 338.135 368.352 337.598 368.728 337.193C369.105 336.789 369.627 336.551 370.179 336.531L388.918 335.869C389.47 335.85 390.008 336.05 390.412 336.427C390.816 336.804 391.054 337.326 391.074 337.878ZM398.622 337.644C398.474 337.613 398.321 337.614 398.174 337.646C398.026 337.679 397.887 337.743 397.765 337.833L393.497 340.901C393.427 340.951 393.371 341.018 393.334 341.095C393.296 341.172 393.278 341.257 393.281 341.342L393.546 348.841C393.549 348.926 393.573 349.01 393.616 349.084C393.659 349.158 393.72 349.221 393.793 349.266L398.292 352.041C398.46 352.145 398.655 352.199 398.853 352.196C399.051 352.194 399.244 352.135 399.409 352.026C399.563 351.921 399.686 351.779 399.768 351.612C399.85 351.446 399.888 351.261 399.879 351.075L399.439 338.625C399.431 338.394 399.346 338.172 399.198 337.994C399.051 337.817 398.848 337.693 398.622 337.644Z" fill="#15214B"/>
<ellipse cx="443.832" cy="276.487" rx="34.0487" ry="34.0487" transform="rotate(-13.2755 443.832 276.487)" fill="white"/>
<g clip-path="url(#clip7_909_880)">
<path d="M459.214 272.143C459.199 272.124 459.184 272.105 459.168 272.088L452.118 264.428L450.645 258.183C450.48 257.483 450.044 256.878 449.433 256.501C448.822 256.123 448.086 256.003 447.387 256.168L431.571 259.9C430.871 260.065 430.267 260.501 429.889 261.112C429.511 261.723 429.392 262.459 429.556 263.158L431.03 269.402L428.148 279.406C428.141 279.429 428.136 279.452 428.13 279.477C428.017 279.96 428.04 280.466 428.196 280.938C428.352 281.409 428.635 281.829 429.014 282.15L429.038 282.169L445.743 295.761C445.853 295.849 445.987 295.901 446.127 295.91C446.267 295.918 446.407 295.883 446.526 295.809C446.645 295.734 446.739 295.625 446.793 295.495C446.847 295.366 446.86 295.222 446.829 295.085L443.549 281.185C442.597 281.082 441.711 280.645 441.049 279.951C440.388 279.258 439.992 278.353 439.933 277.397C439.874 276.44 440.155 275.494 440.726 274.724C441.297 273.955 442.122 273.412 443.055 273.192C443.988 272.972 444.968 273.089 445.823 273.522C446.678 273.955 447.353 274.676 447.727 275.558C448.102 276.44 448.153 277.426 447.871 278.342C447.588 279.258 446.992 280.045 446.186 280.563L449.465 294.463C449.498 294.6 449.573 294.724 449.679 294.816C449.785 294.909 449.918 294.966 450.058 294.98C450.199 294.993 450.34 294.963 450.462 294.892C450.584 294.822 450.681 294.715 450.74 294.587L459.606 274.962L459.618 274.934C459.815 274.477 459.882 273.974 459.811 273.481C459.739 272.989 459.533 272.525 459.214 272.143ZM449.253 264.077L433.436 267.808L432.193 262.536L448.009 258.804L449.253 264.077Z" fill="#436AF6"/>
</g>
<defs>
<clipPath id="clip0_909_880">
<rect width="30.7773" height="30.7773" fill="white" transform="translate(377.933 430.913) rotate(5)"/>
</clipPath>
<clipPath id="clip1_909_880">
<rect width="60.1234" height="60.1234" fill="white" transform="translate(457.127 17.4836) rotate(50)"/>
</clipPath>
<clipPath id="clip2_909_880">
<rect width="36.6679" height="36.6679" fill="white" transform="translate(38.5574 214.033) rotate(11.9667)"/>
</clipPath>
<clipPath id="clip3_909_880">
<rect width="43.3348" height="43.3348" fill="white" transform="translate(80.6166 147.957) rotate(-19.3412)"/>
</clipPath>
<clipPath id="clip4_909_880">
<rect width="40.0013" height="40.0013" fill="white" transform="translate(291.527 372.028) rotate(-11.1938)"/>
</clipPath>
<clipPath id="clip5_909_880">
<rect width="33.3344" height="33.3345" fill="white" transform="translate(136.025 376.755) rotate(-7.80602)"/>
</clipPath>
<clipPath id="clip6_909_880">
<rect width="36.6679" height="36.6679" fill="white" transform="translate(49.9677 326.722) rotate(-12.8621)"/>
</clipPath>
<clipPath id="clip7_909_880">
<rect width="43.3348" height="43.3348" fill="white" transform="translate(417.768 260.374) rotate(-13.2755)"/>
</clipPath>
</defs>
</svg>
