<svg width="587" height="538" viewBox="0 0 587 538" fill="none" xmlns="http://www.w3.org/2000/svg">
<path d="M249.568 291.662L262.883 330.218L265.111 359.936C265.202 361.157 265.55 362.345 266.13 363.423C266.71 364.501 267.511 365.445 268.48 366.194C269.448 366.943 270.564 367.479 271.754 367.769C272.943 368.059 274.181 368.096 275.386 367.877C277.502 367.493 279.402 366.341 280.722 364.644C282.042 362.946 282.689 360.821 282.54 358.675L277.575 287.531" fill="#121229"/>
<path d="M250.899 291.301L254.992 303.155L261.938 323.269L263.98 329.182C264.23 330.037 264.365 330.921 264.382 331.811L265.848 351.359L266.426 359.064C266.662 362.217 268.171 365.106 271.332 366.217C272.469 366.606 273.683 366.714 274.87 366.532C276.058 366.35 277.184 365.883 278.151 365.172C279.119 364.46 279.9 363.525 280.428 362.446C280.956 361.367 281.214 360.176 281.181 358.976C281.154 358.165 281.073 357.353 281.016 356.543L280.004 342.034L278.494 320.396L277.051 299.728L276.239 288.091L276.2 287.536C276.077 285.768 278.832 285.775 278.955 287.536L279.546 296.007L280.923 315.742L282.499 338.321L283.662 354.992C283.744 356.157 283.83 357.322 283.906 358.488C284.087 360.762 283.494 363.03 282.223 364.924C280.952 366.818 279.078 368.226 276.905 368.921C274.732 369.616 272.387 369.555 270.253 368.75C268.119 367.945 266.319 366.442 265.147 364.485C263.821 362.288 263.731 359.866 263.546 357.402L262 336.783C261.841 334.665 261.6 332.535 261.522 330.412C261.508 330.012 261.5 330.522 261.548 330.562C261.476 330.502 261.434 330.234 261.405 330.147L260.676 328.037L254.253 309.439L248.561 292.956L248.243 292.034C247.663 290.355 250.323 289.634 250.899 291.302L250.899 291.301Z" fill="#121229"/>
<path d="M210.688 298.442C209.811 294.139 209.855 289.7 210.819 285.415C211.804 281.113 214.182 277.256 217.584 274.444C220.602 272.063 223.92 271.196 227.351 270.405C228.957 270.034 230.588 269.68 232.225 269.195C238.482 267.338 244.661 265.106 250.794 262.876C261.133 259.117 271.341 254.983 281.314 250.337C295.766 243.602 309.864 235.817 322.602 226.181C334.919 216.863 342.769 206.85 350.635 194.119C353.655 189.231 354.848 183.028 359.268 179.356C360.991 177.954 363.048 177.023 365.239 176.655C368.782 176.079 372.417 176.561 375.687 178.041C388.11 183.57 394.217 198.077 400.171 209.417C406.744 221.846 412.253 234.809 416.637 248.167C419.996 258.429 422.538 268.941 424.241 279.604C425.803 289.539 427.911 300.4 425.871 310.307C425.054 314.274 423.751 318.229 421.312 321.464C418.873 324.698 415.154 327.142 411.106 327.312C405.845 327.533 401.24 324.08 396.981 320.984C395.342 319.709 393.56 318.631 391.67 317.772C377.71 311.986 362.536 308.631 347.665 306.298C312.553 300.788 275.927 302.749 241.469 310.984L235.908 312.313C230.3 313.654 224.037 314.909 219.056 312.005C214.192 309.167 211.665 303.747 210.688 298.442Z" fill="white"/>
<path d="M385.737 183.139C379.624 176.975 370.156 172.266 361.435 176.098C357.247 177.938 354.752 181.673 352.916 185.613C351.996 187.588 351.203 189.565 350.217 191.479C349.455 192.957 348.562 194.372 347.649 195.779L346.733 197.187L346.731 197.189C341.903 204.819 336.168 211.837 329.654 218.089H329.655C322.384 224.908 314.021 230.57 305.487 235.719C287.147 246.783 267.324 255.156 247.2 262.419C242.031 264.284 236.849 266.131 231.578 267.653C230.414 267.99 229.228 268.273 228.033 268.554C226.839 268.834 225.636 269.111 224.45 269.435C222.077 270.082 219.752 270.918 217.647 272.35C208.998 278.233 207.382 289.352 209.084 298.854L209.083 298.854C209.775 303.079 211.605 307.035 214.376 310.298L214.382 310.306L214.592 310.114L214.383 310.306C215.899 311.968 217.754 313.286 219.823 314.17C221.892 315.054 224.127 315.485 226.376 315.432V315.431C231.387 315.424 236.344 313.918 241.111 312.778H241.112C251.613 310.247 262.248 308.306 272.966 306.963C294.402 304.276 316.081 304.148 337.547 306.583C348.205 307.794 358.774 309.685 369.19 312.246C374.236 313.5 379.234 314.954 384.14 316.672L384.145 316.674C386.664 317.499 389.14 318.452 391.561 319.531C393.786 320.719 395.9 322.105 397.876 323.672L397.887 323.681C401.58 326.321 405.858 329.013 410.657 328.984L411.122 328.973C415.637 328.779 419.709 326.204 422.421 322.733C425.458 318.847 426.986 313.959 427.765 309.188L427.766 309.183C428.524 303.93 428.573 298.599 427.912 293.333C427.355 288.113 426.475 282.923 425.621 277.758L425.274 275.733C424.439 271.015 423.438 266.334 422.27 261.689V261.688C419.578 251.084 416.118 240.689 411.918 230.586L411.196 228.858C407.539 220.243 403.307 211.938 399.058 203.613C395.382 196.411 391.528 188.978 385.737 183.139ZM360.831 180.24C364.553 177.554 369.619 177.581 373.862 179.091C381.189 181.699 386.451 188.26 390.426 194.74C392.488 198.101 394.307 201.606 396.105 205.127C397.891 208.626 399.721 212.091 401.47 215.599L402.214 217.105C406.806 226.449 410.793 236.078 414.151 245.932C417.581 255.985 420.236 266.286 422.092 276.744C422.991 281.876 423.852 287.036 424.459 292.203L424.46 292.209C425.15 297.176 425.237 302.208 424.718 307.195H424.717C424.128 311.869 422.795 316.854 419.902 320.595C417.402 323.828 413.5 326.095 409.375 325.592C407.089 325.313 404.981 324.362 402.974 323.141C400.961 321.916 399.079 320.439 397.213 319.108C393.088 316.167 388.257 314.551 383.545 312.959L383.543 312.958C373.692 309.724 363.606 307.253 353.375 305.564C343.112 303.763 332.753 302.558 322.35 301.954H322.349C301.359 300.811 280.307 302.031 259.59 305.592C254.433 306.469 249.306 307.487 244.207 308.644C239.304 309.756 234.474 311.26 229.527 311.896C225.176 312.457 220.885 311.941 217.631 308.878C214.624 306.047 213.065 302.058 212.299 298.023C212.298 298.017 212.297 298.01 212.295 298.003C211.316 293.273 211.574 288.372 213.047 283.771L213.18 283.384C214.603 279.407 217.461 276.1 221.201 274.115C223.191 273.197 225.283 272.517 227.433 272.091L227.443 272.089C230.078 271.473 232.681 270.814 235.271 270.003C245.434 266.82 255.465 263.07 265.329 259.075C284.298 251.394 302.958 242.324 319.668 230.392V230.391C327.159 225.162 333.961 219.01 339.912 212.079L339.915 212.076C342.67 208.784 345.252 205.353 347.655 201.796C350.242 198.186 352.506 194.354 354.418 190.346L354.421 190.34C355.239 188.511 356.018 186.583 357.014 184.801C358.007 183.023 359.202 181.416 360.831 180.24Z" fill="#121229" stroke="#121229" stroke-width="0.567967"/>
<path d="M372.574 224.765C373.12 225.076 373.686 225.351 374.267 225.59C377.735 226.917 381.29 228.007 384.906 228.852C392.622 230.661 400.544 231.436 408.464 231.155C410.158 231.036 411.836 230.753 413.476 230.311L421.614 228.392C423.232 228.011 424.982 227.639 426.513 228.288C429.441 229.531 430.227 234.284 431.216 236.966C432.676 240.926 434.636 243.87 434.646 248.371C434.751 249.451 434.449 250.531 433.799 251.4C433.315 251.854 432.742 252.203 432.117 252.426C422.773 256.483 412.958 263.54 405.293 270.403C400.632 274.602 396.328 279.181 392.427 284.094C391.842 284.834 391.258 285.578 390.687 286.331C384.742 276.348 380.284 265.554 377.452 254.286C375.01 244.598 373.378 234.724 372.574 224.765V224.765Z" fill="#FFEC18"/>
<path d="M373.401 223.324C372.961 223.088 372.519 223.067 372.13 223.194C371.844 223.246 371.57 223.366 371.353 223.566C371.044 223.851 370.873 224.27 370.919 224.792C370.92 224.798 370.92 224.804 370.921 224.811C370.916 224.928 370.923 225.047 370.946 225.165C370.949 225.18 370.955 225.195 370.958 225.21C371.394 230.037 371.969 234.853 372.733 239.642C375.388 256.289 380.49 272.672 389.26 287.175L389.262 287.178C389.413 287.421 389.623 287.622 389.873 287.762C390.124 287.901 390.406 287.975 390.693 287.975C390.979 287.975 391.261 287.901 391.512 287.762C391.754 287.627 391.958 287.433 392.108 287.2L392.718 286.408C399.062 278.249 406.473 270.976 414.753 264.784L414.755 264.783C418.535 261.928 422.502 259.33 426.632 257.009C428.576 255.927 430.562 254.924 432.595 254.024C433.682 253.731 434.64 253.081 435.312 252.177C435.983 251.273 436.329 250.169 436.296 249.044L436.316 248.638C436.384 246.615 435.958 244.72 435.341 242.89C434.687 240.951 433.8 239.037 433.063 237.149C432.776 236.415 432.533 235.643 432.292 234.854C432.052 234.067 431.814 233.262 431.54 232.475C430.993 230.9 430.293 229.365 429.104 228.121L429.099 228.116L428.829 227.863C428.185 227.293 427.431 226.858 426.612 226.587C425.676 226.277 424.68 226.19 423.704 226.331H423.702C421.201 226.713 418.726 227.251 416.293 227.944H416.292C413.909 228.633 411.478 229.14 409.019 229.462H409.02C406.608 229.613 404.19 229.62 401.777 229.485H401.774C396.827 229.287 391.906 228.669 387.065 227.636L387.064 227.635C384.676 227.128 382.317 226.518 379.986 225.805L379.977 225.802C377.708 225.195 375.506 224.364 373.401 223.323V223.324ZM374.498 227.449C375.995 228.06 377.527 228.579 379.089 229.003C381.629 229.777 384.197 230.431 386.794 230.968C392.046 232.055 397.383 232.683 402.743 232.842L402.744 232.841C405.116 232.971 407.495 232.925 409.859 232.7L409.868 232.699L409.877 232.697C412.334 232.314 414.768 231.797 417.168 231.149V231.15C418.304 230.883 419.496 230.534 420.65 230.242C421.817 229.947 422.979 229.701 424.123 229.616L424.135 229.615C424.84 229.533 425.553 229.682 426.166 230.039C426.779 230.396 427.26 230.943 427.536 231.597L427.54 231.604L427.543 231.61C428.211 232.976 428.739 234.406 429.118 235.878L429.12 235.887L429.123 235.896C429.676 237.597 430.32 239.267 431.054 240.899L431.056 240.904C431.867 242.633 432.465 244.454 432.836 246.327C433.037 247.355 433.067 248.408 432.923 249.445C432.84 249.892 432.654 250.169 432.397 250.385C432.124 250.613 431.766 250.777 431.313 250.979L431.309 250.981C423.069 254.798 415.374 259.696 408.429 265.546H408.43C401.967 270.859 396.09 276.841 390.892 283.39C389.046 280.174 387.361 276.867 385.851 273.479L385.219 272.036C379.155 257.922 376.033 242.713 374.498 227.449Z" fill="#121229" stroke="#121229" stroke-width="0.567967"/>
<path d="M371.871 200.836C371.075 200.838 370.186 201.355 370.082 202.409V202.41C369.366 209.886 369.363 217.414 370.073 224.891V224.893C371.436 238.621 374.52 252.124 379.251 265.083C383.867 277.931 389.699 290.309 396.671 302.048L396.675 302.053C396.904 302.419 397.267 302.681 397.686 302.784C398.106 302.887 398.548 302.822 398.921 302.604C399.293 302.386 399.567 302.033 399.683 301.617C399.8 301.201 399.75 300.756 399.544 300.377L399.538 300.367H399.537C395.715 293.914 392.23 287.268 389.093 280.457V280.456C383.365 268.145 378.997 255.247 376.065 241.99V241.989C373.129 229.032 372.231 215.696 373.402 202.462V202.437H373.403V202.436C373.446 201.928 373.281 201.518 372.979 201.238C372.68 200.961 372.272 200.834 371.871 200.836Z" fill="#121229" stroke="#121229" stroke-width="0.567967"/>
<path d="M210.814 285.416C211.799 281.113 214.177 277.257 217.579 274.444C220.597 272.063 223.916 271.197 227.347 270.405C228.953 270.035 230.584 269.681 232.22 269.195C238.478 267.339 244.657 265.107 250.789 262.877C251.871 262.484 252.95 262.086 254.028 261.683C254.531 268.35 260.425 290.958 261.353 293.156C263.331 297.584 265.653 301.851 268.299 305.916C259.253 307.182 250.288 308.876 241.465 310.985L235.904 312.314C230.296 313.654 224.032 314.91 219.051 312.005C214.187 309.168 211.66 303.747 210.683 298.443C209.806 294.14 209.851 289.7 210.814 285.416V285.416Z" fill="#FFEC18"/>
<path d="M253.779 260.045L253.593 260.083L253.579 260.086L253.566 260.092C249.553 261.585 245.527 263.047 241.483 264.449C237.9 265.692 234.305 266.944 230.652 267.913C227.424 268.769 224.01 269.302 220.855 270.637C214.787 273.203 210.811 278.724 209.219 284.965C209.217 284.971 209.215 284.976 209.214 284.982L209.213 284.988L209.087 285.557C207.835 291.439 208.239 297.558 210.258 303.231L210.259 303.233C211.829 307.536 214.616 311.629 218.835 313.778C223.569 316.19 229.039 315.522 233.944 314.469C236.804 313.855 239.647 313.172 242.487 312.497C245.329 311.822 248.168 311.154 251.026 310.569C256.89 309.375 262.784 308.361 268.708 307.527L268.728 307.525L268.746 307.52C268.99 307.45 269.215 307.326 269.404 307.157C269.593 306.988 269.741 306.778 269.837 306.543C269.933 306.308 269.973 306.055 269.956 305.802C269.939 305.549 269.865 305.302 269.738 305.082L269.734 305.074L268.586 303.21C267.446 301.343 266.334 299.463 265.303 297.539L265.299 297.531C264.323 295.837 263.483 294.068 262.785 292.242C261.185 287.605 260.123 282.725 258.962 277.938C258.199 274.79 257.468 271.635 256.818 268.464L256.818 268.458C256.307 266.215 255.93 263.944 255.691 261.656C255.683 261.411 255.623 261.17 255.513 260.95C255.398 260.723 255.234 260.525 255.031 260.371C254.829 260.217 254.595 260.111 254.346 260.062C254.159 260.024 253.967 260.018 253.779 260.045ZM252.642 263.967C252.928 266.063 253.31 268.145 253.792 270.206C255.096 276.411 256.621 282.578 258.289 288.692C258.685 290.329 259.165 291.944 259.726 293.532L259.729 293.54C261.237 297.438 263.385 301.094 265.567 304.646C260.143 305.45 254.748 306.408 249.381 307.521C244.047 308.627 238.738 310.02 233.437 311.184C229.092 312.137 224.176 312.908 220.187 310.738C216.508 308.737 214.212 304.96 213.011 300.994V300.993C211.502 296.086 211.297 290.869 212.42 285.859C212.42 285.858 212.422 285.856 212.422 285.854L212.423 285.851V285.85L212.57 285.263C213.356 282.34 214.82 279.641 216.846 277.385V277.384C219.085 274.983 221.893 273.683 224.918 272.752C226.054 272.402 227.217 272.106 228.39 271.822L230.741 271.26C231.918 270.975 233.09 270.677 234.235 270.325C240.442 268.421 246.56 266.22 252.642 263.967Z" fill="#121229" stroke="#121229" stroke-width="0.567967"/>
<path d="M474.935 213.157C474.381 212.399 473.249 211.923 472.119 212.448L469.787 213.53L453.64 221.025C453.082 221.283 452.75 221.684 452.655 222.153C452.563 222.613 452.71 223.082 452.986 223.46C453.54 224.219 454.672 224.694 455.801 224.17L458.134 223.088L474.25 215.607L474.251 215.607L474.281 215.593C474.839 215.334 475.17 214.934 475.265 214.465C475.358 214.005 475.211 213.536 474.935 213.157Z" fill="#121229" stroke="#121229" stroke-width="0.8"/>
<path d="M455.913 242.621C455.299 242.454 454.754 242.537 454.333 242.791C453.919 243.04 453.646 243.439 453.531 243.872C453.417 244.304 453.454 244.793 453.691 245.226C453.933 245.668 454.367 246.02 454.978 246.187L457.446 246.859L474.932 251.625L474.933 251.624C475.547 251.792 476.091 251.709 476.512 251.456C476.926 251.207 477.199 250.807 477.314 250.374C477.429 249.942 477.392 249.452 477.155 249.019C476.913 248.577 476.478 248.226 475.867 248.059L473.399 247.387L455.913 242.621Z" fill="#121229" stroke="#121229" stroke-width="0.8"/>
<path d="M444.963 191.876C444.443 191.783 443.906 191.868 443.458 192.111C443.02 192.349 442.691 192.727 442.545 193.179L441.697 195.308L435.664 210.469L435.655 210.489L435.649 210.511C435.525 210.989 435.62 211.498 435.92 211.922C436.218 212.344 436.686 212.634 437.209 212.745L437.223 212.749C437.743 212.842 438.279 212.756 438.727 212.514C439.165 212.276 439.495 211.898 439.641 211.445L439.641 211.445L440.489 209.317L446.523 194.156L446.531 194.136L446.537 194.114C446.661 193.636 446.566 193.127 446.266 192.703C445.968 192.281 445.5 191.99 444.977 191.879L444.963 191.876Z" fill="#121229" stroke="#121229" stroke-width="0.8"/>
<circle cx="278" cy="189" r="11.5" fill="white" stroke="black" stroke-width="3" stroke-linejoin="round"/>
<path d="M190.828 484.562C191.354 484.407 191.922 484.551 192.311 484.938C192.699 485.324 192.845 485.893 192.692 486.419L187.679 503.649L192.692 520.832C192.846 521.358 192.7 521.925 192.312 522.312C191.925 522.7 191.358 522.846 190.832 522.692L173.649 517.679L156.419 522.692C155.893 522.845 155.324 522.699 154.938 522.311C154.551 521.922 154.407 521.354 154.562 520.828L159.621 503.651L154.561 486.423C154.406 485.896 154.551 485.327 154.939 484.939C155.327 484.551 155.896 484.406 156.423 484.561L173.651 489.621L190.828 484.562Z" fill="white" stroke="black" stroke-width="3" stroke-miterlimit="10" stroke-linejoin="round"/>
<circle cx="568.5" cy="200.5" r="17" fill="#FFEC18" stroke="black" stroke-width="3" stroke-linejoin="round"/>
<circle cx="22" cy="283.748" r="20.5" fill="#FFEC18" stroke="black" stroke-width="3" stroke-linejoin="round"/>
<path d="M232.969 40.0769C233.489 40.2499 233.873 40.6925 233.971 41.2318C234.069 41.7712 233.865 42.3213 233.439 42.6662L213.536 58.7649L205.417 82.9723C205.243 83.4916 204.8 83.8747 204.261 83.9716C203.722 84.0685 203.173 83.8637 202.829 83.4376L186.786 63.5747L162.522 55.4173C162.002 55.2426 161.619 54.7979 161.523 54.2582C161.427 53.7185 161.634 53.1697 162.061 52.8264L181.977 36.8249L190.077 12.5255C190.25 12.005 190.695 11.6209 191.235 11.5238C191.775 11.4267 192.325 11.6319 192.669 12.0595L208.726 32.0153L232.969 40.0769Z" fill="white" stroke="black" stroke-width="3" stroke-miterlimit="10" stroke-linejoin="round"/>
<rect x="111.03" y="140.522" width="78.903" height="89.8234" rx="10.1196" transform="rotate(7.07165 111.03 140.522)" fill="white" stroke="#121229" stroke-width="3"/>
<mask id="mask0_1120_438" style="mask-type:alpha" maskUnits="userSpaceOnUse" x="116" y="154" width="61" height="50">
<rect x="122.897" y="155.748" width="52.5121" height="40.6816" rx="3.86289" transform="rotate(7.07165 122.897 155.748)" fill="#FFC24D" stroke="#121229" stroke-width="3"/>
</mask>
<g mask="url(#mask0_1120_438)">
<rect x="122.897" y="155.748" width="52.5121" height="40.6816" rx="3.86289" transform="rotate(7.07165 122.897 155.748)" fill="#65D1FF" stroke="#121229" stroke-width="3"/>
<path d="M135.716 168.615C136.099 168.657 136.47 168.777 136.806 168.967C137.142 169.157 137.438 169.415 137.674 169.725L148.754 184.27L149.677 185.481L150.873 184.542L160.015 177.362C160.608 176.896 161.357 176.685 162.1 176.772C162.842 176.859 163.523 177.236 163.995 177.827L172.028 187.879L170.628 199.252C170.367 201.369 168.441 202.87 166.324 202.606L121.611 197.015C119.686 196.774 118.292 195.076 118.408 193.16L118.424 192.974L119.912 180.888L133.567 169.278C133.863 169.026 134.207 168.838 134.576 168.725C134.945 168.611 135.333 168.573 135.716 168.615Z" fill="white" stroke="#121229" stroke-width="3"/>
</g>
<circle cx="121.14" cy="213.166" r="5.48453" transform="rotate(7.07165 121.14 213.166)" fill="#65D1FF" stroke="#121229" stroke-width="2.68145"/>
<line x1="133.934" y1="214.617" x2="167.984" y2="218.841" stroke="#121229" stroke-width="3" stroke-linecap="round"/>
<rect x="52.336" y="125.628" width="78.903" height="89.8234" rx="10.1196" transform="rotate(-7.24491 52.336 125.628)" fill="white" stroke="#121229" stroke-width="3"/>
<mask id="mask1_1120_438" style="mask-type:alpha" maskUnits="userSpaceOnUse" x="66" y="129" width="60" height="50">
<rect x="67.5991" y="137.448" width="52.5121" height="40.6816" rx="3.86289" transform="rotate(-7.24491 67.5991 137.448)" fill="#FFC24D" stroke="#121229" stroke-width="3"/>
</mask>
<g mask="url(#mask1_1120_438)">
<rect x="67.7744" y="137.754" width="52.5121" height="40.6816" rx="3.86289" transform="rotate(-7.24491 67.7744 137.754)" fill="#65D1FF" stroke="#121229" stroke-width="3"/>
<path d="M84.1252 149.149C83.7858 146.478 86.4845 144.453 88.9542 145.527L100.97 150.75C103.385 151.8 103.799 155.052 101.722 156.672L91.3943 164.735C89.2715 166.391 86.1526 165.107 85.813 162.435L84.1252 149.149Z" fill="white" stroke="#121229" stroke-width="3"/>
</g>
<circle cx="80.0951" cy="193.517" r="5.32525" transform="rotate(-7.24491 80.0951 193.517)" fill="#65D1FF" stroke="#121229" stroke-width="3"/>
<line x1="92.8507" y1="191.758" x2="126.888" y2="187.431" stroke="#121229" stroke-width="3" stroke-linecap="round"/>
<path d="M357.532 403.541C357.045 403.062 356.173 402.834 355.464 403.448L354.183 404.558L345.313 412.243C344.969 412.541 344.811 412.918 344.831 413.302C344.85 413.672 345.031 414.004 345.276 414.246C345.764 414.726 346.635 414.954 347.344 414.34L348.625 413.229L357.495 405.544C357.839 405.246 357.997 404.869 357.977 404.485C357.958 404.116 357.778 403.784 357.532 403.541Z" fill="#121229" stroke="#121229" stroke-width="0.8"/>
<path d="M350.403 427.345C349.949 427.31 349.57 427.463 349.31 427.747C349.06 428.02 348.949 428.382 348.948 428.728C348.947 429.413 349.395 430.196 350.329 430.268L351.983 430.395L363.705 431.3C364.159 431.335 364.537 431.181 364.797 430.898C365.047 430.625 365.159 430.263 365.16 429.917C365.161 429.232 364.713 428.449 363.779 428.377L362.125 428.249L350.403 427.345Z" fill="#121229" stroke="#121229" stroke-width="0.8"/>
<path d="M335.199 392.569C334.819 392.578 334.456 392.732 334.185 393C333.919 393.264 333.763 393.619 333.745 393.993L333.565 395.629L332.282 407.354L332.28 407.376L332.28 407.398C332.28 407.784 332.433 408.155 332.704 408.429C332.975 408.703 333.342 408.86 333.727 408.865L333.735 408.865L333.742 408.865C334.122 408.856 334.485 408.701 334.756 408.433C335.019 408.171 335.175 407.821 335.195 407.451L335.375 405.805L336.659 394.08L336.661 394.058L336.661 394.035C336.66 393.649 336.508 393.28 336.237 393.006C336 392.766 335.689 392.615 335.357 392.578L335.207 392.568L335.199 392.569Z" fill="#121229" stroke="#121229" stroke-width="0.8"/>
<rect x="-1.92485" y="-1.5587" width="90.4197" height="90.5876" rx="25.75" transform="matrix(0.994603 -0.103752 0.105309 0.994439 241.832 431.051)" fill="white" stroke="#121229" stroke-width="3.5"/>
<path d="M307.883 468.138C306.112 468.322 304.486 467.001 304.297 465.224L303.72 459.808L298.321 460.368C296.55 460.551 294.924 459.23 294.735 457.454C294.545 455.677 295.857 454.052 297.628 453.868L306.267 452.972C308.038 452.789 309.664 454.109 309.853 455.886L310.776 464.552C310.965 466.329 309.654 467.954 307.883 468.138Z" fill="#65D1FF"/>
<path d="M270.349 485.195C269.528 485.28 268.674 485.062 267.957 484.479C266.569 483.351 266.348 481.27 267.467 479.882L279.82 464.57C280.437 463.804 281.308 463.363 282.311 463.347C283.271 463.335 284.191 463.766 284.841 464.531L290.309 471.155L304.013 454.168C305.132 452.781 307.207 452.565 308.594 453.693C309.981 454.821 310.203 456.902 309.083 458.29L292.871 478.387C292.253 479.152 291.383 479.593 290.379 479.61C289.419 479.622 288.499 479.191 287.85 478.425L282.381 471.802L272.538 484.004C271.959 484.721 271.17 485.11 270.349 485.195Z" fill="#65D1FF"/>
<circle cx="356.826" cy="495.337" r="28.7357" fill="#FFEC18" stroke="#121229" stroke-width="3"/>
<circle cx="357.141" cy="495.652" r="22.7515" stroke="#121229" stroke-width="3"/>
<circle cx="317.222" cy="508.538" r="27.4581" fill="#FFEC18" stroke="#121229" stroke-width="3"/>
<circle cx="317.523" cy="508.84" r="21.7268" stroke="#121229" stroke-width="3"/>
<rect x="459.497" y="71.7377" width="72.2557" height="69.6822" rx="19.5" transform="rotate(10 459.497 71.7377)" fill="white" stroke="#121229" stroke-width="3"/>
<path d="M501.874 96.964C503.276 97.2113 504.589 97.8235 505.68 98.7387C506.77 99.6539 507.601 100.84 508.088 102.178C508.969 104.599 509.042 107.24 508.297 109.707C507.552 112.173 506.028 114.331 503.954 115.859L486.08 129.025L473.787 110.54C472.361 108.395 471.667 105.845 471.81 103.273C471.954 100.701 472.926 98.2435 474.582 96.2699C475.497 95.1793 476.683 94.3488 478.021 93.8618C479.275 93.4053 480.622 93.2652 481.941 93.4532L482.204 93.4956C483.725 93.7639 485.139 94.4611 486.277 95.505C487.416 96.5489 488.233 97.8965 488.632 99.3888L489.411 102.303L490.244 105.415L492.09 102.775L493.818 100.303C494.704 99.0375 495.932 98.0505 497.359 97.459C498.786 96.8675 500.353 96.6958 501.874 96.964Z" fill="#65D1FF" stroke="#121229" stroke-width="3"/>
<rect x="435.105" y="363.772" width="87.4803" height="87.4803" rx="24.56" transform="rotate(11.6562 435.105 363.772)" fill="#436AF6" stroke="#121229" stroke-width="3"/>
<path d="M493.404 420.215C488.482 419.207 484.002 416.674 480.603 412.975L478.076 425.221C477.422 428.388 475.879 431.303 473.626 433.624C471.374 435.944 468.507 437.574 465.361 438.322C462.215 439.071 458.92 438.906 455.865 437.848C452.809 436.789 450.118 434.882 448.109 432.348C446.099 429.814 444.854 426.76 444.519 423.544C444.184 420.327 444.774 417.082 446.218 414.189C447.663 411.296 449.903 408.875 452.675 407.21C455.448 405.545 458.637 404.705 461.87 404.789L459.767 414.984C458.55 415.281 457.434 415.9 456.538 416.775C455.641 417.649 454.995 418.749 454.668 419.958C454.341 421.168 454.345 422.443 454.679 423.65C455.012 424.858 455.664 425.954 456.565 426.824C457.467 427.694 458.586 428.306 459.804 428.596C461.023 428.886 462.297 428.844 463.494 428.474C464.691 428.104 465.767 427.419 466.609 426.492C467.451 425.564 468.029 424.428 468.282 423.201L474.748 391.861L484.542 393.881C483.791 397.518 484.516 401.303 486.557 404.405C488.598 407.507 491.788 409.671 495.424 410.421L493.404 420.215Z" fill="white" stroke="black" stroke-width="3" stroke-linejoin="round"/>
<rect x="526.697" y="261.756" width="54.5255" height="54.5255" rx="13.5" transform="rotate(10.8693 526.697 261.756)" fill="white" stroke="#121229" stroke-width="3"/>
<path fill-rule="evenodd" clip-rule="evenodd" d="M550.969 281.182C542.834 279.62 535.13 284.125 533.763 291.243C532.982 295.311 534.445 299.348 537.357 302.356L536.105 308.876L543.31 306.199C544.175 306.518 545.077 306.78 546.019 306.961C554.154 308.523 561.858 304.018 563.225 296.9C564.592 289.782 559.104 282.744 550.969 281.182Z" fill="#65D1FF" stroke="black" stroke-width="3" stroke-linejoin="round"/>
<rect x="58.8427" y="361.826" width="87.4803" height="87.4803" rx="24.56" transform="rotate(-12.3038 58.8427 361.826)" fill="#436AF6" stroke="#121229" stroke-width="3"/>
<path d="M122.035 377.978L120.57 378.297L115.945 379.309L115.944 379.309C114.308 379.666 113.822 380.164 113.654 380.464C113.463 380.807 113.397 381.385 113.644 382.516L114.483 386.36L123.345 384.428L123.482 386.139L124.17 394.702L124.275 396.008L116.936 397.609L121.59 418.949L109.639 421.555L104.984 400.215L97.4411 401.861L94.9878 390.612L102.531 388.967L101.513 384.299C100.666 380.416 101.23 376.979 103.076 374.286C104.912 371.609 107.884 369.858 111.496 369.07C114.743 368.362 117.601 367.98 118.494 367.9L119.811 367.782L122.035 377.978Z" fill="white" stroke="#121229" stroke-width="3"/>
<rect x="285.349" y="32.5618" width="87.4803" height="87.4803" rx="24.56" transform="rotate(-7.79991 285.349 32.5618)" fill="#436AF6" stroke="#121229" stroke-width="3"/>
<mask id="path-49-outside-1_1120_438" maskUnits="userSpaceOnUse" x="306.075" y="41.3731" width="57.4496" height="57.4496" fill="black">
<rect fill="white" x="306.075" y="41.3731" width="57.4496" height="57.4496"/>
<path d="M331.588 47.8278C340.429 46.6167 344.851 46.0114 348.324 47.6821C349.874 48.4281 351.258 49.4788 352.394 50.7716C354.937 53.6671 355.543 58.0878 356.754 66.929C357.965 75.7705 358.57 80.1919 356.899 83.6646C356.153 85.2151 355.103 86.5994 353.81 87.7349C350.914 90.2779 346.493 90.8839 337.652 92.0951C328.81 93.3061 324.39 93.9113 320.917 92.2406C319.366 91.4946 317.982 90.4439 316.847 89.1511C314.304 86.2556 313.698 81.8343 312.487 72.9928C311.275 64.1516 310.67 59.7308 312.341 56.2581C313.087 54.7076 314.138 53.3233 315.43 52.1879C318.326 49.6449 322.747 49.0389 331.588 47.8278ZM333.051 58.5024C326.723 59.3695 322.295 65.203 323.162 71.5314C324.029 77.8596 329.862 82.2868 336.19 81.4202C342.519 80.5533 346.947 74.7205 346.08 68.3921C345.213 62.0635 339.38 57.6355 333.051 58.5024ZM344.177 51.1332C342.009 51.4303 340.491 53.4296 340.788 55.5983C341.085 57.7672 343.084 59.2847 345.253 58.9876C347.422 58.6904 348.94 56.6912 348.642 54.5224C348.345 52.3537 346.346 50.8362 344.177 51.1332Z"/>
</mask>
<path d="M331.588 47.8278C340.429 46.6167 344.851 46.0114 348.324 47.6821C349.874 48.4281 351.258 49.4788 352.394 50.7716C354.937 53.6671 355.543 58.0878 356.754 66.929C357.965 75.7705 358.57 80.1919 356.899 83.6646C356.153 85.2151 355.103 86.5994 353.81 87.7349C350.914 90.2779 346.493 90.8839 337.652 92.0951C328.81 93.3061 324.39 93.9113 320.917 92.2406C319.366 91.4946 317.982 90.4439 316.847 89.1511C314.304 86.2556 313.698 81.8343 312.487 72.9928C311.275 64.1516 310.67 59.7308 312.341 56.2581C313.087 54.7076 314.138 53.3233 315.43 52.1879C318.326 49.6449 322.747 49.0389 331.588 47.8278ZM333.051 58.5024C326.723 59.3695 322.295 65.203 323.162 71.5314C324.029 77.8596 329.862 82.2868 336.19 81.4202C342.519 80.5533 346.947 74.7205 346.08 68.3921C345.213 62.0635 339.38 57.6355 333.051 58.5024ZM344.177 51.1332C342.009 51.4303 340.491 53.4296 340.788 55.5983C341.085 57.7672 343.084 59.2847 345.253 58.9876C347.422 58.6904 348.94 56.6912 348.642 54.5224C348.345 52.3537 346.346 50.8362 344.177 51.1332Z" fill="white"/>
<path d="M331.588 47.8278L331.181 44.8555L331.588 47.8278ZM348.324 47.6821L349.624 44.9787L349.624 44.9787L348.324 47.6821ZM352.394 50.7716L354.648 48.7919L354.648 48.7919L352.394 50.7716ZM356.754 66.929L359.726 66.5218L356.754 66.929ZM356.899 83.6646L359.603 84.9653L359.603 84.9652L356.899 83.6646ZM353.81 87.7349L355.79 89.989L355.79 89.9889L353.81 87.7349ZM337.652 92.0951L338.059 95.0673L337.652 92.0951ZM320.917 92.2406L319.616 94.944L319.616 94.944L320.917 92.2406ZM316.847 89.1511L314.593 91.1308L314.593 91.1309L316.847 89.1511ZM312.487 72.9928L309.514 73.3999L312.487 72.9928ZM312.341 56.2581L309.638 54.9574L309.638 54.9575L312.341 56.2581ZM315.43 52.1879L313.451 49.9338L313.451 49.9338L315.43 52.1879ZM333.051 58.5024L332.644 55.5301L332.644 55.5302L333.051 58.5024ZM323.162 71.5314L320.19 71.9385L320.19 71.9386L323.162 71.5314ZM336.19 81.4202L336.597 84.3925L336.598 84.3925L336.19 81.4202ZM346.08 68.3921L349.052 67.985L349.052 67.9849L346.08 68.3921ZM344.177 51.1332L343.77 48.1609L343.77 48.161L344.177 51.1332ZM340.788 55.5983L337.816 56.0054L337.816 56.0055L340.788 55.5983ZM345.253 58.9876L345.66 61.9598L345.661 61.9598L345.253 58.9876ZM348.642 54.5224L351.615 54.1153L351.615 54.1152L348.642 54.5224ZM331.588 47.8278L331.995 50.8C336.477 50.1861 339.617 49.7596 342.075 49.6724C344.484 49.5869 345.905 49.8478 347.023 50.3856L348.324 47.6821L349.624 44.9787C347.269 43.8458 344.743 43.5739 341.863 43.6762C339.031 43.7767 335.54 44.2584 331.181 44.8555L331.588 47.8278ZM348.324 47.6821L347.023 50.3855C348.21 50.9568 349.27 51.7614 350.14 52.7513L352.394 50.7716L354.648 48.7919C353.246 47.1963 351.538 45.8995 349.624 44.9787L348.324 47.6821ZM352.394 50.7716L350.14 52.7513C350.958 53.6834 351.592 54.982 352.157 57.3244C352.734 59.7152 353.168 62.8542 353.782 67.3361L356.754 66.929L359.726 66.5218C359.129 62.1625 358.654 58.6706 357.99 55.9169C357.313 53.1148 356.372 50.7553 354.648 48.7919L352.394 50.7716ZM356.754 66.929L353.782 67.3361C354.396 71.8181 354.822 74.9584 354.909 77.4165C354.995 79.8249 354.734 81.2462 354.196 82.3641L356.899 83.6646L359.603 84.9652C360.736 82.6104 361.008 80.0845 360.905 77.2037C360.805 74.3725 360.323 70.8813 359.726 66.5218L356.754 66.929ZM356.899 83.6646L354.196 82.364C353.625 83.5513 352.82 84.6113 351.83 85.4808L353.81 87.7349L355.79 89.9889C357.385 88.5875 358.682 86.879 359.603 84.9653L356.899 83.6646ZM353.81 87.7349L351.83 85.4808C350.898 86.2994 349.6 86.9328 347.257 87.4981C344.866 88.0751 341.727 88.5089 337.245 89.1228L337.652 92.0951L338.059 95.0673C342.418 94.4701 345.91 93.9953 348.664 93.3307C351.467 92.6545 353.826 91.7134 355.79 89.989L353.81 87.7349ZM337.652 92.0951L337.245 89.1228C332.763 89.7368 329.623 90.1632 327.165 90.2504C324.757 90.3358 323.335 90.075 322.218 89.5372L320.917 92.2406L319.616 94.944C321.971 96.0769 324.497 96.3488 327.378 96.2466C330.209 96.1461 333.699 95.6645 338.059 95.0673L337.652 92.0951ZM320.917 92.2406L322.218 89.5372C321.03 88.966 319.97 88.1614 319.101 87.1714L316.847 89.1511L314.593 91.1309C315.994 92.7264 317.703 94.0233 319.616 94.944L320.917 92.2406ZM316.847 89.1511L319.101 87.1715C318.282 86.2394 317.649 84.9406 317.083 82.5979C316.506 80.2069 316.073 77.0677 315.459 72.5856L312.487 72.9928L309.514 73.3999C310.111 77.7594 310.586 81.2515 311.251 84.0054C311.927 86.8076 312.868 89.1673 314.593 91.1308L316.847 89.1511ZM312.487 72.9928L315.459 72.5856C314.845 68.1038 314.418 64.9637 314.331 62.5059C314.246 60.0977 314.507 58.6766 315.044 57.5587L312.341 56.2581L309.638 54.9575C308.505 57.3123 308.233 59.8379 308.335 62.7186C308.435 65.5496 308.917 69.0406 309.514 73.3999L312.487 72.9928ZM312.341 56.2581L315.044 57.5587C315.616 56.3714 316.42 55.3114 317.41 54.4419L315.43 52.1879L313.451 49.9338C311.855 51.3353 310.558 53.0437 309.638 54.9574L312.341 56.2581ZM315.43 52.1879L317.41 54.442C318.342 53.6233 319.641 52.9899 321.983 52.4246C324.374 51.8477 327.513 51.414 331.995 50.8L331.588 47.8278L331.181 44.8555C326.821 45.4527 323.329 45.9275 320.576 46.5921C317.774 47.2683 315.414 48.2094 313.451 49.9338L315.43 52.1879ZM333.051 58.5024L332.644 55.5302C324.674 56.6222 319.098 63.9688 320.19 71.9385L323.162 71.5314L326.135 71.1242C325.493 66.4371 328.772 62.1168 333.458 61.4746L333.051 58.5024ZM323.162 71.5314L320.19 71.9386C321.282 79.9083 328.628 85.4839 336.597 84.3925L336.19 81.4202L335.783 78.4479C331.097 79.0898 326.777 75.8109 326.135 71.1241L323.162 71.5314ZM336.19 81.4202L336.598 84.3925C344.567 83.3007 350.144 75.9551 349.052 67.985L346.08 68.3921L343.108 68.7991C343.75 73.4858 340.47 77.8059 335.783 78.448L336.19 81.4202ZM346.08 68.3921L349.052 67.9849C347.961 60.0149 340.614 54.4384 332.644 55.5301L333.051 58.5024L333.458 61.4746C338.145 60.8326 342.466 64.1122 343.108 68.7992L346.08 68.3921ZM344.177 51.1332L343.77 48.161C339.96 48.6829 337.294 52.1953 337.816 56.0054L340.788 55.5983L343.76 55.1913C343.688 54.6639 344.057 54.1777 344.584 54.1054L344.177 51.1332ZM340.788 55.5983L337.816 56.0055C338.338 59.8159 341.85 62.4818 345.66 61.9598L345.253 58.9876L344.846 56.0153C344.319 56.0876 343.833 55.7185 343.76 55.1912L340.788 55.5983ZM345.253 58.9876L345.661 61.9598C349.471 61.4378 352.137 57.9257 351.615 54.1153L348.642 54.5224L345.67 54.9296C345.742 55.4568 345.373 55.9431 344.846 56.0154L345.253 58.9876ZM348.642 54.5224L351.615 54.1152C351.093 50.3051 347.581 47.6392 343.77 48.1609L344.177 51.1332L344.584 54.1055C345.112 54.0333 345.598 54.4024 345.67 54.9297L348.642 54.5224Z" fill="#121229" mask="url(#path-49-outside-1_1120_438)"/>
<path d="M442.899 12.6853C442.899 12.6853 431.465 25.3142 421.377 49.9618" stroke="#121229" stroke-width="2.62722" stroke-linecap="round"/>
<path d="M418.437 25.3357C428.909 28.7191 439.183 37.3135 439.183 37.3135" stroke="#121229" stroke-width="2.62722" stroke-linecap="round"/>
<path d="M415.823 39.8274C434.454 25.2641 461.265 20.3304 461.265 20.3304" stroke="#121229" stroke-width="2.62722" stroke-linecap="round"/>
<path d="M425.278 8.87261C426.302 25.291 437.602 56.7609 437.602 56.7609" stroke="#121229" stroke-width="2.62722" stroke-linecap="round"/>
</svg>
