<svg width="179" height="70" viewBox="0 0 179 70" fill="none" xmlns="http://www.w3.org/2000/svg">
<g clip-path="url(#clip0_909_866)">
<path d="M16.5359 10C19.4837 13.6401 18.9113 14.154 21.3345 16.3848C21.9929 16.9784 22.4976 17.7227 22.8053 18.5541C23.0874 19.3478 23.2618 20.1757 23.3238 21.0157C23.3862 21.9053 23.7605 22.7443 24.3807 23.385L27.5793 26.6451C27.6231 26.6896 27.6567 26.7431 27.6777 26.8019C27.6986 26.8608 27.7064 26.9235 27.7006 26.9856C27.6947 27.0478 27.6753 27.1079 27.6437 27.1618C27.6121 27.2157 27.5691 27.262 27.5177 27.2975L26.5854 27.9467C26.3442 28.1184 26.0491 28.1973 25.7544 28.169C25.4597 28.1408 25.185 28.0072 24.9807 27.7929C23.6499 26.3559 20.7191 24.6358 19.4944 24.4958L18.2959 24.4128C17.5556 24.3624 16.8408 24.1216 16.2208 23.7138C15.6008 23.306 15.0967 22.7449 14.7574 22.085L13.9881 20.5819C12.1896 23.9666 12.8665 26.779 16.262 28.9514C23.1191 33.7115 26.1408 38.0286 26.9777 43.9964C27.2724 45.9678 27.211 47.9762 26.7962 49.9258C25.4684 55.8845 21.1391 59.1938 13.9881 60.0154C8.92333 59.8585 4.46165 58.3584 1.80465 52.8029C0.390756 49.8412 0.393834 46.3734 1.92927 43.4749C3.62163 40.2917 6.51556 38.5516 10.9865 38.6686C14.5973 38.8147 17.5451 40.1332 18.9329 44.2072C19.4615 45.6844 19.4718 47.2974 18.9621 48.7812C18.0236 51.3874 15.7466 52.6475 12.3465 52.7813C17.3159 51.1628 18.5344 45.7042 14.6866 43.3656C12.9711 42.3256 10.8403 42.3102 9.03102 43.1918C7.62175 43.881 6.52171 44.9072 6.02785 46.595C5.47907 48.5077 5.70765 50.5598 6.66389 52.3049C7.62013 54.0499 9.22669 55.3469 11.1342 55.9137C11.6872 56.0744 12.2536 56.1846 12.8265 56.243C14.9483 56.4935 17.0873 55.945 18.8267 54.7045C20.4345 53.5244 21.5776 51.8628 22.0145 49.4735C22.653 45.978 22.1253 41.9348 19.6437 39.3978C14.2958 33.8884 7.38482 35.7008 0.759999 39.8948C-0.363113 35.8777 -0.650814 31.5761 2.80775 26.0005C3.65701 29.5637 4.45396 32.373 5.88477 34.3792C5.96107 34.4934 6.06999 34.5819 6.19733 34.6332C6.32467 34.6845 6.46452 34.6963 6.59864 34.6669C7.21404 34.5131 7.28789 33.4823 6.25094 29.2514C5.78667 27.4034 5.63072 25.4915 5.78938 23.5927C6.18632 19.1311 8.2033 15.9002 14.3296 13.7186C15.762 13.2124 16.3882 11.8616 16.5359 10Z" fill="white"/>
</g>
<path d="M58.2766 43.5H54.8665V35.9883H47.554V43.5H44.1438V25.5H47.554V32.9648H54.8665V25.5H58.2766V43.5ZM61.1594 43.5V25.5H64.5696V43.5H61.1594ZM79.8391 27.2695C81.0735 28.4414 81.6907 29.9023 81.6907 31.6523C81.6907 33.3945 81.0735 34.8555 79.8391 36.0352C78.6125 37.207 77.1204 37.793 75.3625 37.793H70.8508V43.5H67.4407V25.5H75.3625C77.1204 25.5 78.6125 26.0898 79.8391 27.2695ZM77.3196 33.8555C77.8665 33.2461 78.1399 32.5117 78.1399 31.6523C78.1399 30.7852 77.8665 30.0469 77.3196 29.4375C76.7805 28.8281 76.1282 28.5234 75.3625 28.5234H70.8508V34.7695H75.3625C76.1282 34.7695 76.7805 34.4648 77.3196 33.8555ZM96.386 27.2695C97.6204 28.4414 98.2375 29.9023 98.2375 31.6523C98.2375 33.3945 97.6204 34.8555 96.386 36.0352C95.1594 37.207 93.6672 37.793 91.9094 37.793H87.3977V43.5H83.9875V25.5H91.9094C93.6672 25.5 95.1594 26.0898 96.386 27.2695ZM93.8665 33.8555C94.4133 33.2461 94.6868 32.5117 94.6868 31.6523C94.6868 30.7852 94.4133 30.0469 93.8665 29.4375C93.3274 28.8281 92.675 28.5234 91.9094 28.5234H87.3977V34.7695H91.9094C92.675 34.7695 93.3274 34.4648 93.8665 33.8555ZM114.152 38.9883C115.363 37.7539 115.968 36.2578 115.968 34.5C115.968 32.7422 115.363 31.2461 114.152 30.0117C112.941 28.7773 111.464 28.1602 109.722 28.1602C107.98 28.1602 106.503 28.7773 105.292 30.0117C104.089 31.2461 103.488 32.7422 103.488 34.5C103.488 36.2578 104.089 37.7539 105.292 38.9883C106.503 40.2227 107.98 40.8398 109.722 40.8398C111.464 40.8398 112.941 40.2227 114.152 38.9883ZM116.659 27.8203C118.566 29.6328 119.519 31.8594 119.519 34.5C119.519 37.1406 118.566 39.3711 116.659 41.1914C114.753 43.0039 112.441 43.9102 109.722 43.9102C107.003 43.9102 104.691 43.0078 102.784 41.2031C100.886 39.3906 99.9368 37.1562 99.9368 34.5C99.9368 31.8438 100.886 29.6133 102.784 27.8086C104.691 25.9961 107.003 25.0898 109.722 25.0898C112.441 25.0898 114.753 26 116.659 27.8203ZM128.941 34.5L136.769 43.5H132.445L126.784 37.0195L125.202 38.8242V43.5H121.792V25.5H125.202V33.832L132.445 25.5H136.769L128.941 34.5ZM150.503 38.9883C151.714 37.7539 152.32 36.2578 152.32 34.5C152.32 32.7422 151.714 31.2461 150.503 30.0117C149.292 28.7773 147.816 28.1602 146.073 28.1602C144.331 28.1602 142.855 28.7773 141.644 30.0117C140.441 31.2461 139.839 32.7422 139.839 34.5C139.839 36.2578 140.441 37.7539 141.644 38.9883C142.855 40.2227 144.331 40.8398 146.073 40.8398C147.816 40.8398 149.292 40.2227 150.503 38.9883ZM153.011 27.8203C154.917 29.6328 155.87 31.8594 155.87 34.5C155.87 37.1406 154.917 39.3711 153.011 41.1914C151.105 43.0039 148.792 43.9102 146.073 43.9102C143.355 43.9102 141.042 43.0078 139.136 41.2031C137.238 39.3906 136.288 37.1562 136.288 34.5C136.288 31.8438 137.238 29.6133 139.136 27.8086C141.042 25.9961 143.355 25.0898 146.073 25.0898C148.792 25.0898 151.105 26 153.011 27.8203ZM172.898 30.8086L168.843 37.8398H165.679L161.624 30.8086H161.554V43.5H158.144V25.5H162.034L167.214 34.2891H167.308L172.499 25.5H176.378V43.5H173.003V30.8086H172.898Z" fill="white"/>
<defs>
<clipPath id="clip0_909_866">
<rect width="27.7024" height="50" fill="white" transform="translate(0 10)"/>
</clipPath>
</defs>
</svg>
