<svg width="337" height="80" viewBox="0 0 337 80" fill="none" xmlns="http://www.w3.org/2000/svg">
<g clip-path="url(#clip0_1153_217)">
<path d="M26.2641 0C30.9461 5.82418 30.0371 6.64636 33.8858 10.2157C34.9316 11.1654 35.7332 12.3564 36.2219 13.6866C36.6701 14.9564 36.947 16.2811 37.0454 17.6252C37.1446 19.0485 37.7391 20.3909 38.7242 21.416L43.8045 26.6322C43.8741 26.7033 43.9275 26.789 43.9608 26.8831C43.9941 26.9772 44.0065 27.0775 43.9972 27.177C43.9878 27.2765 43.957 27.3727 43.9069 27.4589C43.8567 27.5451 43.7884 27.6192 43.7068 27.6759L42.2259 28.7147C41.8427 28.9894 41.3741 29.1157 40.906 29.0705C40.4379 29.0252 40.0016 28.8116 39.6772 28.4686C37.5635 26.1694 32.9084 23.4173 30.9632 23.1933L29.0596 23.0604C27.8837 22.9798 26.7484 22.5946 25.7637 21.9421C24.779 21.2896 23.9783 20.3919 23.4393 19.336L22.2175 16.931C19.3609 22.3465 20.4361 26.8464 25.8292 30.3222C36.7204 37.9384 41.5197 44.8457 42.849 54.3943C43.3171 57.5486 43.2195 60.7618 42.5607 63.8814C40.4518 73.4152 33.5755 78.7101 22.2175 80.0246C14.1731 79.7735 7.08653 77.3735 2.86638 68.4846C0.620686 63.746 0.625573 58.1975 3.06431 53.5598C5.75231 48.4667 10.3488 45.6826 17.45 45.8697C23.1852 46.1036 27.8672 48.2132 30.0713 54.7315C30.911 57.095 30.9273 59.6759 30.1177 62.0499C28.6271 66.2199 25.0106 68.2359 19.6101 68.4501C27.5031 65.8605 29.4384 57.1267 23.3269 53.385C20.6022 51.721 17.2178 51.6964 14.3441 53.1069C12.1057 54.2097 10.3585 55.8516 9.57414 58.552C8.70251 61.6123 9.06557 64.8956 10.5844 67.6878C12.1032 70.4799 14.6549 72.5551 17.6846 73.4619C18.5629 73.7191 19.4626 73.8954 20.3725 73.9887C23.7425 74.3896 27.14 73.512 29.9027 71.5271C32.4563 69.6391 34.2719 66.9805 34.9659 63.1576C35.98 57.5648 35.1418 51.0957 31.2003 47.0365C22.7062 38.2215 11.7294 41.1213 1.20716 47.8316C-0.576693 41.4043 -1.03365 34.5217 4.45963 25.6008C5.80851 31.3019 7.07431 35.7968 9.34689 39.0067C9.46807 39.1894 9.64107 39.331 9.84333 39.4131C10.0456 39.4952 10.2677 39.514 10.4807 39.4671C11.4582 39.2209 11.5755 37.5716 9.92847 30.8022C9.19107 27.8455 8.94337 24.7864 9.19538 21.7484C9.82584 14.6097 13.0294 9.44029 22.76 5.94972C25.035 5.13985 26.0295 2.97855 26.2641 0Z" fill="white"/>
</g>
<path d="M91.7932 61.1992H85.0869V46.5325H70.7063V61.1992H64V26.0541H70.7063V40.6292H85.0869V26.0541H91.7932V61.1992Z" fill="white"/>
<path d="M97.4624 61.1992V26.0541H104.169V61.1992H97.4624Z" fill="white"/>
<path d="M134.197 29.5091C136.625 31.7972 137.839 34.6497 137.839 38.0666C137.839 41.4682 136.625 44.3207 134.197 46.624C131.785 48.9121 128.851 50.0562 125.394 50.0562H116.521V61.1992H109.815V26.0541H125.394C128.851 26.0541 131.785 27.2058 134.197 29.5091ZM129.243 42.3682C130.318 41.1784 130.856 39.7445 130.856 38.0666C130.856 36.3734 130.318 34.9319 129.243 33.7421C128.182 32.5523 126.9 31.9574 125.394 31.9574H116.521V44.1529H125.394C126.9 44.1529 128.182 43.558 129.243 42.3682Z" fill="white"/>
<path d="M166.738 29.5091C169.165 31.7972 170.379 34.6497 170.379 38.0666C170.379 41.4682 169.165 44.3207 166.738 46.624C164.326 48.9121 161.391 50.0562 157.934 50.0562H149.062V61.1992H142.356V26.0541H157.934C161.391 26.0541 164.326 27.2058 166.738 29.5091ZM161.783 42.3682C162.859 41.1784 163.396 39.7445 163.396 38.0666C163.396 36.3734 162.859 34.9319 161.783 33.7421C160.723 32.5523 159.44 31.9574 157.934 31.9574H149.062V44.1529H157.934C159.44 44.1529 160.723 43.558 161.783 42.3682Z" fill="white"/>
<path d="M201.675 52.39C204.057 49.9799 205.247 47.0588 205.247 43.6266C205.247 40.1945 204.057 37.2734 201.675 34.8632C199.294 32.4531 196.39 31.248 192.964 31.248C189.538 31.248 186.634 32.4531 184.253 34.8632C181.887 37.2734 180.704 40.1945 180.704 43.6266C180.704 47.0588 181.887 49.9799 184.253 52.39C186.634 54.8001 189.538 56.0052 192.964 56.0052C196.39 56.0052 199.294 54.8001 201.675 52.39ZM206.607 30.5845C210.356 34.1234 212.23 38.4708 212.23 43.6266C212.23 48.7825 210.356 53.1375 206.607 56.6916C202.858 60.2305 198.311 62 192.964 62C187.617 62 183.07 60.2382 179.321 56.7145C175.588 53.1756 173.721 48.813 173.721 43.6266C173.721 38.4403 175.588 34.0853 179.321 30.5616C183.07 27.0227 187.617 25.2533 192.964 25.2533C198.311 25.2533 202.858 27.0303 206.607 30.5845ZM191.074 18H194.946L199.67 23.9948H195.891L193.102 21.3177H192.872L190.129 23.9948H186.373L191.074 18Z" fill="white"/>
<path d="M223.961 29.2345V33.559C223.961 35.0844 223.546 36.2285 222.716 36.9912C221.886 37.7539 220.711 38.1352 219.19 38.1352H217.876V35.6641H219.19C220.481 35.6641 221.126 34.9624 221.126 33.559V32.5751C220.819 32.7582 220.473 32.8497 220.089 32.8497C217.83 32.8497 216.701 31.6447 216.701 29.2345C216.701 28.2735 217.062 27.4498 217.784 26.7634C218.506 26.077 219.367 25.7337 220.365 25.7337C221.379 25.7337 222.232 26.077 222.924 26.7634C223.615 27.4498 223.961 28.2735 223.961 29.2345Z" fill="white"/>
<path d="M243.711 43.6266L259.105 61.1992H250.601L239.47 48.546L236.359 52.0697V61.1992H229.653V26.0541H236.359V42.3224L250.601 26.0541H259.105L243.711 43.6266Z" fill="white"/>
<path d="M286.115 52.39C288.496 49.9799 289.687 47.0588 289.687 43.6266C289.687 40.1945 288.496 37.2734 286.115 34.8632C283.734 32.4531 280.83 31.248 277.404 31.248C273.978 31.248 271.074 32.4531 268.692 34.8632C266.326 37.2734 265.143 40.1945 265.143 43.6266C265.143 47.0588 266.326 49.9799 268.692 52.39C271.074 54.8001 273.978 56.0052 277.404 56.0052C280.83 56.0052 283.734 54.8001 286.115 52.39ZM291.047 30.5845C294.796 34.1234 296.67 38.4708 296.67 43.6266C296.67 48.7825 294.796 53.1375 291.047 56.6916C287.298 60.2305 282.75 62 277.404 62C272.057 62 267.509 60.2382 263.761 56.7145C260.027 53.1756 258.16 48.813 258.16 43.6266C258.16 38.4403 260.027 34.0853 263.761 30.5616C267.509 27.0227 272.057 25.2533 277.404 25.2533C282.75 25.2533 287.298 27.0303 291.047 30.5845Z" fill="white"/>
<path d="M330.155 36.4191L322.182 50.1477H315.959L307.985 36.4191H307.847V61.1992H301.141V26.0541H308.792L318.978 43.2148H319.163L329.372 26.0541H337V61.1992H330.363V36.4191H330.155Z" fill="white"/>
<defs>
<clipPath id="clip0_1153_217">
<rect width="44" height="80" fill="white"/>
</clipPath>
</defs>
</svg>
