<svg width="216" height="90" viewBox="0 0 216 90" fill="none" xmlns="http://www.w3.org/2000/svg">
<rect y="10" width="70" height="70" rx="16" fill="#436AF6"/>
<g clip-path="url(#clip0_909_866)">
<path d="M37.5359 20C40.4837 23.6401 39.9113 24.154 42.3345 26.3848C42.9929 26.9784 43.4976 27.7227 43.8053 28.5541C44.0874 29.3478 44.2618 30.1757 44.3238 31.0157C44.3862 31.9053 44.7605 32.7443 45.3807 33.385L48.5793 36.6451C48.6231 36.6896 48.6567 36.7431 48.6777 36.8019C48.6986 36.8608 48.7064 36.9235 48.7006 36.9856C48.6947 37.0478 48.6753 37.1079 48.6437 37.1618C48.6121 37.2157 48.5691 37.262 48.5177 37.2975L47.5854 37.9467C47.3442 38.1184 47.0491 38.1973 46.7544 38.169C46.4597 38.1408 46.185 38.0072 45.9807 37.7929C44.6499 36.3559 41.7191 34.6358 40.4944 34.4958L39.2959 34.4128C38.5556 34.3624 37.8408 34.1216 37.2208 33.7138C36.6008 33.306 36.0967 32.7449 35.7574 32.085L34.9881 30.5819C33.1896 33.9666 33.8665 36.779 37.262 38.9514C44.1191 43.7115 47.1408 48.0286 47.9777 53.9964C48.2724 55.9678 48.211 57.9762 47.7962 59.9258C46.4684 65.8845 42.1391 69.1938 34.9881 70.0154C29.9233 69.8585 25.4617 68.3584 22.8046 62.8029C21.3908 59.8412 21.3938 56.3734 22.9293 53.4749C24.6216 50.2917 27.5156 48.5516 31.9865 48.6686C35.5973 48.8147 38.5451 50.1332 39.9329 54.2072C40.4615 55.6844 40.4718 57.2974 39.9621 58.7812C39.0236 61.3874 36.7466 62.6475 33.3465 62.7813C38.3159 61.1628 39.5344 55.7042 35.6866 53.3656C33.9711 52.3256 31.8403 52.3102 30.031 53.1918C28.6217 53.881 27.5217 54.9072 27.0279 56.595C26.4791 58.5077 26.7077 60.5598 27.6639 62.3049C28.6201 64.0499 30.2267 65.3469 32.1342 65.9137C32.6872 66.0744 33.2536 66.1846 33.8265 66.243C35.9483 66.4935 38.0873 65.945 39.8267 64.7045C41.4345 63.5244 42.5776 61.8628 43.0145 59.4735C43.653 55.978 43.1253 51.9348 40.6437 49.3978C35.2958 43.8884 28.3848 45.7008 21.76 49.8948C20.6369 45.8777 20.3492 41.5761 23.8078 36.0005C24.657 39.5637 25.454 42.373 26.8848 44.3792C26.9611 44.4934 27.07 44.5819 27.1973 44.6332C27.3247 44.6845 27.4645 44.6963 27.5986 44.6669C28.214 44.5131 28.2879 43.4823 27.2509 39.2514C26.7867 37.4034 26.6307 35.4915 26.7894 33.5927C27.1863 29.1311 29.2033 25.9002 35.3296 23.7186C36.762 23.2124 37.3882 21.8616 37.5359 20Z" fill="white"/>
</g>
<path d="M95.5742 53.5H92.1641V45.9883H84.8516V53.5H81.4414V35.5H84.8516V42.9648H92.1641V35.5H95.5742V53.5ZM98.457 53.5V35.5H101.867V53.5H98.457ZM117.137 37.2695C118.371 38.4414 118.988 39.9023 118.988 41.6523C118.988 43.3945 118.371 44.8555 117.137 46.0352C115.91 47.207 114.418 47.793 112.66 47.793H108.148V53.5H104.738V35.5H112.66C114.418 35.5 115.91 36.0898 117.137 37.2695ZM114.617 43.8555C115.164 43.2461 115.438 42.5117 115.438 41.6523C115.438 40.7852 115.164 40.0469 114.617 39.4375C114.078 38.8281 113.426 38.5234 112.66 38.5234H108.148V44.7695H112.66C113.426 44.7695 114.078 44.4648 114.617 43.8555ZM133.684 37.2695C134.918 38.4414 135.535 39.9023 135.535 41.6523C135.535 43.3945 134.918 44.8555 133.684 46.0352C132.457 47.207 130.965 47.793 129.207 47.793H124.695V53.5H121.285V35.5H129.207C130.965 35.5 132.457 36.0898 133.684 37.2695ZM131.164 43.8555C131.711 43.2461 131.984 42.5117 131.984 41.6523C131.984 40.7852 131.711 40.0469 131.164 39.4375C130.625 38.8281 129.973 38.5234 129.207 38.5234H124.695V44.7695H129.207C129.973 44.7695 130.625 44.4648 131.164 43.8555ZM151.449 48.9883C152.66 47.7539 153.266 46.2578 153.266 44.5C153.266 42.7422 152.66 41.2461 151.449 40.0117C150.238 38.7773 148.762 38.1602 147.02 38.1602C145.277 38.1602 143.801 38.7773 142.59 40.0117C141.387 41.2461 140.785 42.7422 140.785 44.5C140.785 46.2578 141.387 47.7539 142.59 48.9883C143.801 50.2227 145.277 50.8398 147.02 50.8398C148.762 50.8398 150.238 50.2227 151.449 48.9883ZM153.957 37.8203C155.863 39.6328 156.816 41.8594 156.816 44.5C156.816 47.1406 155.863 49.3711 153.957 51.1914C152.051 53.0039 149.738 53.9102 147.02 53.9102C144.301 53.9102 141.988 53.0078 140.082 51.2031C138.184 49.3906 137.234 47.1562 137.234 44.5C137.234 41.8438 138.184 39.6133 140.082 37.8086C141.988 35.9961 144.301 35.0898 147.02 35.0898C149.738 35.0898 152.051 36 153.957 37.8203ZM166.238 44.5L174.066 53.5H169.742L164.082 47.0195L162.5 48.8242V53.5H159.09V35.5H162.5V43.832L169.742 35.5H174.066L166.238 44.5ZM187.801 48.9883C189.012 47.7539 189.617 46.2578 189.617 44.5C189.617 42.7422 189.012 41.2461 187.801 40.0117C186.59 38.7773 185.113 38.1602 183.371 38.1602C181.629 38.1602 180.152 38.7773 178.941 40.0117C177.738 41.2461 177.137 42.7422 177.137 44.5C177.137 46.2578 177.738 47.7539 178.941 48.9883C180.152 50.2227 181.629 50.8398 183.371 50.8398C185.113 50.8398 186.59 50.2227 187.801 48.9883ZM190.309 37.8203C192.215 39.6328 193.168 41.8594 193.168 44.5C193.168 47.1406 192.215 49.3711 190.309 51.1914C188.402 53.0039 186.09 53.9102 183.371 53.9102C180.652 53.9102 178.34 53.0078 176.434 51.2031C174.535 49.3906 173.586 47.1562 173.586 44.5C173.586 41.8438 174.535 39.6133 176.434 37.8086C178.34 35.9961 180.652 35.0898 183.371 35.0898C186.09 35.0898 188.402 36 190.309 37.8203ZM210.195 40.8086L206.141 47.8398H202.977L198.922 40.8086H198.852V53.5H195.441V35.5H199.332L204.512 44.2891H204.605L209.797 35.5H213.676V53.5H210.301V40.8086H210.195Z" fill="white"/>
<defs>
<clipPath id="clip0_909_866">
<rect width="27.7024" height="50" fill="white" transform="translate(21 20)"/>
</clipPath>
</defs>
</svg>
