<svg width="127" height="127" viewBox="0 0 127 127" fill="none" xmlns="http://www.w3.org/2000/svg">
<rect x="38" y="27" width="50" height="8" rx="1" fill="#65D1FF" stroke="#15214B" stroke-width="1.5"/>
<path d="M70.7512 63.5C70.7512 65.8452 72.3156 67.391 74.7717 69.2803C77.1598 71.1173 80.2845 73.2022 82.6184 76.5732C84.9834 79.9896 85.6245 83.9047 85.6887 86.9219C85.7209 88.4355 85.6085 89.7395 85.4875 90.667C85.427 91.131 85.3638 91.5024 85.3156 91.7598C85.2915 91.8885 85.2708 91.9892 85.2561 92.0586C85.2487 92.0933 85.2427 92.1207 85.2385 92.1396C85.2364 92.1489 85.2348 92.1568 85.2336 92.1621C85.2331 92.1644 85.2339 92.1606 85.2336 92.1621L85.0959 92.75H63.0012V91.25H83.882C83.9179 91.041 83.9603 90.7799 84.0002 90.4736C84.1136 89.6044 84.219 88.3766 84.1887 86.9531C84.1278 84.0955 83.5195 80.5101 81.385 77.4268C79.219 74.2982 76.3434 72.3826 73.8567 70.4697C71.4377 68.609 69.2512 66.6548 69.2512 63.5C69.2512 60.3453 71.4368 58.3909 73.8557 56.5303C76.3424 54.6174 79.218 52.7018 81.384 49.5732C83.5187 46.4898 84.1269 42.9046 84.1877 40.0469C84.218 38.6234 84.1126 37.3956 83.9992 36.5264C83.9593 36.2201 83.9169 35.959 83.8811 35.75H42.1193C42.0835 35.9591 42.0411 36.2201 42.0012 36.5264C41.8878 37.3956 41.7824 38.6234 41.8127 40.0469C41.8736 42.9046 42.4818 46.4898 44.6164 49.5732C46.7824 52.7018 49.658 54.6174 52.1447 56.5303C54.5636 58.391 56.7502 60.3453 56.7502 63.5L56.7443 63.792C56.6139 66.7767 54.4882 68.6671 52.1447 70.4697C49.658 72.3825 46.7823 74.2982 44.6164 77.4268C42.4819 80.5101 41.8735 84.0955 41.8127 86.9531C41.7824 88.3766 41.8878 89.6044 42.0012 90.4736C42.0411 90.7799 42.0835 91.041 42.1193 91.25H63.0012V92.75H40.9055L40.7697 92.1719C40.7694 92.1704 40.7703 92.1741 40.7697 92.1719C40.7685 92.1665 40.765 92.1489 40.7629 92.1396C40.7587 92.1207 40.7527 92.0933 40.7453 92.0586C40.7306 91.9892 40.7098 91.8884 40.6858 91.7598C40.6376 91.5024 40.5744 91.131 40.5139 90.667C40.3929 89.7395 40.2805 88.4355 40.3127 86.9219C40.3769 83.9048 41.018 79.9896 43.383 76.5732C45.7168 73.2022 48.8416 71.1173 51.2297 69.2803C53.6089 67.4501 55.1521 65.9422 55.2463 63.7178L55.2502 63.5C55.2502 61.1549 53.6857 59.609 51.2297 57.7197C48.8415 55.8827 45.7169 53.7979 43.383 50.4268C41.0179 47.0103 40.3769 43.0953 40.3127 40.0781C40.2805 38.5644 40.3929 37.2605 40.5139 36.333C40.5744 35.869 40.6376 35.4976 40.6858 35.2402C40.7099 35.1115 40.7306 35.0108 40.7453 34.9414C40.7527 34.9067 40.7587 34.8793 40.7629 34.8604C40.765 34.8511 40.7666 34.8432 40.7678 34.8379C40.7674 34.8394 40.7683 34.8356 40.7678 34.8379L40.9055 34.25H85.0949L85.2307 34.8281C85.2302 34.8258 85.231 34.8296 85.2307 34.8281C85.2319 34.8335 85.2354 34.8511 85.2375 34.8604C85.2418 34.8793 85.2477 34.9067 85.2551 34.9414C85.2698 35.0108 85.2906 35.1115 85.3147 35.2402C85.3628 35.4976 85.426 35.869 85.4865 36.333C85.6075 37.2605 85.7199 38.5644 85.6877 40.0781C85.6235 43.0953 84.9825 47.0104 82.6174 50.4268C80.2835 53.7978 77.1588 55.8827 74.7707 57.7197C72.3148 59.6089 70.7512 61.1549 70.7512 63.5Z" fill="white"/>
<path fill-rule="evenodd" clip-rule="evenodd" d="M83.882 91.25H63.0012H42.1193C42.0835 91.041 42.0411 90.7799 42.0012 90.4736C41.8878 89.6044 41.7824 88.3766 41.8127 86.9531C41.8735 84.0955 42.4819 80.5101 44.6164 77.4268C46.4741 74.7435 48.8538 72.9524 51.0625 71.2901C51.429 71.0143 51.7908 70.742 52.1447 70.4697C54.4882 68.6671 56.6139 66.7767 56.7443 63.792L56.7502 63.5C56.7502 60.3453 54.5636 58.391 52.1447 56.5303C51.7908 56.258 51.4289 55.9857 51.0624 55.7098C48.8537 54.0475 46.4741 52.2565 44.6164 49.5732C42.4818 46.4898 41.8736 42.9046 41.8127 40.0469C41.7824 38.6234 41.8878 37.3956 42.0012 36.5264C42.0411 36.2201 42.0835 35.9591 42.1193 35.75H83.8811C83.9169 35.959 83.9593 36.2201 83.9992 36.5264C84.1126 37.3956 84.218 38.6234 84.1877 40.0469C84.1269 42.9046 83.5187 46.4898 81.384 49.5732C79.5263 52.2565 77.1466 54.0475 74.938 55.7098C74.5714 55.9857 74.2096 56.258 73.8557 56.5303C71.4368 58.3909 69.2512 60.3453 69.2512 63.5C69.2512 66.6548 71.4377 68.609 73.8567 70.4697C74.2106 70.742 74.5724 71.0143 74.939 71.2902C77.1476 72.9524 79.5273 74.7435 81.385 77.4268C83.5195 80.5101 84.1278 84.0955 84.1887 86.9531C84.219 88.3766 84.1136 89.6044 84.0002 90.4736C83.9603 90.7799 83.9179 91.041 83.882 91.25Z" fill="white"/>
<path d="M70.7512 63.5C70.7512 65.8452 72.3156 67.391 74.7717 69.2803C77.1598 71.1173 80.2845 73.2022 82.6184 76.5732C84.9834 79.9896 85.6245 83.9047 85.6887 86.9219C85.7209 88.4355 85.6085 89.7395 85.4875 90.667C85.427 91.131 85.3638 91.5024 85.3156 91.7598C85.2915 91.8885 85.2708 91.9892 85.2561 92.0586C85.2487 92.0933 85.2427 92.1207 85.2385 92.1396C85.2364 92.1489 85.2348 92.1568 85.2336 92.1621C85.2331 92.1644 85.233 92.1664 85.2326 92.168L85.2317 92.1709L84.5012 92L85.2317 92.1719L85.0959 92.75H63.0012V91.25H83.882C83.9179 91.041 83.9603 90.7799 84.0002 90.4736C84.1136 89.6044 84.219 88.3766 84.1887 86.9531C84.1278 84.0955 83.5195 80.5101 81.385 77.4268C79.219 74.2982 76.3434 72.3826 73.8567 70.4697C71.4377 68.609 69.2512 66.6548 69.2512 63.5H69.2502C69.2502 60.3453 71.4368 58.3909 73.8557 56.5303C76.3424 54.6174 79.218 52.7018 81.384 49.5732C83.5187 46.4898 84.1269 42.9046 84.1877 40.0469C84.218 38.6234 84.1126 37.3956 83.9992 36.5264C83.9593 36.2201 83.9169 35.959 83.8811 35.75H42.1193C42.0835 35.9591 42.0411 36.2201 42.0012 36.5264C41.8878 37.3956 41.7824 38.6234 41.8127 40.0469C41.8736 42.9046 42.4818 46.4898 44.6164 49.5732C46.7824 52.7018 49.658 54.6174 52.1447 56.5303C54.5636 58.391 56.7502 60.3453 56.7502 63.5L56.7443 63.792C56.6139 66.7767 54.4882 68.6671 52.1447 70.4697C49.658 72.3825 46.7823 74.2982 44.6164 77.4268C42.4819 80.5101 41.8735 84.0955 41.8127 86.9531C41.7824 88.3766 41.8878 89.6044 42.0012 90.4736C42.0411 90.7799 42.0835 91.041 42.1193 91.25H63.0002V92.75H40.9055L40.7697 92.1719L41.5002 92L40.7697 92.1709L40.7688 92.168C40.7684 92.1664 40.7683 92.1644 40.7678 92.1621C40.7666 92.1568 40.765 92.1489 40.7629 92.1396C40.7587 92.1207 40.7527 92.0933 40.7453 92.0586C40.7306 91.9892 40.7098 91.8884 40.6858 91.7598C40.6376 91.5024 40.5744 91.131 40.5139 90.667C40.3929 89.7395 40.2805 88.4355 40.3127 86.9219C40.3769 83.9048 41.018 79.9896 43.383 76.5732C45.7168 73.2022 48.8416 71.1173 51.2297 69.2803C53.6089 67.4501 55.1521 65.9422 55.2463 63.7178L55.2502 63.5C55.2502 61.1549 53.6857 59.609 51.2297 57.7197C48.8415 55.8827 45.7169 53.7979 43.383 50.4268C41.0179 47.0103 40.3769 43.0953 40.3127 40.0781C40.2805 38.5644 40.3929 37.2605 40.5139 36.333C40.5744 35.869 40.6376 35.4976 40.6858 35.2402C40.7099 35.1115 40.7306 35.0108 40.7453 34.9414C40.7527 34.9067 40.7587 34.8793 40.7629 34.8604C40.765 34.8511 40.7666 34.8432 40.7678 34.8379C40.7683 34.8356 40.7684 34.8336 40.7688 34.832L40.7697 34.8291L41.5002 35L40.7697 34.8281L40.9055 34.25H85.0949L85.2307 34.8281L84.5002 35L85.2307 34.8291L85.2317 34.832C85.232 34.8335 85.2321 34.8356 85.2326 34.8379C85.2339 34.8432 85.2354 34.8511 85.2375 34.8604C85.2418 34.8793 85.2477 34.9067 85.2551 34.9414C85.2698 35.0108 85.2906 35.1115 85.3147 35.2402C85.3628 35.4976 85.426 35.869 85.4865 36.333C85.6075 37.2605 85.7199 38.5644 85.6877 40.0781C85.6235 43.0953 84.9825 47.0104 82.6174 50.4268C80.2835 53.7978 77.1588 55.8827 74.7707 57.7197C72.3148 59.6089 70.7502 61.1549 70.7502 63.5H70.7512Z" fill="#15214B"/>
<rect x="38" y="92" width="50" height="8" rx="1" fill="#65D1FF" stroke="#15214B" stroke-width="1.5"/>
<path d="M46.0643 90.0032C46.9135 83.4168 55.9809 77.7523 63.4998 78.0005C70.6505 78.2366 78.9499 84.6663 79.9082 90.0065C80.0057 90.5501 79.552 91.0006 78.9998 91.0006H46.9998C46.4475 91.0006 45.9937 90.551 46.0643 90.0032Z" fill="#FFEA00" stroke="#15214B" stroke-width="1.5"/>
<circle cx="63.5" cy="74.5" r="1.5" fill="#15214B"/>
<circle cx="63.5" cy="69.5" r="1.5" fill="#15214B"/>
<path d="M63 46.9999C56.1726 45.3871 48.5 43.9999 46.9998 46.9999C46 49.4998 55 53.5 58.9998 60.0001C60.4878 62.4181 60.4994 65.0001 63 65C65.5005 64.9999 65.4998 62.5 66.9998 60.0001C71.9496 52.8003 78.1145 51.2698 78.9339 48.1201C79.085 47.5395 78.4882 47.1281 77.8993 47.2426C73.829 48.0337 67.7238 48.1528 63 46.9999Z" fill="#FFEA00" stroke="#15214B" stroke-width="1.5"/>
<path d="M86.2272 9.56806C86.27 9.05296 86.7223 8.67015 87.2374 8.71301C87.7525 8.75587 88.1353 9.20818 88.0925 9.72327L87.2129 20.2934C87.1701 20.8084 86.7178 21.1913 86.2027 21.1484C85.6876 21.1055 85.3048 20.6532 85.3476 20.1381L86.2272 9.56806Z" fill="#15214B"/>
<path d="M105.858 26.5882C106.373 26.541 106.829 26.92 106.876 27.4347C106.923 27.9494 106.544 28.4049 106.03 28.4522L95.4673 29.4215C94.9526 29.4687 94.497 29.0897 94.4498 28.575C94.4025 28.0603 94.7815 27.6048 95.2962 27.5575L105.858 26.5882Z" fill="#15214B"/>
<path d="M99.2011 14.1671C99.5658 13.8008 100.158 13.7995 100.525 14.1642C100.891 14.5289 100.892 15.1214 100.528 15.4877L93.0444 23.0045C92.6797 23.3708 92.0872 23.3721 91.7209 23.0075C91.3546 22.6428 91.3532 22.0502 91.7179 21.6839L99.2011 14.1671Z" fill="#15214B"/>
</svg>
