<svg width="100" height="100" viewBox="0 0 100 100" fill="none" xmlns="http://www.w3.org/2000/svg">
<path d="M91.6381 54.3512C91.7489 53.8888 91.5638 53.3032 90.9615 53.0877L89.7424 52.6516L81.3016 49.633L81.1918 49.5997C80.9388 49.5366 80.7078 49.5751 80.5209 49.6936C80.3127 49.8257 80.1797 50.0438 80.1241 50.2755C80.0201 50.7092 80.1769 51.2514 80.6936 51.4949L80.8015 51.5396L82.0206 51.9756L90.4606 54.9937C90.7567 55.0996 91.0277 55.0687 91.2414 54.9332C91.4497 54.801 91.5825 54.583 91.6381 54.3512Z" fill="#121229" stroke="#121229" stroke-width="0.4"/>
<path d="M73.1144 58.6015C72.973 58.378 72.7764 58.2421 72.5582 58.1906C72.3146 58.1331 72.0628 58.1846 71.8543 58.3012C71.4638 58.5196 71.1781 59.0033 71.3849 59.543L71.4328 59.6519L72.0044 60.7907L76.0536 68.859C76.1963 69.1431 76.4176 69.3118 76.6669 69.3707C76.9104 69.4281 77.1623 69.3767 77.3708 69.2601C77.7873 69.0272 78.0846 68.4919 77.7922 67.9093L77.2215 66.771L73.1723 58.7028L73.1144 58.6015Z" fill="#121229" stroke="#121229" stroke-width="0.4"/>
<path d="M90.2866 35.5164C90.1462 35.3338 89.9494 35.2003 89.7272 35.1368C89.478 35.0657 89.2127 35.0884 88.9836 35.2023L87.8339 35.6877L79.6521 39.1441L79.6414 39.1492L79.6315 39.1547C79.4016 39.2846 79.2352 39.5015 79.1693 39.7584C79.1035 40.0155 79.1441 40.2901 79.2793 40.5217L79.2829 40.5272C79.4244 40.7514 79.6446 40.9165 79.8986 40.9891C80.1477 41.0601 80.4132 41.0374 80.6422 40.9236L81.791 40.4377L89.4325 37.2096L89.3671 37.3248L89.9935 36.9706C90.2238 36.8407 90.3912 36.6239 90.457 36.3666C90.5228 36.1096 90.4816 35.8358 90.3465 35.6042L90.3434 35.5978L90.2866 35.5164Z" fill="#121229" stroke="#121229" stroke-width="0.4"/>
<path d="M61.589 94.5273C61.8735 94.3867 62.1275 94.1915 62.3365 93.9527C62.5455 93.714 62.7055 93.4364 62.8072 93.1359C62.9089 92.8353 62.9505 92.5177 62.9295 92.2011C62.9085 91.8844 62.8253 91.5751 62.6847 91.2906L47.3559 61.0044L43.0234 63.1453L58.3523 93.4315C58.6362 94.0061 59.1367 94.4443 59.7437 94.6498C60.3507 94.8552 61.0145 94.8112 61.589 94.5273Z" fill="white"/>
<path d="M47.5412 60.2959L47.6749 60.3457C47.7602 60.3868 47.8367 60.4438 47.9005 60.5137L47.9865 60.6279L47.9953 60.6426L48.0031 60.6582C48.027 60.7065 48.0373 60.7291 48.0539 60.7607L48.2052 61.0576L48.6613 61.1777L48.3458 61.333C48.6803 62.0002 49.0012 62.6771 49.3244 63.3311L51.8888 68.5215L51.9835 68.7129L51.9972 68.7402L53.4044 71.5908L53.4894 71.5498L57.508 79.6816L60.6701 86.082L62.6066 90L62.9923 90.7803L63.1183 91.0723C63.6748 92.5514 63.1518 94.3178 61.6251 95.0723C61.6229 95.0733 61.6205 95.0751 61.6183 95.0762L61.6173 95.0752C61.0422 95.3559 60.3964 95.4588 59.7628 95.3682C59.1269 95.2772 58.533 94.9968 58.0587 94.5635L58.0568 94.5615C57.6943 94.2255 57.4274 93.7862 57.2111 93.3623C57.1019 93.1484 57.002 92.9304 56.9083 92.7246L56.6378 92.1426L54.3712 87.5557L54.0011 86.8076L53.9171 86.8496L49.3429 77.5928L45.131 69.0684L43.2501 65.2607L42.6906 64.1279L42.5822 64.1816L42.6291 64.0039L42.3751 63.4912L42.3771 63.4902C42.2917 63.327 42.2678 63.1386 42.3146 62.96L42.3644 62.8262C42.426 62.6983 42.5237 62.5895 42.6466 62.5146L42.6613 62.5059L42.6769 62.498L43.0753 62.3008L43.1974 61.8379L43.3566 62.1611L46.3722 60.6719L46.3195 60.5645L46.4953 60.6113L47.0099 60.3564V60.3584C47.131 60.2949 47.2656 60.2648 47.4005 60.2734L47.5412 60.2959ZM44.0236 63.4688C44.3613 64.1306 44.6678 64.8172 44.9787 65.4463L47.6144 70.7783H47.6124L48.8556 73.2939L48.9406 73.2529L52.9689 81.4043L56.172 87.8877L58.1847 91.96L58.6271 92.8555L58.6867 92.9766L58.6896 92.9824L58.7707 93.1279C58.9753 93.456 59.2865 93.7067 59.6544 93.8359C60.0729 93.9829 60.5319 93.9605 60.9347 93.7754C61.3333 93.5775 61.6388 93.2324 61.7863 92.8125C61.9154 92.4446 61.9146 92.0454 61.7863 91.6807L61.7228 91.5264C61.5877 91.2362 61.4473 90.9511 61.3039 90.665L60.8683 89.7969L58.5382 85.082L58.1886 84.375L58.1056 84.416L53.5646 75.2266L49.3781 66.7549L47.5666 63.0879L47.0226 61.9873L44.0236 63.4688Z" fill="#121229" stroke="#121229" stroke-width="0.8"/>
<path d="M32.7613 68.1854C50.1162 68.1854 64.1852 54.1165 64.1852 36.7615C64.1852 19.4066 50.1162 5.33765 32.7613 5.33765C15.4064 5.33765 1.3374 19.4066 1.3374 36.7615C1.3374 54.1165 15.4064 68.1854 32.7613 68.1854Z" fill="white"/>
<path d="M33.0811 4.60156C38.6707 4.65479 44.1536 6.16339 48.9873 8.9834C53.9768 11.8944 58.0904 16.0953 60.8965 21.1445C63.7026 26.1938 65.0974 31.9054 64.9346 37.6797C64.7718 43.4539 63.0577 49.0779 59.9717 53.9609C56.8856 58.8441 52.5411 62.8064 47.3955 65.4316C42.2499 68.0568 36.4924 69.2484 30.7275 68.8809C24.9627 68.5133 19.4034 66.6001 14.6328 63.3428C9.8622 60.0854 6.05627 55.6037 3.61523 50.3682C2.19807 47.3101 1.26396 44.0497 0.847659 40.7051L0.777347 40.0889C0.626286 38.651 0.571881 37.2044 0.614261 35.7588L0.638675 35.1396C0.791702 32.0516 1.39167 29.0008 2.4209 26.083L2.62988 25.5098C4.83965 19.6184 8.72368 14.4961 13.8096 10.7764L14.3096 10.418C16.8277 8.65048 19.589 7.25461 22.5078 6.27539L23.1162 6.0791C26.1663 5.12493 29.342 4.62586 32.54 4.60059L33.0811 4.60156ZM50.1318 11.4424C43.5898 6.9497 35.5615 5.16542 27.7324 6.46484C19.9032 7.76433 12.8815 12.0467 8.1416 18.4121C3.40202 24.7772 1.31298 32.7308 2.31152 40.6035L2.3916 41.1924C2.59161 42.562 2.88234 43.917 3.26367 45.248L3.43164 45.8096C5.21514 51.5989 8.67395 56.7355 13.3779 60.5664C18.2337 64.5207 24.1836 66.8947 30.4277 67.3691L31.0361 67.4082C34.0789 67.5735 37.1306 67.2898 40.0928 66.5654L40.6689 66.418C43.542 65.6549 46.2894 64.4768 48.8242 62.9199L49.3164 62.6113C54.3639 59.3695 58.3594 54.7221 60.8076 49.2363L60.8086 49.2354L61.041 48.7002C62.181 46.012 62.9285 43.1728 63.2588 40.2695L63.3213 39.6621C63.5848 36.8243 63.455 33.9636 62.9365 31.1611L62.8203 30.5615C61.2222 22.7878 56.6739 15.9352 50.1318 11.4424Z" fill="#121229" stroke="#121229" stroke-width="0.8"/>
<path d="M32.7612 62.7416C47.1095 62.7416 58.7411 51.11 58.7411 36.7616C58.7411 22.4133 47.1095 10.7817 32.7612 10.7817C18.4129 10.7817 6.78125 22.4133 6.78125 36.7616C6.78125 51.11 18.4129 62.7416 32.7612 62.7416Z" fill="#FFEE33"/>
<path d="M33.3502 10.051C37.207 10.1341 41.0039 11.0516 44.4772 12.7444C48.1819 14.55 51.4189 17.1885 53.9342 20.4534C56.4495 23.7182 58.1752 27.5209 58.9762 31.5637C59.7271 35.354 59.6462 39.2595 58.7428 43.01L58.5504 43.7581C57.1096 49.0494 54.0772 53.7703 49.8639 57.2805C45.7823 60.6808 40.7837 62.7863 35.5074 63.3342L34.9957 63.3821C29.5504 63.8453 24.0942 62.6254 19.3648 59.887C14.6354 57.1484 10.8603 53.023 8.55132 48.0696C7.37239 45.5256 6.5956 42.813 6.24956 40.0305L6.1773 39.3918C5.51235 32.7893 7.34051 26.1669 11.316 20.8342L11.6217 20.4319C13.1668 18.4357 14.9846 16.6651 17.0221 15.1721L17.4381 14.8743C19.5295 13.4068 21.8227 12.2486 24.2467 11.4358L24.7516 11.2717C27.2845 10.4795 29.9219 10.066 32.5777 10.0452L33.3502 10.051ZM32.6246 11.5334C29.0549 11.5532 25.5294 12.3298 22.2818 13.8118C19.0344 15.2938 16.1378 17.4477 13.7838 20.1311C11.4297 22.8146 9.67199 25.9672 8.62554 29.3801C7.57917 32.7928 7.2683 36.3883 7.71343 39.9299L7.77886 40.4133C7.94342 41.5379 8.18321 42.6505 8.49663 43.7434L8.63433 44.2053C10.1013 48.967 12.9463 53.1919 16.815 56.343C20.8085 59.5957 25.7018 61.5487 30.8375 61.9397H30.8365C33.506 62.1376 36.1904 61.9142 38.7906 61.2786L39.2652 61.1584C41.6295 60.5306 43.8903 59.5607 45.9762 58.2795L46.3805 58.0247C50.534 55.3568 53.8218 51.5325 55.8355 47.0178L56.0279 46.5774C56.964 44.3698 57.5769 42.0377 57.8482 39.6536L57.9156 38.9875C58.2077 35.6583 57.8362 32.3019 56.8199 29.1135C55.7358 25.7124 53.9428 22.5794 51.5592 19.9221C49.1756 17.2649 46.2554 15.1435 42.9918 13.6975C39.728 12.2515 36.1943 11.5137 32.6246 11.5334Z" fill="#121229" stroke="#121229" stroke-width="0.8"/>
</svg>
