<svg width="127" height="127" viewBox="0 0 127 127" fill="none" xmlns="http://www.w3.org/2000/svg">
<path d="M47.6579 86.2631L56.7365 88.7757L52.8093 102.965C52.1154 105.472 49.5207 106.942 47.0137 106.248C44.5067 105.555 43.0368 102.96 43.7307 100.453L47.6579 86.2631Z" fill="#15214B"/>
<path d="M81.0687 86.2631L71.9901 88.7757L75.9173 102.965C76.6111 105.472 79.2059 106.942 81.7129 106.248C84.2199 105.555 85.6897 102.96 84.9959 100.453L81.0687 86.2631Z" fill="#15214B"/>
<path d="M96.9392 63.9696C96.9392 82.1782 82.1782 96.9392 63.9696 96.9392C45.761 96.9392 31 82.1782 31 63.9696C31 45.761 45.761 31 63.9696 31C82.1782 31 96.9392 45.761 96.9392 63.9696Z" fill="white"/>
<path d="M94.5843 63.9696C94.5843 47.0616 80.8776 33.355 63.9696 33.355C47.0616 33.355 33.355 47.0616 33.355 63.9696C33.355 80.8776 47.0616 94.5843 63.9696 94.5843V96.9392C45.761 96.9392 31 82.1782 31 63.9696C31 45.761 45.761 31 63.9696 31C82.1782 31 96.9392 45.761 96.9392 63.9696C96.9392 82.1782 82.1782 96.9392 63.9696 96.9392V94.5843C80.8776 94.5843 94.5843 80.8776 94.5843 63.9696Z" fill="#15214B"/>
<path d="M89.0893 63.9696C89.0893 77.8428 77.8428 89.0893 63.9696 89.0893C50.0963 89.0893 38.8499 77.8428 38.8499 63.9696C38.8499 50.0963 50.0963 38.8499 63.9696 38.8499C77.8428 38.8499 89.0893 50.0963 89.0893 63.9696Z" fill="#65D1FF"/>
<path d="M81.2393 63.9695C81.2393 73.5074 73.5074 81.2393 63.9695 81.2393C54.4317 81.2393 46.6997 73.5074 46.6997 63.9695C46.6997 54.4317 54.4317 46.6997 63.9695 46.6997C73.5074 46.6997 81.2393 54.4317 81.2393 63.9695Z" fill="white"/>
<path d="M73.3896 63.9697C73.3896 69.1722 69.1722 73.3896 63.9697 73.3896C58.7672 73.3896 54.5498 69.1722 54.5498 63.9697C54.5498 58.7672 58.7672 54.5498 63.9697 54.5498C69.1722 54.5498 73.3896 58.7672 73.3896 63.9697Z" fill="#FFEA00"/>
<path d="M103.048 26.9955L92.2292 38.3728L98.9439 40.4248L109.762 29.0475L103.048 26.9955Z" fill="#65D1FF"/>
<path d="M97.3621 17.5049L86.5432 28.8818L88.9302 35.4848L99.7491 24.1079L97.3621 17.5049Z" fill="#65D1FF"/>
<path d="M100.96 22.54L101.135 22.3743C102.042 21.5979 103.407 21.6198 104.289 22.4616C105.172 23.3034 105.258 24.6659 104.525 25.6085L104.368 25.7911L81.3733 49.8954C80.4756 50.8365 78.9849 50.8717 78.0438 49.9739C77.1027 49.0762 77.0676 47.5855 77.9654 46.6444L100.96 22.54Z" fill="#15214B"/>
<path d="M41.9624 19.9304C41.9063 19.4166 41.4444 19.0455 40.9305 19.1015C40.4167 19.1576 40.0456 19.6196 40.1017 20.1334L41.2521 30.6774C41.3082 31.1913 41.7702 31.5624 42.284 31.5063C42.7978 31.4502 43.1689 30.9883 43.1128 30.4744L41.9624 19.9304Z" fill="#15214B"/>
<path d="M20.1946 38.5254C19.6842 38.4434 19.2041 38.7907 19.1221 39.301C19.0402 39.8114 19.3875 40.2915 19.8978 40.3735L30.3703 42.0552C30.8806 42.1371 31.3607 41.7898 31.4427 41.2795C31.5246 40.7692 31.1774 40.289 30.667 40.2071L20.1946 38.5254Z" fill="#15214B"/>
<path d="M29.0249 25.7042C28.6844 25.3152 28.0932 25.2759 27.7042 25.6163C27.3153 25.9568 27.276 26.548 27.6164 26.937L34.6021 34.9182C34.9425 35.3071 35.5338 35.3465 35.9227 35.006C36.3117 34.6656 36.351 34.0744 36.0106 33.6854L29.0249 25.7042Z" fill="#15214B"/>
</svg>
