<svg width="100" height="100" viewBox="0 0 100 100" fill="none" xmlns="http://www.w3.org/2000/svg">
<path d="M88.6343 22.0359C88.2674 21.6758 87.5994 21.4965 87.055 21.9666L86.1832 22.7203L80.1487 27.9342C79.8871 28.1602 79.7611 28.4537 79.7767 28.7567C79.7917 29.0454 79.933 29.2994 80.1186 29.4817C80.4855 29.842 81.1534 30.0214 81.6978 29.551L82.5701 28.7982L88.6042 23.5835C88.8655 23.3576 88.9912 23.065 88.9758 22.7623C88.9609 22.4734 88.8199 22.2183 88.6343 22.0359Z" fill="#121229" stroke="#121229" stroke-width="0.8"/>
<path d="M83.7046 38.1505C83.3596 38.124 83.0622 38.2407 82.8571 38.4639C82.6615 38.6769 82.5777 38.9549 82.5771 39.2153C82.5759 39.7299 82.9162 40.3331 83.6346 40.3887L84.7603 40.4751L92.735 41.0885C93.0798 41.1151 93.3765 40.9986 93.5816 40.7756C93.7774 40.5626 93.8618 40.2842 93.8624 40.0237C93.8636 39.509 93.5228 38.9061 92.8041 38.8508L91.6793 38.7639L83.7046 38.1505Z" fill="#121229" stroke="#121229" stroke-width="0.8"/>
<path d="M73.3488 14.5551C73.0573 14.5618 72.7791 14.6801 72.5718 14.8852C72.3722 15.083 72.2537 15.347 72.2366 15.6268L72.1129 16.7446L71.2403 24.6999L71.238 24.7215L71.2377 24.7443C71.2382 25.04 71.3558 25.3234 71.5637 25.5337C71.7717 25.7438 72.0542 25.8642 72.3499 25.868L72.3564 25.8676L72.3635 25.868C72.655 25.8613 72.9331 25.743 73.1404 25.5379C73.3405 25.3399 73.4591 25.0752 73.476 24.795L73.5988 23.6776L74.472 15.7232L74.4745 15.7003L74.4741 15.678C74.4735 15.3825 74.3571 15.0991 74.1493 14.889C73.9414 14.6788 73.6588 14.5584 73.3632 14.5546L73.3561 14.5542L73.3488 14.5551Z" fill="#121229" stroke="#121229" stroke-width="0.8"/>
<path fill-rule="evenodd" clip-rule="evenodd" d="M73.3452 48.5511C75.6898 66.8878 62.7096 83.5048 44.3505 85.6694C25.9913 87.834 9.2103 74.7261 6.86566 56.3894C4.52101 38.0526 17.5012 21.4357 35.8604 19.2711C54.2195 17.1065 71.0005 30.2144 73.3452 48.5511Z" fill="#FFEE33" stroke="#121229" stroke-width="3" stroke-linecap="round" stroke-linejoin="round"/>
<path d="M51.53 61.0009L37.6237 54.7228L35.4771 37.9062" stroke="#121229" stroke-width="4" stroke-linecap="round" stroke-linejoin="round"/>
</svg>
