<svg width="44" height="80" viewBox="0 0 44 80" fill="none" xmlns="http://www.w3.org/2000/svg">
<path d="M26.2641 0C30.9461 5.82418 30.0371 6.64636 33.8858 10.2157C34.9316 11.1654 35.7332 12.3564 36.2219 13.6866C36.6701 14.9564 36.947 16.2811 37.0454 17.6252C37.1446 19.0485 37.7391 20.3909 38.7242 21.416L43.8045 26.6322C43.8741 26.7033 43.9275 26.789 43.9608 26.8831C43.9941 26.9772 44.0065 27.0775 43.9972 27.177C43.9878 27.2765 43.957 27.3727 43.9069 27.4589C43.8567 27.5451 43.7884 27.6192 43.7068 27.6759L42.2259 28.7147C41.8427 28.9894 41.3741 29.1157 40.906 29.0705C40.4379 29.0252 40.0016 28.8116 39.6772 28.4686C37.5635 26.1694 32.9084 23.4173 30.9632 23.1933L29.0596 23.0604C27.8837 22.9798 26.7484 22.5946 25.7637 21.9421C24.779 21.2896 23.9783 20.3919 23.4393 19.336L22.2175 16.931C19.3609 22.3465 20.4361 26.8464 25.8292 30.3222C36.7204 37.9384 41.5197 44.8457 42.849 54.3943C43.3171 57.5486 43.2195 60.7618 42.5607 63.8814C40.4518 73.4152 33.5755 78.7101 22.2175 80.0246C14.1731 79.7735 7.08653 77.3735 2.86638 68.4846C0.620686 63.746 0.625573 58.1975 3.06431 53.5598C5.75231 48.4667 10.3488 45.6826 17.45 45.8697C23.1852 46.1036 27.8672 48.2132 30.0713 54.7315C30.911 57.095 30.9273 59.6759 30.1177 62.0499C28.6271 66.2199 25.0106 68.2359 19.6101 68.4501C27.5031 65.8605 29.4384 57.1267 23.3269 53.385C20.6022 51.721 17.2178 51.6964 14.3441 53.1069C12.1057 54.2097 10.3585 55.8516 9.57414 58.552C8.70251 61.6123 9.06557 64.8956 10.5844 67.6878C12.1032 70.4799 14.6549 72.5551 17.6846 73.4619C18.5629 73.7191 19.4626 73.8954 20.3725 73.9887C23.7425 74.3896 27.14 73.512 29.9027 71.5271C32.4563 69.6391 34.2719 66.9805 34.9659 63.1576C35.98 57.5648 35.1418 51.0957 31.2003 47.0365C22.7062 38.2215 11.7294 41.1213 1.20716 47.8316C-0.576693 41.4043 -1.03365 34.5217 4.45963 25.6008C5.80851 31.3019 7.07431 35.7968 9.34689 39.0067C9.46807 39.1894 9.64107 39.331 9.84333 39.4131C10.0456 39.4952 10.2677 39.514 10.4807 39.4671C11.4582 39.2209 11.5755 37.5716 9.92847 30.8022C9.19107 27.8455 8.94337 24.7864 9.19538 21.7484C9.82584 14.6097 13.0294 9.44029 22.76 5.94972C25.035 5.13985 26.0295 2.97855 26.2641 0Z" fill="#15214B"/>
</svg>
