<svg width="28" height="50" viewBox="0 0 28 50" fill="none" xmlns="http://www.w3.org/2000/svg">
<path d="M16.5359 0C19.4837 3.64011 18.9113 4.15397 21.3345 6.38481C21.9929 6.97839 22.4976 7.72275 22.8053 8.55411C23.0874 9.34776 23.2618 10.1757 23.3238 11.0157C23.3862 11.9053 23.7605 12.7443 24.3807 13.385L27.5793 16.6451C27.6231 16.6896 27.6567 16.7431 27.6777 16.8019C27.6986 16.8608 27.7064 16.9235 27.7006 16.9856C27.6947 17.0478 27.6753 17.1079 27.6437 17.1618C27.6121 17.2157 27.5691 17.262 27.5177 17.2975L26.5854 17.9467C26.3442 18.1184 26.0491 18.1973 25.7544 18.169C25.4597 18.1408 25.185 18.0072 24.9807 17.7929C23.6499 16.3559 20.7191 14.6358 19.4944 14.4958L18.2959 14.4128C17.5556 14.3624 16.8408 14.1216 16.2208 13.7138C15.6008 13.306 15.0967 12.7449 14.7574 12.085L13.9881 10.5819C12.1896 13.9666 12.8665 16.779 16.262 18.9514C23.1191 23.7115 26.1408 28.0286 26.9777 33.9964C27.2724 35.9678 27.211 37.9762 26.7962 39.9258C25.4684 45.8845 21.1391 49.1938 13.9881 50.0154C8.92333 49.8585 4.46165 48.3584 1.80465 42.8029C0.390756 39.8412 0.393834 36.3734 1.92927 33.4749C3.62163 30.2917 6.51556 28.5516 10.9865 28.6686C14.5973 28.8147 17.5451 30.1332 18.9329 34.2072C19.4615 35.6844 19.4718 37.2974 18.9621 38.7812C18.0236 41.3874 15.7466 42.6475 12.3465 42.7813C17.3159 41.1628 18.5344 35.7042 14.6866 33.3656C12.9711 32.3256 10.8403 32.3102 9.03102 33.1918C7.62175 33.881 6.52171 34.9072 6.02785 36.595C5.47907 38.5077 5.70765 40.5598 6.66389 42.3049C7.62013 44.0499 9.22669 45.3469 11.1342 45.9137C11.6872 46.0744 12.2536 46.1846 12.8265 46.243C14.9483 46.4935 17.0873 45.945 18.8267 44.7045C20.4345 43.5244 21.5776 41.8628 22.0145 39.4735C22.653 35.978 22.1253 31.9348 19.6437 29.3978C14.2958 23.8884 7.38482 25.7008 0.759999 29.8948C-0.363113 25.8777 -0.650814 21.5761 2.80775 16.0005C3.65701 19.5637 4.45396 22.373 5.88477 24.3792C5.96107 24.4934 6.06999 24.5819 6.19733 24.6332C6.32467 24.6845 6.46452 24.6963 6.59864 24.6669C7.21404 24.5131 7.28789 23.4823 6.25094 19.2514C5.78667 17.4034 5.63072 15.4915 5.78938 13.5927C6.18632 9.13105 8.2033 5.90018 14.3296 3.71858C15.762 3.21241 16.3882 1.8616 16.5359 0Z" fill="#436AF6"/>
</svg>
