<svg width="100" height="100" viewBox="0 0 100 100" fill="none" xmlns="http://www.w3.org/2000/svg">
<path d="M77.6439 13.1934C77.349 12.9029 76.8267 12.7683 76.4027 13.1356L75.5879 13.842L69.9477 18.7286C69.7407 18.908 69.6483 19.1319 69.6599 19.3579C69.6711 19.5768 69.7786 19.7755 69.9272 19.9219C70.2221 20.2124 70.7443 20.3471 71.1684 19.9797L71.9824 19.2738L77.6234 14.3867C77.8303 14.2073 77.9228 13.9833 77.9112 13.7574C77.9 13.5386 77.7924 13.3397 77.6439 13.1934Z" fill="#121229" stroke="#121229" stroke-width="0.4"/>
<path d="M73.1436 28.3451C72.8708 28.3242 72.6467 28.4158 72.4938 28.5825C72.3455 28.7443 72.2782 28.9612 72.2778 29.1702C72.2769 29.5848 72.5469 30.0515 73.1054 30.0948L74.1575 30.1763L81.6112 30.7507C81.8844 30.7718 82.1089 30.6797 82.2619 30.5128C82.41 30.351 82.4771 30.1353 82.4776 29.9264C82.4786 29.5116 82.2088 29.0449 81.65 29.0018L80.5978 28.9203L73.1436 28.3451Z" fill="#121229" stroke="#121229" stroke-width="0.4"/>
<path d="M63.4818 6.23219C63.2539 6.23754 63.0364 6.32944 62.8743 6.49025C62.7157 6.64759 62.6222 6.85878 62.6108 7.0817L62.4959 8.12879L61.6799 15.5848L61.6792 15.5954L61.679 15.6068C61.6795 15.8379 61.7707 16.0595 61.9328 16.2238C62.0949 16.388 62.3148 16.4822 62.5454 16.4852L62.5533 16.4852C62.7811 16.4798 62.9983 16.387 63.1603 16.2263C63.319 16.0689 63.4125 15.8578 63.4238 15.6348L63.5387 14.5877L64.3548 7.13171L64.3554 7.12116L64.3556 7.10976C64.3551 6.87862 64.2639 6.65709 64.1018 6.49279C63.9397 6.32856 63.7198 6.23425 63.4892 6.23131L63.4818 6.23219Z" fill="#121229" stroke="#121229" stroke-width="0.4"/>
<rect x="-1.37489" y="-1.11336" width="57.7708" height="57.8776" rx="11.25" transform="matrix(0.994603 -0.103753 0.105309 0.994439 4.12252 30.6312)" fill="white" stroke="#121229" stroke-width="2.5"/>
<path d="M46.1108 54.2302C44.9847 54.347 43.951 53.5071 43.8307 52.3774L43.4638 48.9332L40.0304 49.2892C38.9043 49.406 37.8706 48.5661 37.7503 47.4364C37.6299 46.3067 38.464 45.273 39.5902 45.1562L45.0836 44.5865C46.2098 44.4697 47.2434 45.3097 47.3638 46.4394L47.9508 51.9501C48.0711 53.0798 47.237 54.1134 46.1108 54.2302Z" fill="#01CFFD"/>
<path d="M22.2438 65.0765C21.7216 65.1307 21.1789 64.9918 20.7226 64.6209C19.8404 63.9039 19.6995 62.5802 20.4113 61.6979L28.266 51.9612C28.6588 51.4744 29.2124 51.1939 29.8504 51.1835C30.4609 51.1759 31.0458 51.4498 31.4588 51.9367L34.9361 56.1484L43.6499 45.3469C44.3617 44.4645 45.6809 44.3276 46.563 45.0447C47.4452 45.7617 47.5862 47.0854 46.8743 47.9677L36.565 60.7471C36.1723 61.2339 35.6186 61.5144 34.9807 61.5248C34.3702 61.5323 33.7853 61.2585 33.3722 60.7716L29.895 56.5598L23.6357 64.3187C23.2676 64.7751 22.7659 65.0223 22.2438 65.0765Z" fill="#01CFFD"/>
<circle cx="77.2333" cy="71.5254" r="18.2264" fill="#FFEC18" stroke="#121229" stroke-width="2"/>
<circle cx="77.4334" cy="71.7258" r="14.4211" stroke="#121229" stroke-width="2"/>
<circle cx="52.0494" cy="79.9201" r="17.414" fill="#FFEC18" stroke="#121229" stroke-width="2"/>
<circle cx="52.2414" cy="80.1118" r="13.7695" stroke="#121229" stroke-width="2"/>
</svg>
