<svg width="200" height="200" viewBox="0 0 200 200" fill="none" xmlns="http://www.w3.org/2000/svg">
<path d="M155.024 25.5517C154.43 24.9664 153.379 24.6959 152.525 25.4359L150.881 26.8605L139.497 36.7227L139.352 36.862C139.037 37.1967 138.898 37.5917 138.918 37.9898C138.941 38.4305 139.157 38.8311 139.457 39.126C140.014 39.6745 140.972 39.9465 141.794 39.3686L141.956 39.2418L143.599 37.8176L154.972 27.9631L154.983 27.9541C155.4 27.5927 155.585 27.1418 155.562 26.687C155.539 26.2465 155.324 25.8465 155.024 25.5517Z" fill="#121229" stroke="#121229" stroke-width="0.8"/>
<path d="M145.744 56.1258C145.285 56.1373 144.906 56.3153 144.637 56.6091C144.338 56.9349 144.203 57.3706 144.202 57.7917C144.2 58.5752 144.678 59.4501 145.665 59.628L145.869 59.6541L147.992 59.8186L163.035 60.9793L163.036 60.9779C163.586 61.0203 164.037 60.8358 164.345 60.4999C164.643 60.1743 164.778 59.7395 164.779 59.3187C164.781 58.4829 164.237 57.5417 163.112 57.4549L160.989 57.2917L145.946 56.1311L145.744 56.1258Z" fill="#121229" stroke="#121229" stroke-width="0.8"/>
<path d="M126.276 11.5147C125.88 11.5619 125.509 11.7404 125.223 12.0241C124.903 12.341 124.715 12.7657 124.692 13.2146L124.461 15.3278L122.814 30.3747L122.811 30.3968L122.812 30.4191C122.813 30.8848 122.996 31.3316 123.323 31.6625C123.649 31.9934 124.093 32.182 124.557 32.188L124.564 32.1884L124.571 32.1875C125.031 32.1769 125.468 31.9905 125.795 31.6665C126.115 31.3495 126.304 30.9247 126.326 30.4755L126.558 28.3624L128.204 13.3154L128.207 13.2938L128.207 13.271C128.206 12.8056 128.022 12.3598 127.696 12.0289C127.369 11.698 126.925 11.5086 126.461 11.5026L126.454 11.5022L126.447 11.5026L126.276 11.5147Z" fill="#121229" stroke="#121229" stroke-width="0.8"/>
<rect x="-1.92484" y="-1.5587" width="115.044" height="115.26" rx="25.75" transform="matrix(0.994603 -0.103753 0.105308 0.994439 6.58198 60.8326)" fill="white" stroke="#121229" stroke-width="3.5"/>
<path d="M91.3884 108.367C89.1157 108.603 87.0296 106.908 86.7867 104.628L86.0463 97.6771L79.1172 98.3957C76.8445 98.6314 74.7584 96.9363 74.5155 94.6564C74.2727 92.3765 75.956 90.2904 78.2287 90.0547L89.3153 88.9049C91.588 88.6692 93.6741 90.3644 93.917 92.6443L95.1016 103.766C95.3445 106.046 93.6611 108.132 91.3884 108.367Z" fill="#65D1FF"/>
<path d="M43.2213 130.257C42.1675 130.366 41.0722 130.086 40.1513 129.337C38.371 127.89 38.0865 125.219 39.5231 123.438L55.3751 103.788C56.1677 102.806 57.285 102.24 58.5726 102.219C59.8046 102.203 60.985 102.756 61.8187 103.739L68.8362 112.239L86.422 90.4395C87.8586 88.6587 90.5208 88.3825 92.3012 89.8296C94.0815 91.2767 94.366 93.948 92.9294 95.7287L72.1236 121.519C71.331 122.502 70.2137 123.068 68.9262 123.089C67.6941 123.104 66.5137 122.551 65.6801 121.569L58.6626 113.069L46.0305 128.727C45.2875 129.649 44.2751 130.147 43.2213 130.257Z" fill="#65D1FF"/>
<circle cx="154.198" cy="143.271" r="37.3016" fill="#FFEC18" stroke="#121229" stroke-width="3"/>
<circle cx="154.602" cy="143.676" r="29.6222" stroke="#121229" stroke-width="3"/>
<circle cx="103.374" cy="160.213" r="35.6621" fill="#FFEC18" stroke="#121229" stroke-width="3"/>
<circle cx="103.761" cy="160.6" r="28.3071" stroke="#121229" stroke-width="3"/>
</svg>
