<svg width="200" height="200" viewBox="0 0 200 200" fill="none" xmlns="http://www.w3.org/2000/svg">
<path d="M155.025 25.5517C154.431 24.9664 153.379 24.6959 152.525 25.4359L150.881 26.8605L139.498 36.7227C139.081 37.0841 138.896 37.535 138.919 37.9898C138.942 38.4305 139.158 38.8311 139.457 39.126C140.051 39.711 141.103 39.9817 141.957 39.2418L143.6 37.8176L154.972 27.9631L154.984 27.9541C155.401 27.5927 155.586 27.1418 155.562 26.687C155.54 26.2465 155.324 25.8465 155.025 25.5517Z" fill="#121229" stroke="#121229" stroke-width="0.8"/>
<path d="M145.946 56.1311C145.396 56.0887 144.945 56.2734 144.637 56.6091C144.339 56.9349 144.203 57.3706 144.202 57.7917C144.201 58.6274 144.744 59.5673 145.87 59.6541L147.993 59.8186L163.036 60.9793L163.036 60.9779C163.586 61.0203 164.037 60.8358 164.345 60.4999C164.643 60.1743 164.778 59.7395 164.78 59.3187C164.781 58.4829 164.238 57.5417 163.112 57.4549L160.989 57.2917L145.946 56.1311Z" fill="#121229" stroke="#121229" stroke-width="0.8"/>
<path d="M126.448 11.5026C125.988 11.5133 125.55 11.7 125.223 12.0241C124.904 12.341 124.716 12.7657 124.693 13.2146L124.462 15.3278L122.815 30.3747L122.812 30.3968L122.812 30.4191C122.813 30.8848 122.997 31.3316 123.323 31.6625C123.65 31.9934 124.093 32.182 124.558 32.188L124.565 32.1884L124.572 32.1875C125.031 32.1769 125.469 31.9905 125.795 31.6665C126.115 31.3495 126.304 30.9247 126.327 30.4755L126.558 28.3624L128.205 13.3154L128.207 13.2938L128.207 13.271C128.206 12.8056 128.023 12.3598 127.696 12.0289C127.37 11.698 126.926 11.5086 126.461 11.5026L126.454 11.5022L126.448 11.5026Z" fill="#121229" stroke="#121229" stroke-width="0.8"/>
<rect x="-1.92484" y="-1.5587" width="115.044" height="115.26" rx="25.75" transform="matrix(0.994603 -0.103753 0.105308 0.994439 6.58247 60.8326)" fill="white" stroke="#121229" stroke-width="3.5"/>
<path d="M91.3894 108.367C89.1166 108.603 87.0305 106.908 86.7877 104.628L86.0473 97.6771L79.1182 98.3957C76.8455 98.6314 74.7594 96.9363 74.5165 94.6564C74.2737 92.3765 75.957 90.2904 78.2297 90.0547L89.3162 88.9049C91.589 88.6692 93.6751 90.3644 93.9179 92.6443L95.1026 103.766C95.3454 106.046 93.6621 108.132 91.3894 108.367Z" fill="#01CFFD"/>
<path d="M43.2223 130.257C42.1685 130.366 41.0732 130.086 40.1523 129.337C38.372 127.89 38.0875 125.219 39.5241 123.438L55.3761 103.788C56.1687 102.806 57.286 102.24 58.5735 102.219C59.8056 102.203 60.986 102.756 61.8196 103.739L68.8372 112.239L86.4229 90.4395C87.8595 88.6587 90.5218 88.3825 92.3021 89.8296C94.0825 91.2767 94.3669 93.948 92.9303 95.7287L72.1246 121.519C71.332 122.502 70.2147 123.068 68.9272 123.089C67.6951 123.104 66.5147 122.551 65.6811 121.569L58.6635 113.069L46.0315 128.727C45.2884 129.649 44.2761 130.147 43.2223 130.257Z" fill="#01CFFD"/>
<circle cx="154.199" cy="143.271" r="37.3016" fill="#FFEC18" stroke="#121229" stroke-width="3"/>
<circle cx="154.603" cy="143.676" r="29.6222" stroke="#121229" stroke-width="3"/>
<circle cx="103.374" cy="160.213" r="35.6621" fill="#FFEC18" stroke="#121229" stroke-width="3"/>
<circle cx="103.761" cy="160.6" r="28.3071" stroke="#121229" stroke-width="3"/>
</svg>
