<svg width="200" height="200" viewBox="0 0 200 200" fill="none" xmlns="http://www.w3.org/2000/svg">
<path d="M155.025 25.5518C154.431 24.9665 153.379 24.696 152.525 25.436L150.881 26.8606L139.498 36.7228C139.081 37.0842 138.896 37.5351 138.919 37.9899C138.942 38.4306 139.158 38.8312 139.457 39.1261C140.051 39.7111 141.103 39.9818 141.957 39.2419L143.6 37.8177L154.972 27.9632L154.984 27.9542C155.401 27.5928 155.586 27.1419 155.562 26.6871C155.54 26.2466 155.324 25.8466 155.025 25.5518Z" fill="#121229" stroke="#121229" stroke-width="0.8"/>
<path d="M145.946 56.131C145.396 56.0886 144.945 56.2733 144.637 56.609C144.339 56.9348 144.203 57.3705 144.202 57.7916C144.201 58.6273 144.744 59.5672 145.87 59.654L147.993 59.8185L163.036 60.9792V60.9778C163.586 61.0202 164.037 60.8357 164.345 60.4998C164.643 60.1742 164.778 59.7394 164.78 59.3186C164.781 58.4828 164.238 57.5416 163.112 57.4548L160.989 57.2916L145.946 56.131Z" fill="#121229" stroke="#121229" stroke-width="0.8"/>
<path d="M126.448 11.5026C125.988 11.5133 125.55 11.7 125.223 12.0241C124.904 12.341 124.716 12.7657 124.693 13.2146L124.462 15.3278L122.815 30.3747L122.812 30.3968V30.4191C122.813 30.8848 122.997 31.3316 123.323 31.6625C123.65 31.9934 124.093 32.182 124.558 32.188L124.565 32.1884L124.572 32.1875C125.031 32.1769 125.469 31.9905 125.795 31.6665C126.115 31.3495 126.304 30.9247 126.327 30.4755L126.558 28.3624L128.205 13.3154L128.207 13.2938V13.271C128.206 12.8056 128.023 12.3598 127.696 12.0289C127.37 11.698 126.926 11.5086 126.461 11.5026L126.454 11.5022L126.448 11.5026Z" fill="#121229" stroke="#121229" stroke-width="0.8"/>
<path d="M93.316 50.2177L30.1149 56.8105C15.9704 58.286 5.71797 70.9467 7.21559 85.089L13.93 148.494C15.4276 162.637 28.1082 172.905 42.2527 171.43L105.454 164.837C119.598 163.361 129.851 150.701 128.353 136.558L121.639 73.1528C120.141 59.0106 107.461 48.7422 93.316 50.2177Z" fill="white" stroke="#121229" stroke-width="3.5"/>
<path d="M91.3894 108.367C89.1166 108.603 87.0305 106.908 86.7877 104.628L86.0473 97.6772L79.1182 98.3958C76.8455 98.6315 74.7594 96.9364 74.5165 94.6565C74.2737 92.3766 75.957 90.2905 78.2297 90.0548L89.3162 88.905C91.589 88.6693 93.6751 90.3645 93.9179 92.6444L95.1026 103.766C95.3454 106.046 93.6621 108.132 91.3894 108.367Z" fill="#01CFFD"/>
<path d="M43.2221 130.257C42.1683 130.366 41.073 130.086 40.1521 129.337C38.3718 127.89 38.0873 125.219 39.5239 123.438L55.3759 103.788C56.1685 102.806 57.2858 102.24 58.5733 102.219C59.8054 102.203 60.9858 102.756 61.8194 103.739L68.837 112.239L86.4227 90.4395C87.8593 88.6587 90.5216 88.3825 92.3019 89.8296C94.0823 91.2767 94.3667 93.948 92.9301 95.7287L72.1244 121.519C71.3318 122.502 70.2145 123.068 68.927 123.089C67.6949 123.104 66.5145 122.551 65.6809 121.569L58.6633 113.069L46.0313 128.727C45.2882 129.649 44.2759 130.147 43.2221 130.257Z" fill="#01CFFD"/>
<path d="M154.199 180.573C174.8 180.573 191.501 163.872 191.501 143.271C191.501 122.67 174.8 105.969 154.199 105.969C133.598 105.969 116.897 122.67 116.897 143.271C116.897 163.872 133.598 180.573 154.199 180.573Z" fill="#FFEE33" stroke="#121229" stroke-width="3"/>
<path d="M154.603 173.298C170.963 173.298 184.225 160.036 184.225 143.676C184.225 127.316 170.963 114.054 154.603 114.054C138.243 114.054 124.981 127.316 124.981 143.676C124.981 160.036 138.243 173.298 154.603 173.298Z" stroke="#121229" stroke-width="3"/>
<path d="M103.374 195.875C123.07 195.875 139.036 179.909 139.036 160.213C139.036 140.517 123.07 124.551 103.374 124.551C83.6784 124.551 67.7119 140.517 67.7119 160.213C67.7119 179.909 83.6784 195.875 103.374 195.875Z" fill="#FFEE33" stroke="#121229" stroke-width="3"/>
<path d="M103.761 188.907C119.395 188.907 132.068 176.234 132.068 160.6C132.068 144.967 119.395 132.293 103.761 132.293C88.1276 132.293 75.4541 144.967 75.4541 160.6C75.4541 176.234 88.1276 188.907 103.761 188.907Z" stroke="#121229" stroke-width="3"/>
</svg>
