<svg width="100" height="100" viewBox="0 0 100 100" fill="none" xmlns="http://www.w3.org/2000/svg">
<path d="M98.8927 73.542C98.9626 73.066 98.7309 72.4889 98.1012 72.3428L96.8418 72.0516L88.1251 70.033C87.8163 69.9615 87.5474 70.0283 87.3473 70.1908C87.1527 70.3489 87.0398 70.5834 87.0046 70.823C86.9347 71.2991 87.167 71.8766 87.797 72.0225L89.0564 72.3138L97.7523 74.3263L97.754 74.3271L97.7726 74.331C98.0814 74.4025 98.3512 74.3362 98.5513 74.1737C98.7456 74.0157 98.8575 73.7812 98.8927 73.542Z" fill="#121229" stroke="#121229" stroke-width="0.4"/>
<path d="M81.0658 79.902C80.8987 79.6319 80.6613 79.4869 80.4048 79.4579C80.1553 79.4298 79.9087 79.5136 79.7128 79.6558C79.3234 79.9388 79.0747 80.5084 79.4148 81.0585L80.0807 82.1359L84.801 89.7674C84.968 90.0374 85.2047 90.1822 85.4611 90.2111C85.7107 90.2393 85.9571 90.1556 86.1531 90.0132C86.5426 89.7302 86.7915 89.1608 86.4511 88.6106L85.7852 87.5332L81.0658 79.902Z" fill="#121229" stroke="#121229" stroke-width="0.4"/>
<path d="M95.608 54.9301C95.4477 54.7209 95.2128 54.5807 94.9526 54.5386C94.6975 54.4975 94.4366 54.5537 94.2211 54.6956L93.1275 55.3234L85.3421 59.7951L85.3323 59.8004L85.3238 59.8073C85.109 59.9648 84.9649 60.2008 84.9224 60.4637C84.8799 60.7267 84.9416 60.9961 85.0959 61.2133L85.101 61.2187C85.2613 61.4279 85.4954 61.5677 85.7556 61.6097C86.0107 61.6509 86.2714 61.5947 86.4871 61.4528L87.5807 60.825L94.8365 56.6572L94.7804 56.784L95.3852 56.3414C95.6 56.184 95.7441 55.948 95.7866 55.685C95.8291 55.422 95.7666 55.1523 95.6122 54.9351L95.608 54.9301Z" fill="#121229" stroke="#121229" stroke-width="0.4"/>
<rect x="1.44359" y="1.02539" width="62.6525" height="61.8719" rx="8.75" transform="matrix(0.986228 -0.165365 0.168644 0.985673 0.908234 21.0271)" fill="white" stroke="#121229" stroke-width="2.5"/>
<path d="M14.1453 31.4593L18.0902 30.7983C18.6349 30.707 19.152 31.0743 19.2452 31.6186L25.5008 68.1559C25.594 68.7003 25.228 69.2155 24.6833 69.3068L20.7383 69.9679C20.1937 70.0591 19.6766 69.6919 19.5834 69.1475L13.3278 32.6102C13.2346 32.0659 13.6006 31.5506 14.1453 31.4593Z" fill="#FFF799" stroke="#121229" stroke-width="2"/>
<path d="M28.4465 34.4515L32.3915 33.7911C32.9362 33.6999 33.4534 34.0672 33.5467 34.6116L38.9061 65.8858C38.9994 66.4302 38.6334 66.9454 38.0887 67.0366L34.1437 67.697C33.599 67.7882 33.0818 67.4209 32.9885 66.8765L27.6291 35.6023C27.5358 35.0579 27.9018 34.5427 28.4465 34.4515Z" fill="#FFEE33" stroke="#121229" stroke-width="2"/>
<path d="M43.2235 40.2524L47.1687 39.5927C47.7134 39.5016 48.2307 39.869 48.3241 40.4134L52.3048 63.6161C52.3981 64.1604 52.0323 64.6756 51.4876 64.7667L47.5424 65.4264C46.9978 65.5175 46.4805 65.15 46.3871 64.6057L42.4063 41.4029L42.3937 41.3011C42.3591 40.7957 42.7129 40.3378 43.2235 40.2524Z" fill="#FFF799" stroke="#121229" stroke-width="2"/>
<path d="M57.7923 44.8248L61.7376 44.166C62.2823 44.075 62.7997 44.4425 62.8932 44.9868L65.7038 61.3467C65.7972 61.8909 65.4314 62.406 64.8868 62.4969L60.9414 63.1558C60.3968 63.2467 59.8794 62.8791 59.7858 62.3349L56.9752 45.9751C56.8817 45.4308 57.2475 44.9158 57.7923 44.8248Z" fill="#FFEE33" stroke="#121229" stroke-width="2"/>
</svg>
