<svg width="82" height="80" viewBox="0 0 82 80" fill="none" xmlns="http://www.w3.org/2000/svg">
<path d="M29.4785 44.9948H4.31749C3.50394 44.9948 2.72371 44.6716 2.14845 44.0964C1.57318 43.5211 1.25 42.7409 1.25 41.9273V22.9013C1.25 21.2742 1.89636 19.7138 3.0469 18.5633C4.19743 17.4127 5.75789 16.7664 7.38498 16.7664H65.683C67.3104 16.7664 68.8712 17.4126 70.0222 18.5631C71.1732 19.7135 71.8203 21.274 71.8211 22.9013V41.9273C71.8211 42.7409 71.498 43.5211 70.9227 44.0964C70.3474 44.6716 69.5672 44.9948 68.7536 44.9948H43.5927" fill="#B3F1FE"/>
<path d="M29.4785 44.9948H4.31749C3.50394 44.9948 2.72371 44.6716 2.14845 44.0964C1.57318 43.5211 1.25 42.7409 1.25 41.9273V22.9013C1.25 21.2742 1.89636 19.7138 3.0469 18.5633C4.19743 17.4127 5.75789 16.7664 7.38498 16.7664H65.683C67.3104 16.7664 68.8712 17.4126 70.0222 18.5631C71.1732 19.7135 71.8203 21.274 71.8211 22.9013V41.9273C71.8211 42.7409 71.498 43.5211 70.9227 44.0964C70.3474 44.6716 69.5672 44.9948 68.7536 44.9948H43.5927" stroke="#121229" stroke-width="2.5" stroke-linecap="round" stroke-linejoin="round"/>
<path d="M50.6503 16.7664H22.4219V13.8244C22.5029 11.408 23.5391 9.1224 25.3031 7.46896C27.067 5.81553 29.4148 4.92925 31.8314 5.00453H41.2408C43.6576 4.92841 46.0059 5.81441 47.77 7.46802C49.5342 9.12163 50.5701 11.4077 50.6503 13.8244V16.7664Z" stroke="#121229" stroke-width="2.5" stroke-linecap="round" stroke-linejoin="round"/>
<path d="M67.1137 46.2646L70.9841 70.1553C71.0873 70.8261 71.0441 71.5113 70.8575 72.1638C70.6709 72.8163 70.3454 73.4208 69.9032 73.9356C69.4611 74.4505 68.9127 74.8636 68.2959 75.1466C67.679 75.4296 67.0082 75.5758 66.3296 75.5752H6.73616C6.05801 75.5749 5.38793 75.4281 4.77183 75.1447C4.15574 74.8613 3.6082 74.448 3.16671 73.9333C2.72523 73.4185 2.40025 72.8144 2.21404 72.1623C2.02783 71.5102 1.98479 70.8256 2.08787 70.1553L5.95203 46.2646" fill="white"/>
<path d="M67.1137 46.2646L70.9841 70.1553C71.0873 70.8261 71.0441 71.5113 70.8575 72.1638C70.6709 72.8163 70.3454 73.4208 69.9032 73.9356C69.4611 74.4505 68.9127 74.8636 68.2959 75.1466C67.679 75.4296 67.0082 75.5758 66.3296 75.5752H6.73616C6.05801 75.5749 5.38793 75.4281 4.77183 75.1447C4.15574 74.8613 3.6082 74.448 3.16671 73.9333C2.72523 73.4185 2.40025 72.8144 2.21404 72.1623C2.02783 71.5102 1.98479 70.8256 2.08787 70.1553L5.95203 46.2646" stroke="#121229" stroke-width="2.5" stroke-linecap="round" stroke-linejoin="round"/>
<path d="M31.8309 35.5854C31.207 35.5854 30.6087 35.8333 30.1675 36.2744C29.7264 36.7156 29.4785 37.3139 29.4785 37.9378V44.9949C29.4785 46.8666 30.222 48.6616 31.5455 49.9851C32.869 51.3085 34.664 52.052 36.5356 52.052C38.4073 52.052 40.2023 51.3085 41.5258 49.9851C42.8492 48.6616 43.5927 46.8666 43.5927 44.9949V37.9378C43.5927 37.3139 43.3449 36.7156 42.9037 36.2744C42.4626 35.8333 41.8643 35.5854 41.2404 35.5854H31.8309Z" fill="white" stroke="#121229" stroke-width="2.5" stroke-linecap="round" stroke-linejoin="round"/>
</svg>
