<svg width="100" height="100" viewBox="0 0 100 100" fill="none" xmlns="http://www.w3.org/2000/svg">
<g clip-path="url(#clip0_1217_332)">
<path d="M24.0212 28.6969L16.2037 29.2175C13.3966 29.4044 10.9506 27.3262 10.7691 24.6001C10.5875 21.874 12.7364 19.4898 15.5435 19.3029L23.361 18.7823C26.168 18.5953 28.614 20.6735 28.7956 23.3996C28.9771 26.1258 26.8283 28.5099 24.0212 28.6969Z" fill="white"/>
<path d="M24.0352 29.6012L16.3097 30.1157C12.9699 30.3381 10.083 27.8932 9.86769 24.6601C9.65238 21.427 12.1896 18.6209 15.5293 18.3985L23.2549 17.884C26.5946 17.6616 29.4815 20.1065 29.6968 23.3396C29.9122 26.5727 27.3749 29.3788 24.0352 29.6012ZM15.6592 20.3489C13.4353 20.497 11.739 22.373 11.8824 24.526C12.0258 26.6789 13.9559 28.3134 16.1798 28.1653L23.9053 27.6509C26.1292 27.5028 27.8255 25.6267 27.6822 23.4738C27.5388 21.3209 25.6087 19.6863 23.3848 19.8344L15.6592 20.3489Z" fill="#121229"/>
<path d="M72.6957 75.2482L11.0856 79.3511C7.43543 79.5942 4.28866 76.8322 4.04601 73.1886L1.26388 31.4119C1.02072 27.7605 3.78175 24.6129 7.42418 24.3703L69.0342 20.2674C72.6844 20.0243 75.8312 22.7863 76.0738 26.4299L78.856 68.2066C79.0986 71.8502 76.3459 75.0051 72.6957 75.2482Z" fill="white"/>
<path d="M72.667 76.1554L11.2342 80.2465C7.0512 80.5251 3.41758 77.3474 3.1392 73.1674L0.367889 31.5531C0.0895181 27.373 3.26969 23.7416 7.45266 23.4631L68.8855 19.3719C73.0685 19.0934 76.7021 22.271 76.9805 26.451L79.7518 68.0654C80.0302 72.2454 76.85 75.8768 72.667 76.1554ZM7.58642 25.4716C4.51322 25.6763 2.18061 28.3399 2.38513 31.4109L5.15696 73.033C5.36148 76.1041 8.02669 78.4348 11.0999 78.2302L72.5328 74.139C75.606 73.9344 77.9386 71.2708 77.7341 68.1997L74.9627 26.5854C74.7582 23.5144 72.093 21.1836 69.0198 21.3883L7.58693 25.4794L7.58642 25.4716Z" fill="#121229"/>
<path d="M2.26465 46.4414L77.0746 41.4594L78.5152 63.0912L3.70522 68.0732L2.26465 46.4414Z" fill="#FFEC18"/>
<path d="M79.4769 63.9325L2.86433 69.0345L1.30371 45.6001L77.9163 40.4981L79.4769 63.9325ZM4.74823 66.8933L77.3257 62.06L76.0324 42.6393L3.45491 47.4726L4.74823 66.8933Z" fill="#121229"/>
<path d="M23.6851 55.4262C23.9797 59.8486 26.0189 63.9728 29.3542 66.8916C32.6895 69.8105 37.0477 71.2848 41.4701 70.9903C45.8925 70.6958 50.0167 68.6566 52.9355 65.3212C55.8543 61.9859 57.3287 57.6277 57.0342 53.2053C56.7397 48.783 54.7004 44.6587 51.3651 41.7399C48.0298 38.8211 43.6716 37.3468 39.2492 37.6413C34.8269 37.9358 30.7026 39.975 27.7838 43.3103C24.865 46.6456 23.3906 51.0039 23.6851 55.4262Z" fill="white"/>
<path d="M41.5305 71.8916C36.8343 72.2043 32.2973 70.6729 28.7605 67.5705C25.216 64.4685 23.097 60.1825 22.7842 55.4862C22.4715 50.79 24.0029 46.253 27.1054 42.7162C30.2073 39.1717 34.4934 37.0527 39.1896 36.7399C43.8859 36.4272 48.4228 37.9586 51.9596 41.0611C55.5042 44.163 57.6232 48.449 57.9359 53.1453C58.2486 57.8416 56.7172 62.3785 53.6148 65.9153C50.5206 69.4594 46.2268 71.5789 41.5305 71.8916ZM39.3247 38.7682C30.7513 39.3392 24.2416 46.7778 24.8125 55.3512C25.3835 63.9245 32.8221 70.4343 41.3955 69.8633C49.9688 69.2924 56.4786 61.8538 55.9076 53.2804C55.3367 44.707 47.8981 38.1973 39.3247 38.7682Z" fill="#121229"/>
<path d="M29.0936 55.0659C29.2926 58.054 30.6704 60.8406 32.924 62.8128C35.1776 64.785 38.1223 65.7811 41.1104 65.5821C44.0985 65.3831 46.8851 64.0053 48.8573 61.7517C50.8295 59.4981 51.8257 56.5534 51.6267 53.5653C51.4277 50.5772 50.0498 47.7906 47.7962 45.8184C45.5426 43.8462 42.5979 42.85 39.6098 43.049C36.6217 43.248 33.8351 44.6259 31.8629 46.8795C29.8907 49.1331 28.8946 52.0778 29.0936 55.0659Z" fill="#FFEC18"/>
<path d="M41.1664 66.484C34.4602 66.9306 28.6389 61.8346 28.1922 55.1261C27.7454 48.4177 32.8395 42.5948 39.5458 42.1482C46.2521 41.7016 52.0807 46.7892 52.5274 53.4976C52.9742 60.2061 47.8806 66.0368 41.1664 66.484ZM39.6813 44.1827C34.098 44.5545 29.8614 49.3972 30.2334 54.9823C30.6053 60.5674 35.4471 64.8134 41.0304 64.4416C46.6138 64.0698 50.8503 59.2271 50.4784 53.642C50.1064 48.0569 45.2646 43.8109 39.6813 44.1827Z" fill="#121229"/>
<path d="M66.8452 30.3715L60.5065 30.7936C59.2789 30.8753 58.2001 29.925 58.1178 28.6893C58.0355 27.4537 58.9788 26.3687 60.2064 26.287L66.5451 25.8648C67.7727 25.7831 68.8514 26.7334 68.9337 27.9691C69.016 29.2047 68.0808 30.2892 66.8452 30.3715Z" fill="#FFEC18"/>
<path d="M66.836 31.2777L60.6366 31.6905C58.8709 31.8081 57.333 30.4928 57.2169 28.7496C57.1008 27.0065 58.4429 25.4993 60.2164 25.3812L66.4158 24.9684C68.1815 24.8508 69.7194 26.1661 69.8355 27.9093C69.9516 29.6524 68.6095 31.1595 66.836 31.2777ZM60.35 27.3866C59.7065 27.4295 59.2151 27.9813 59.2572 28.6137C59.2994 29.2462 59.8595 29.728 60.503 29.6851L66.7024 29.2723C67.3459 29.2294 67.8373 28.6776 67.7952 28.0451C67.753 27.4127 67.1928 26.9309 66.5494 26.9738L60.35 27.3866Z" fill="#121229"/>
<path d="M92.4365 7.94878C92.0882 7.60702 91.4518 7.435 90.9327 7.88328L90.1237 8.58156L84.5276 13.4182L84.4395 13.5018C84.25 13.7034 84.1597 13.9497 84.1727 14.2038C84.187 14.4803 84.3214 14.7225 84.4977 14.8957C84.846 15.2378 85.4828 15.4106 86.002 14.9621L86.8106 14.263L92.4071 9.42717C92.6558 9.21228 92.7768 8.93197 92.762 8.64152C92.7478 8.36502 92.6128 8.122 92.4365 7.94878Z" fill="#121229" stroke="#121229" stroke-width="0.8"/>
<path d="M87.8461 22.8864C87.518 22.8612 87.2338 22.9726 87.0372 23.1866C86.8498 23.3904 86.7706 23.656 86.77 23.9035C86.769 24.3921 87.0928 24.9681 87.7782 25.0208L88.8212 25.1008L96.2179 25.6701C96.546 25.6954 96.8302 25.584 97.0268 25.37C97.2141 25.1661 97.2934 24.9005 97.294 24.6531C97.295 24.1645 96.9712 23.5885 96.2858 23.5358L95.2428 23.4557L87.8461 22.8864Z" fill="#121229" stroke="#121229" stroke-width="0.8"/>
<path d="M78.2379 1.00203C77.9603 1.00856 77.6956 1.12105 77.4981 1.31638C77.3078 1.50473 77.1951 1.75635 77.1787 2.02289L77.0641 3.05881L76.2544 10.4376L76.2522 10.4592L76.2518 10.4819C76.2525 10.7636 76.3641 11.0339 76.5621 11.2342C76.7604 11.4346 77.03 11.5488 77.3119 11.5524L77.3189 11.5528L77.3263 11.5519C77.604 11.5454 77.8691 11.4338 78.0666 11.2384C78.2568 11.0502 78.3695 10.7983 78.386 10.5319L78.5001 9.49514L79.3103 2.11721L79.312 2.09479L79.3115 2.07251C79.3109 1.79069 79.2003 1.52011 79.0021 1.31974C78.8038 1.1194 78.5342 1.00518 78.2523 1.0016L78.2458 1.00199L78.2379 1.00203Z" fill="#121229" stroke="#121229" stroke-width="0.8"/>
</g>
<defs>
<clipPath id="clip0_1217_332">
<rect width="100" height="100" fill="white"/>
</clipPath>
</defs>
</svg>
