<svg width="111" height="110" viewBox="0 0 111 110" fill="none" xmlns="http://www.w3.org/2000/svg">
<path d="M110.759 35.623C110.631 35.1551 110.186 34.7123 109.547 34.8359L108.275 35.083L99.4683 36.792C99.1554 36.8527 98.9357 37.0248 98.8188 37.2568C98.7052 37.4824 98.6976 37.7455 98.7622 37.9814C98.8904 38.4494 99.3357 38.8912 99.9741 38.7676H99.9751L101.247 38.5215L110.033 36.8164H110.035L110.054 36.8125C110.367 36.7518 110.586 36.5795 110.703 36.3477C110.816 36.1221 110.824 35.859 110.759 35.623Z" fill="#121229" stroke="#121229" stroke-width="0.4"/>
<path d="M97.0005 48.865C96.7379 48.6828 96.4609 48.6456 96.2134 48.7244C95.9729 48.801 95.781 48.9801 95.6597 49.1921C95.4188 49.613 95.4211 50.2415 95.9546 50.6121L97.0024 51.3396L104.422 56.49C104.685 56.6723 104.961 56.7102 105.208 56.6316C105.449 56.555 105.642 56.3759 105.763 56.1638C106.004 55.743 106.002 55.1145 105.468 54.7439L104.42 54.0164L97.0005 48.865Z" fill="#121229" stroke="#121229" stroke-width="0.4"/>
<path d="M100.114 19.6362C99.9033 19.5445 99.6665 19.5259 99.4424 19.5854C99.1912 19.6523 98.9755 19.8128 98.8359 20.0327L98.0879 21.0659L92.7656 28.4224L92.7598 28.4312L92.7539 28.4409C92.6216 28.6745 92.5851 28.9512 92.6523 29.2114C92.7197 29.4717 92.8858 29.6951 93.1152 29.8335L93.1211 29.8374C93.3531 29.966 93.6257 30.0002 93.8818 29.9321C94.1378 29.864 94.3578 29.6995 94.4971 29.4731V29.4722L95.2363 28.4526L100.196 21.5962V21.7368L100.57 21.0776C100.703 20.8439 100.739 20.5665 100.672 20.3062C100.604 20.0459 100.438 19.8224 100.209 19.6841L100.203 19.6802L100.114 19.6362Z" fill="#121229" stroke="#121229" stroke-width="0.4"/>
<path d="M15.8626 62.5362L20.8299 76.9243L21.6612 88.0144C21.6953 88.47 21.8248 88.9133 22.0413 89.3156C22.2578 89.7179 22.5565 90.0701 22.9179 90.3496C23.2793 90.629 23.6955 90.8293 24.1393 90.9375C24.5832 91.0458 25.0448 91.0595 25.4943 90.9778C26.2839 90.8343 26.9928 90.4047 27.4852 89.7711C27.9777 89.1375 28.2191 88.3444 28.1632 87.5439L26.311 60.9946" fill="#121229"/>
<path d="M16.3578 62.3996L17.885 66.8232L20.4763 74.3291L21.2381 76.5358C21.3315 76.8547 21.3819 77.1847 21.3879 77.517L21.9348 84.8117L22.1504 87.6869C22.2387 88.8636 22.8016 89.9418 23.981 90.3561C24.405 90.5014 24.8578 90.5418 25.3009 90.4739C25.7439 90.406 26.1639 90.2318 26.5249 89.9663C26.886 89.7008 27.1774 89.3518 27.3742 88.9491C27.571 88.5464 27.6674 88.1021 27.6552 87.6541C27.645 87.3514 27.6148 87.0483 27.5937 86.7463L27.216 81.3317L26.6526 73.257L26.1145 65.5444L25.8114 61.2016L25.7969 60.9947C25.7509 60.3346 26.7788 60.3375 26.8247 60.9947L27.0452 64.1558L27.559 71.5205L28.1469 79.9464L28.5809 86.1673C28.6113 86.6022 28.6434 87.037 28.6719 87.4721C28.7395 88.3205 28.5182 89.1669 28.044 89.8737C27.5698 90.5805 26.8705 91.1062 26.0598 91.3654C25.2491 91.6246 24.3746 91.6021 23.5783 91.3016C22.782 91.0011 22.1107 90.4401 21.6734 89.7099C21.1787 88.8901 21.145 87.9861 21.0761 87.0667L20.4993 79.3722C20.4399 78.5818 20.3503 77.787 20.3211 76.9948C20.3156 76.8455 20.3128 77.0359 20.3307 77.0508C20.3038 77.0285 20.2884 76.9282 20.2773 76.896L20.0054 76.1085L17.6093 69.1682L15.4857 63.017L15.3669 62.673C15.1506 62.0465 16.143 61.7773 16.358 62.3998L16.3578 62.3996Z" fill="#121229"/>
<path d="M1.35648 65.0656C1.02917 63.4599 1.04584 61.803 1.40539 60.2042C1.77275 58.5987 2.6599 57.1595 3.92907 56.1099C5.05512 55.2213 6.293 54.8981 7.57308 54.6027C8.17221 54.4645 8.78059 54.3323 9.39106 54.1511C11.7256 53.4584 14.0309 52.6254 16.3187 51.7933C20.1757 50.3905 23.9841 48.8479 27.7046 47.1138C33.0965 44.6007 38.3559 41.6953 43.1079 38.0994C47.7028 34.6222 50.6317 30.8858 53.566 26.1348C54.6926 24.3108 55.1379 21.9961 56.7868 20.6257C57.4294 20.1022 58.197 19.7548 59.0144 19.6175C60.3362 19.4025 61.692 19.5825 62.912 20.1348C67.5468 22.1983 69.8252 27.6117 72.0464 31.8438C74.4985 36.4818 76.5535 41.3192 78.1893 46.304C79.4423 50.1338 80.3908 54.0566 81.0258 58.0357C81.6088 61.7432 82.395 65.7962 81.634 69.493C81.3292 70.9737 80.8433 72.4495 79.9333 73.6565C79.0232 74.8635 77.6361 75.7755 76.1257 75.839C74.1629 75.9215 72.4452 74.6327 70.856 73.4776C70.2449 73.0017 69.5799 72.5995 68.8748 72.279C63.6668 70.1199 58.0058 68.8678 52.458 67.997C39.359 65.941 25.6951 66.6727 12.8401 69.746L10.7653 70.242C8.67318 70.7422 6.33641 71.2107 4.47833 70.1267C2.66363 69.0679 1.72102 67.0452 1.35648 65.0656Z" fill="white"/>
<path d="M66.7976 21.9004C64.4963 19.5794 60.8799 17.7539 57.5154 19.2324C55.8875 19.9479 54.9309 21.3952 54.24 22.8789C53.8902 23.6302 53.6024 24.3496 53.2361 25.0605L53.0925 25.3301C52.9448 25.5986 52.7869 25.8625 52.6228 26.125L51.946 27.1738L51.9441 27.1768C50.1518 30.0098 48.0235 32.6157 45.6052 34.9375L45.0955 35.4072C42.5192 37.7316 39.6013 39.6936 36.6208 41.4922C29.7942 45.6119 22.4126 48.7323 14.9109 51.4404C12.9825 52.1366 11.0549 52.8234 9.09546 53.3896C8.66637 53.5137 8.22712 53.618 7.78101 53.7227C7.33723 53.8268 6.88467 53.9319 6.43823 54.0537C5.54444 54.2975 4.65348 54.6162 3.84253 55.168C0.523255 57.4267 -0.0733489 61.6741 0.566162 65.25C0.829733 66.8612 1.52697 68.3708 2.58374 69.6152L2.59058 69.623C3.17478 70.2639 3.88988 70.7724 4.68726 71.1133C5.4825 71.4532 6.34123 71.6181 7.20581 71.5986C7.20809 71.5986 7.21037 71.5996 7.21265 71.5996V71.5986C9.10998 71.5951 10.9898 71.0253 12.7498 70.6045H12.7507C16.6613 69.6616 20.6216 68.9376 24.613 68.4375C32.5948 67.4367 40.6679 67.3891 48.6609 68.2959C52.1326 68.6904 55.5791 69.2795 58.9841 70.0596L60.4402 70.4053C62.3179 70.8719 64.1762 71.4131 65.9998 72.0518L66.0056 72.0537C66.9363 72.3586 67.8513 72.7098 68.7458 73.1084C69.5641 73.5458 70.3411 74.0564 71.0681 74.6328L71.074 74.6377L71.0798 74.6416C72.5 75.6572 74.2049 76.7354 76.1394 76.6523C77.8924 76.5771 79.4605 75.579 80.4988 74.25C81.6599 72.7636 82.2377 70.9029 82.531 69.1064L82.532 69.1016C82.8173 67.1242 82.8354 65.1171 82.5867 63.1348C82.3781 61.1813 82.049 59.24 81.7312 57.3154V57.3145C81.3948 55.2924 80.9767 53.2884 80.4773 51.3027V51.3018C79.4707 47.3355 78.1773 43.4477 76.6072 39.6689L76.0603 38.3799C74.7582 35.3861 73.2815 32.4884 71.8025 29.5898C70.433 26.906 68.9829 24.1044 66.7976 21.9004ZM57.4822 21.1123C58.8015 20.1598 60.6185 20.1594 62.1648 20.71C64.8318 21.6596 66.7655 24.057 68.2439 26.4678C69.0087 27.7149 69.6845 29.0172 70.3552 30.3311C71.1188 31.827 71.8985 33.2978 72.6326 34.7979H72.6335C74.343 38.277 75.8271 41.8628 77.0769 45.5322C78.1938 48.8066 79.0893 52.1518 79.7585 55.5449L80.032 57.002C80.3674 58.9163 80.6881 60.8374 80.9138 62.7598V62.7656C81.1687 64.6022 81.2019 66.4634 81.0105 68.3076H81.0095C80.7916 70.038 80.3008 71.8581 79.2527 73.2139C78.3481 74.384 76.9538 75.1818 75.5027 75.0049C74.6882 74.9055 73.929 74.5647 73.1921 74.1162C72.4492 73.664 71.7601 73.1236 71.0544 72.6201C69.4882 71.5027 67.6574 70.8912 65.905 70.2988L65.9021 70.2979C62.2184 69.0884 58.4472 68.1638 54.6218 67.5322C50.7853 66.8587 46.9128 66.4084 43.0242 66.1826H43.0222C35.1773 65.7552 27.3091 66.2106 19.5662 67.542C17.639 67.87 15.7226 68.2502 13.8171 68.6826C11.9672 69.1026 10.1922 69.6574 8.35815 69.8936C6.76176 70.0991 5.23183 69.904 4.07886 68.8184C2.99869 67.8011 2.42911 66.3581 2.14722 64.873C2.14527 64.8628 2.14264 64.8528 2.14038 64.8428C1.78675 63.1171 1.88289 61.3294 2.41968 59.6514C2.916 58.1505 3.97254 56.8992 5.3689 56.1582C6.09442 55.8245 6.85705 55.5773 7.64038 55.4219L7.65015 55.4199C8.63498 55.1896 9.61102 54.9424 10.5837 54.6377C14.382 53.4479 18.13 52.0467 21.8132 50.5547C28.8968 47.6852 35.8737 44.2941 42.1248 39.8291V39.8281C44.9322 37.8676 47.4813 35.5611 49.7117 32.9629L49.7146 32.96C50.7452 31.7277 51.712 30.4435 52.6111 29.1123C53.5829 27.7561 54.4328 26.3165 55.1511 24.8105L55.155 24.8037C55.464 24.1126 55.7482 23.4071 56.114 22.752C56.477 22.1019 56.9059 21.5284 57.4822 21.1123Z" fill="#121229" stroke="#121229" stroke-width="0.6"/>
<path d="M61.753 37.571C61.9567 37.687 62.1677 37.7898 62.3845 37.8788C63.6785 38.3741 65.0046 38.7808 66.3536 39.0962C69.232 39.7714 72.1875 40.0604 75.1422 39.9556C75.7742 39.9112 76.4004 39.8056 77.0121 39.6405L80.048 38.9247C80.6518 38.7823 81.3046 38.6434 81.8756 38.8857C82.9683 39.3494 83.2615 41.1233 83.6303 42.124C84.1751 43.6018 84.9064 44.7005 84.9099 46.3803C84.9489 46.7832 84.8363 47.1863 84.594 47.5106C84.4133 47.68 84.1997 47.8102 83.9664 47.8932C80.4806 49.4072 76.819 52.0409 73.9594 54.6021C72.2204 56.1689 70.6149 57.8778 69.1596 59.7111C68.9412 59.9872 68.7234 60.2649 68.5102 60.5458C66.2926 56.8206 64.6294 52.7922 63.5728 48.5876C62.6618 44.9722 62.0531 41.2873 61.753 37.571V37.571Z" fill="#01CFFD"/>
<path d="M62.145 36.8596C61.9307 36.7467 61.7079 36.736 61.5103 36.8049C61.3862 36.8338 61.2644 36.8879 61.1636 36.9807C61.0005 37.1309 60.9179 37.3483 60.9399 37.5979C60.9391 37.6504 60.9421 37.7038 60.9526 37.7571C60.9537 37.7624 60.9564 37.7674 60.9575 37.7727C61.1201 39.5714 61.3329 41.367 61.6177 43.1526C62.5829 49.2055 64.4145 55.1714 67.5327 60.4934L67.4624 60.5862H67.5874C67.661 60.711 67.7341 60.8361 67.8091 60.9602L67.811 60.9631C67.8847 61.0821 67.9877 61.1802 68.1099 61.2483C68.2322 61.3164 68.3702 61.3528 68.5103 61.3528C68.6502 61.3527 68.7875 61.3164 68.9097 61.2483C69.0236 61.1848 69.1196 61.0948 69.1919 60.9866V60.9875C71.5975 57.8368 74.4277 55.0338 77.6021 52.6594L77.604 52.6584C79.0068 51.5982 80.4794 50.6334 82.0122 49.7717V49.7727C82.7316 49.3725 83.4657 49.0018 84.2163 48.6692C84.6543 48.5455 85.0402 48.2812 85.312 47.9153C85.5907 47.5399 85.7337 47.0808 85.7173 46.6135C85.7675 45.7782 85.5973 45.0049 85.3501 44.2717C85.1049 43.5446 84.7659 42.8085 84.4976 42.1213C84.3935 41.8549 84.304 41.5729 84.2144 41.2786C84.1257 40.9877 84.0357 40.6821 83.9321 40.384C83.7247 39.7868 83.4524 39.1828 82.98 38.6887L82.9751 38.6838C82.6931 38.4029 82.3491 38.1918 81.9712 38.0667C81.5933 37.9415 81.1913 37.9061 80.7974 37.9631H80.7954C79.8543 38.1068 78.9229 38.3098 78.0073 38.5706H78.0063C77.1304 38.8237 76.2365 39.0102 75.3325 39.1292C74.4414 39.1848 73.5473 39.1878 72.6558 39.1379H72.6519C70.8175 39.0644 68.9922 38.8346 67.1968 38.4514L66.5347 38.303C65.8748 38.1476 65.2208 37.9711 64.5728 37.7727L64.562 37.7698C63.7283 37.5466 62.9186 37.2414 62.145 36.8586V36.8596ZM62.6938 38.8694C63.1627 39.049 63.6404 39.2052 64.1255 39.3372L64.1245 39.3381C64.8395 39.556 65.5606 39.7485 66.2876 39.9163L67.0161 40.0754C68.9863 40.4834 70.9884 40.7189 72.9995 40.7786L73.0005 40.7776C73.8934 40.8265 74.7889 40.8096 75.6792 40.7249L75.688 40.7239L75.6968 40.7219C76.6213 40.5777 77.5375 40.3838 78.4409 40.1399V40.1389C78.8603 40.0397 79.319 39.9076 79.7329 39.803C80.165 39.6938 80.5866 39.6049 80.9966 39.5745L81.0083 39.5735C81.2296 39.5477 81.4535 39.5942 81.646 39.7063C81.8385 39.8185 81.9899 39.9903 82.0767 40.1956L82.0796 40.2034L82.0835 40.2102C82.3271 40.708 82.5196 41.2292 82.6577 41.7659L82.6597 41.7747L82.6626 41.7834C82.8709 42.4252 83.1136 43.0557 83.3901 43.6711L83.3921 43.675C83.6879 44.3054 83.9071 44.9696 84.0425 45.6526L84.0415 45.6536C84.1119 46.014 84.1224 46.3835 84.0728 46.7473C84.05 46.868 84.0049 46.9315 83.9438 46.9827C83.9053 47.0149 83.8594 47.044 83.8013 47.0745L83.5845 47.176L83.5806 47.178C80.4923 48.609 77.6086 50.4451 75.0054 52.6379C72.6573 54.5687 70.5145 56.7356 68.6108 59.1028C67.9807 57.9866 67.4033 56.8413 66.8813 55.6702H66.8804C64.517 50.3741 63.2965 44.6401 62.6938 38.8694Z" fill="#121229" stroke="#121229" stroke-width="0.6"/>
<path d="M61.489 28.4473C61.1185 28.4485 60.6798 28.6928 60.6287 29.209V29.21C60.3606 32.0123 60.3597 34.8342 60.6257 37.6367V37.6377C61.1356 42.7765 62.2898 47.8306 64.0603 52.6816C65.7865 57.4878 67.9669 62.1186 70.574 66.5098L70.5779 66.5156C70.6903 66.6948 70.8686 66.8236 71.074 66.874C71.2792 66.9243 71.496 66.8927 71.6785 66.7861C71.8611 66.6794 71.9946 66.5055 72.0515 66.3018C72.1083 66.0981 72.084 65.8802 71.9832 65.6943L71.9783 65.6846C70.5559 63.2823 69.2581 60.8084 68.0906 58.2725L68.0896 58.2715C65.9589 53.6903 64.3345 48.8903 63.2439 43.957L63.2429 43.9551C62.1524 39.1407 61.8189 34.1858 62.2537 29.2686L62.2576 29.1758C62.2564 28.9651 62.1774 28.7817 62.0349 28.6494C61.8801 28.5059 61.677 28.4467 61.489 28.4473Z" fill="#121229" stroke="#121229" stroke-width="0.6"/>
<path d="M1.40581 60.2042C1.77317 58.5988 2.66032 57.1595 3.9295 56.1099C5.05554 55.2213 6.29343 54.8981 7.5735 54.6027C8.17263 54.4645 8.78101 54.3323 9.39149 54.1511C11.726 53.4584 14.0313 52.6254 16.3192 51.7933C16.7225 51.6466 17.1252 51.4981 17.5272 51.3477C17.715 53.8359 19.914 62.2723 20.2602 63.0926C20.998 64.7452 21.8643 66.3374 22.8513 67.8544C19.4768 68.3268 16.132 68.9591 12.8405 69.746L10.7657 70.242C8.6736 70.742 6.33683 71.2108 4.47872 70.1267C2.66405 69.0679 1.72144 67.0452 1.35681 65.0656C1.02955 63.4599 1.04625 61.803 1.40581 60.2042V60.2042Z" fill="#01CFFD"/>
<path d="M17.6829 50.5513C17.561 50.5268 17.4349 50.5307 17.3147 50.562L17.3 50.5659L17.2854 50.5708C17.1063 50.6375 16.9266 50.7027 16.7473 50.769L16.6438 50.6899L16.6555 50.8022C15.368 51.2781 14.0774 51.7463 12.7815 52.1958C11.4436 52.6599 10.1095 53.1245 8.75513 53.4839C7.5778 53.7962 6.26767 54.0045 5.07446 54.5093C2.74832 55.4933 1.23323 57.6045 0.625244 59.9741C0.623499 59.9807 0.621 59.987 0.619385 59.9937C0.618833 59.9958 0.618943 59.9983 0.618408 60.0005H0.617432C0.0860958 62.2963 0.224018 64.6963 1.01392 66.9165L1.01489 66.9185C1.6106 68.552 2.6755 70.1284 4.30786 70.9604C6.13951 71.894 8.2414 71.6284 10.0745 71.2349C11.1437 71.0053 12.2064 70.7493 13.2649 70.4976C14.0599 70.3085 14.8534 70.1222 15.6487 69.9487L16.4446 69.7798C18.4337 69.3746 20.4323 69.0275 22.4397 68.7339L22.4631 68.7739L22.4827 68.728C22.665 68.7014 22.847 68.6727 23.0295 68.647L23.05 68.644L23.0696 68.6382C23.1889 68.6043 23.2994 68.5442 23.3918 68.4614C23.4843 68.3786 23.557 68.2756 23.6038 68.1606C23.6505 68.0457 23.6697 67.9211 23.6614 67.7974C23.653 67.6736 23.6167 67.5534 23.5549 67.4458L23.55 67.437C22.9772 66.5104 22.413 65.5876 21.9036 64.6362L21.8987 64.6274L21.6389 64.1548C21.39 63.68 21.1695 63.1909 20.9778 62.6899C20.3841 60.97 19.9896 59.1612 19.5549 57.3677C19.2706 56.194 18.9989 55.0186 18.7571 53.8384L18.7561 53.8315H18.7551C18.5663 53.0024 18.4277 52.1626 18.3391 51.3169C18.3338 51.2019 18.3051 51.0888 18.2532 50.9858C18.1973 50.875 18.1166 50.7779 18.0178 50.7026C17.9191 50.6275 17.8045 50.5757 17.6829 50.5513ZM16.8528 52.4624C16.9558 53.168 17.0862 53.8693 17.2483 54.564L17.2473 54.5649C17.7342 56.8825 18.3046 59.1849 18.927 61.4673L18.926 61.4683C19.0755 62.0864 19.2572 62.6967 19.469 63.2964L19.4719 63.3052C20.0058 64.6853 20.7519 65.9831 21.5149 67.2339C19.585 67.5255 17.664 67.8658 15.7532 68.2622C13.7685 68.6739 11.763 69.1988 9.802 69.6294C8.17492 69.9867 6.41028 70.2539 4.99341 69.4829C3.68193 68.7692 2.84907 67.4126 2.40942 65.9604V65.9595C1.856 64.1595 1.7815 62.2462 2.1936 60.4087V60.4097C2.4623 59.2686 3.01287 58.2133 3.79517 57.3403L3.94849 57.1831C4.72501 56.4201 5.67877 55.9851 6.7229 55.6636C7.28076 55.4918 7.85759 55.3539 8.44458 55.2144C9.0282 55.0756 9.62286 54.9343 10.1995 54.7573C12.4442 54.0683 14.6563 53.2746 16.8528 52.4624Z" fill="#121229" stroke="#121229" stroke-width="0.6"/>
</svg>
