<svg width="204" height="200" viewBox="0 0 204 200" fill="none" xmlns="http://www.w3.org/2000/svg">
<path d="M161.208 90.5744C174.97 88.6407 185.566 76.8413 185.595 62.546C185.595 48.4578 175.325 36.7768 161.859 34.5669" stroke="#121229" stroke-width="4" stroke-linecap="round" stroke-linejoin="round"/>
<path d="M179.368 123.661C192.697 125.654 202 130.32 202 139.939C202 146.559 197.62 150.861 190.536 153.564" stroke="#121229" stroke-width="4" stroke-linecap="round" stroke-linejoin="round"/>
<path fill-rule="evenodd" clip-rule="evenodd" d="M102.005 127.743C70.2965 127.743 43.2153 132.547 43.2153 151.736C43.2153 170.915 70.1288 175.858 102.005 175.858C133.713 175.858 160.784 171.102 160.784 151.904C160.784 132.705 133.881 127.743 102.005 127.743Z" fill="white" stroke="#121229" stroke-width="4" stroke-linecap="round" stroke-linejoin="round"/>
<path fill-rule="evenodd" clip-rule="evenodd" d="M102.007 100.354C122.813 100.354 139.684 83.4936 139.684 62.677C139.684 41.8703 122.813 25 102.007 25C81.2001 25 64.3299 41.8703 64.3299 62.677C64.2509 83.4147 80.9929 100.285 101.731 100.354H102.007Z" fill="#FFEC18" stroke="#121229" stroke-width="4" stroke-linecap="round" stroke-linejoin="round"/>
<path d="M42.7917 90.5744C29.0192 88.6407 18.4334 76.8413 18.4038 62.546C18.4038 48.4578 28.6739 36.7768 42.1405 34.5669" stroke="#121229" stroke-width="4" stroke-linecap="round" stroke-linejoin="round"/>
<path d="M24.6318 123.661C11.3033 125.654 2 130.32 2 139.939C2 146.559 6.38035 150.861 13.4639 153.564" stroke="#121229" stroke-width="4" stroke-linecap="round" stroke-linejoin="round"/>
</svg>
