<svg width="201" height="200" viewBox="0 0 201 200" fill="none" xmlns="http://www.w3.org/2000/svg">
<path d="M30.9361 114.37L40.6792 142.583L42.3096 164.33C42.3766 165.223 42.6306 166.092 43.0553 166.881C43.4799 167.67 44.0657 168.361 44.7747 168.909C45.4836 169.457 46.2998 169.85 47.1704 170.062C48.041 170.274 48.9465 170.301 49.8281 170.141C51.3768 169.859 52.7673 169.017 53.7332 167.774C54.6992 166.532 55.1727 164.977 55.0631 163.407L51.43 111.347" fill="#121229"/>
<path d="M31.9077 114.102L34.9031 122.776L39.9858 137.494L41.4801 141.821C41.6632 142.447 41.762 143.094 41.7739 143.746L42.8466 158.05L43.2696 163.688C43.4426 165.995 44.5468 168.109 46.86 168.922C47.6917 169.206 48.58 169.286 49.4489 169.153C50.3179 169.019 51.1417 168.678 51.8499 168.157C52.5581 167.637 53.1297 166.952 53.5157 166.163C53.9018 165.373 54.0909 164.502 54.0668 163.623C54.0469 163.03 53.9876 162.435 53.9462 161.843L53.2053 151.226L52.1003 135.392L51.0449 120.269L50.4503 111.753L50.422 111.347C50.3317 110.053 52.3479 110.058 52.4378 111.347L52.8704 117.546L53.8782 131.987L55.0313 148.509L55.8826 160.708C55.9421 161.561 56.0052 162.413 56.0611 163.266C56.1936 164.93 55.7595 166.59 54.8294 167.976C53.8993 169.362 52.5277 170.392 50.9376 170.901C49.3475 171.409 47.6321 171.365 46.0702 170.776C44.5083 170.186 43.1916 169.086 42.3339 167.654C41.3635 166.047 41.2975 164.274 41.1623 162.471L40.0309 147.383C39.9144 145.833 39.7387 144.275 39.6815 142.721C39.6707 142.429 39.6651 142.802 39.7003 142.831C39.6475 142.788 39.6172 142.591 39.5954 142.528L39.0622 140.984L34.3624 127.374L30.197 115.313L29.9641 114.638C29.5398 113.409 31.4864 112.882 31.9079 114.102L31.9077 114.102Z" fill="#121229"/>
<path d="M2.48303 119.33C1.84102 116.182 1.87371 112.933 2.57895 109.798C3.29951 106.65 5.03961 103.827 7.52904 101.769C9.73771 100.027 12.1658 99.3929 14.6766 98.8137C15.8517 98.5426 17.045 98.2835 18.2424 97.9283C22.8215 96.5698 27.3431 94.9365 31.8307 93.3048C39.3959 90.554 46.866 87.5291 54.1635 84.1288C64.7393 79.2008 75.0555 73.5038 84.3762 66.4525C93.3889 59.6341 99.1338 52.3075 104.889 42.9913C107.099 39.4146 107.973 34.8756 111.207 32.1884C112.467 31.162 113.973 30.4808 115.576 30.2116C118.169 29.79 120.828 30.1429 123.221 31.226C132.312 35.2722 136.781 45.8874 141.138 54.1859C145.947 63.2807 149.978 72.7662 153.187 82.5409C155.644 90.0506 157.505 97.7428 158.75 105.546C159.894 112.816 161.436 120.763 159.943 128.012C159.345 130.915 158.392 133.809 156.607 136.176C154.822 138.543 152.102 140.331 149.139 140.456C145.289 140.618 141.92 138.09 138.803 135.825C137.604 134.892 136.3 134.103 134.917 133.475C124.702 129.241 113.598 126.786 102.716 125.078C77.0231 121.047 50.222 122.482 25.0075 128.508L20.938 129.481C16.8343 130.461 12.2509 131.38 8.60637 129.255C5.04692 127.178 3.19804 123.212 2.48303 119.33Z" fill="white"/>
<path d="M130.199 34.4814C125.711 30.1724 118.983 26.9989 112.759 29.7334L112.473 29.8652C109.554 31.2639 107.79 33.9362 106.486 36.7344L105.994 37.8193C105.513 38.902 105.053 39.9742 104.513 41.0234L104.228 41.5586C103.739 42.4458 103.194 43.3059 102.638 44.1641L101.968 45.1934L101.966 45.1963L101.296 46.2373C97.9101 51.4127 93.9476 56.1891 89.4834 60.4736L88.4775 61.3984C83.4037 65.9749 77.6635 69.8351 71.8105 73.3662L70.5498 74.1191C57.4896 81.8411 43.4353 87.7498 29.1719 92.8975L26.333 93.915C23.491 94.923 20.6368 95.8914 17.7461 96.7266L17.1055 96.9043C16.4622 97.0757 15.8103 97.2299 15.1543 97.3838C14.2816 97.5885 13.3996 97.7922 12.5303 98.0293C10.7908 98.5037 9.07974 99.1181 7.5293 100.173L7.23535 100.379C1.32094 104.62 0.0792623 112.284 1.12207 118.991L1.23145 119.647L1.23242 119.65C1.7413 122.753 3.08573 125.657 5.12109 128.054L5.12793 128.062C6.24447 129.286 7.61079 130.257 9.13477 130.908C10.6588 131.56 12.3049 131.877 13.9619 131.838V131.837C17.6396 131.831 21.2788 130.727 24.7598 129.895H24.7607C31.9623 128.159 39.2497 126.802 46.5928 125.83L48.0615 125.641C63.2513 123.737 78.6088 123.589 93.8291 125.201L95.3018 125.362C102.61 126.192 109.861 127.461 117.016 129.16L118.445 129.505C122.136 130.422 125.792 131.485 129.379 132.741L129.384 132.743V132.742C131.224 133.345 133.032 134.041 134.8 134.829C136.423 135.696 137.966 136.708 139.408 137.852L139.419 137.86L139.42 137.859C142.121 139.791 145.269 141.776 148.808 141.755L149.151 141.747C152.274 141.613 155.105 139.935 157.091 137.622L157.477 137.151C159.71 134.294 160.831 130.703 161.402 127.205V127.199C161.958 123.349 161.994 119.441 161.51 115.581C161.102 111.759 160.457 107.96 159.833 104.182V104.181L159.579 102.699C158.968 99.2446 158.234 95.8172 157.379 92.417V92.416L157.003 90.9619C155.09 83.7021 152.684 76.5804 149.802 69.6465L149.271 68.3818C146.594 62.0741 143.498 55.9946 140.389 49.9033L139.371 47.9219C136.971 43.2905 134.343 38.6499 130.626 34.9023L130.199 34.4814ZM112.393 32.8965C114.92 31.0717 118.311 30.9711 121.271 31.8721L121.857 32.0654C126.859 33.8458 130.546 38.1597 133.383 42.5967L133.938 43.4854C135.069 45.3279 136.1 47.2296 137.1 49.1523L138.091 51.0801C139.586 54.0077 141.12 56.8995 142.562 59.8438V59.8447C145.71 66.2515 148.47 72.8415 150.826 79.5791L151.292 80.9287C153.644 87.8219 155.498 94.8748 156.839 102.032L157.101 103.465C157.759 107.22 158.388 110.994 158.832 114.772L158.833 114.778C159.337 118.406 159.4 122.082 159.021 125.725H159.021C158.59 129.139 157.617 132.772 155.513 135.493L155.16 135.926C153.34 138.042 150.676 139.462 147.879 139.121L147.57 139.077C146.031 138.831 144.598 138.172 143.226 137.337C141.756 136.443 140.383 135.367 139.015 134.391L138.44 133.996C135.542 132.082 132.224 130.972 128.993 129.88L128.991 129.879L127.637 129.441C121.307 127.431 114.85 125.848 108.308 124.704L106.904 124.466C99.3914 123.147 91.8083 122.265 84.1934 121.823H84.1924L82.752 121.75C67.8647 121.044 52.9432 121.961 38.252 124.486H38.2529C34.4779 125.129 30.7237 125.873 26.9912 126.72L25.6455 127.037C22.5126 127.8 19.4194 128.691 16.2559 129.099L15.6621 129.166C12.6966 129.453 9.82296 128.99 7.61328 126.91L7.41113 126.715C5.49104 124.804 4.41929 122.221 3.8457 119.561L3.73438 119.009L3.73047 118.989C3.01747 115.542 3.20593 111.97 4.2793 108.617V108.618C5.27755 105.6 7.40276 103.083 10.2119 101.594C11.6609 100.926 13.1841 100.432 14.749 100.121L14.7578 100.12V100.119C16.4456 99.7245 18.1165 99.3063 19.7793 98.8096L20.4912 98.5918C27.0012 96.5532 33.4365 94.1967 39.7803 91.6807L42.4932 90.5928C56.3751 84.9709 70.0348 78.3315 82.2686 69.5957V69.5967C87.7563 65.7663 92.7392 61.2596 97.0986 56.1826L97.1006 56.1797C99.1188 53.7674 101.012 51.2529 102.772 48.6465V48.6455C104.667 46.0022 106.323 43.1965 107.724 40.2617L107.728 40.2559V40.2549C108.327 38.9138 108.895 37.5091 109.621 36.209C110.3 34.9944 111.105 33.8941 112.175 33.0596L112.393 32.8965Z" fill="#121229" stroke="#121229" stroke-width="0.567967"/>
<path d="M120.947 65.4158C121.347 65.6431 121.761 65.8446 122.186 66.0192C124.724 66.9904 127.325 67.788 129.971 68.4064C135.617 69.7303 141.414 70.297 147.21 70.0916C148.449 70.0045 149.678 69.7976 150.877 69.4737L156.832 68.0701C158.016 67.791 159.297 67.5185 160.417 67.9938C162.56 68.903 163.135 72.3813 163.859 74.3436C164.927 77.2415 166.362 79.3958 166.368 82.6897C166.445 83.4799 166.224 84.2702 165.749 84.9062C165.394 85.2383 164.975 85.4937 164.518 85.6564C157.681 88.6253 150.499 93.7897 144.89 98.8119C141.479 101.884 138.33 105.235 135.475 108.83C135.047 109.371 134.619 109.916 134.201 110.467C129.852 103.162 126.589 95.2629 124.517 87.018C122.73 79.9287 121.536 72.703 120.947 65.4158V65.4158Z" fill="#FFEC18"/>
<path d="M125.762 65.926C124.324 65.5031 122.926 64.9559 121.582 64.2913V64.2922C121.243 64.1114 120.899 64.0937 120.596 64.1926C120.377 64.2338 120.167 64.3262 119.998 64.4817C119.784 64.6789 119.656 64.9566 119.651 65.2932L119.656 65.4407C119.657 65.4435 119.657 65.4466 119.657 65.4495C119.654 65.5398 119.659 65.6313 119.677 65.7219C119.679 65.7328 119.683 65.7433 119.686 65.7542C119.963 68.831 120.318 71.9022 120.774 74.9592L120.983 76.3127C122.928 88.502 126.664 100.5 133.088 111.123L133.09 111.125C133.207 111.315 133.371 111.471 133.565 111.579C133.711 111.661 133.871 111.714 134.035 111.735L134.201 111.744C134.424 111.744 134.643 111.688 134.838 111.579C135.025 111.475 135.182 111.327 135.298 111.148V111.149C140.033 104.948 145.605 99.4327 151.854 94.76L151.854 94.759C154.617 92.6714 157.518 90.772 160.537 89.0754V89.0764C161.959 88.2855 163.411 87.5517 164.897 86.8938C165.704 86.6731 166.413 86.1901 166.912 85.5188C167.412 84.8454 167.671 84.0238 167.647 83.1858L167.662 82.886C167.712 81.3933 167.398 79.997 166.944 78.6526C166.465 77.2324 165.813 75.8241 165.276 74.4495L165.125 74.0432C164.979 73.6326 164.847 73.2077 164.715 72.7747C164.54 72.2002 164.365 71.6083 164.164 71.0305C163.762 69.8744 163.245 68.7395 162.363 67.8176L162.359 67.8127L162.158 68.0139L162.358 67.8127C161.839 67.2955 161.206 66.9065 160.51 66.676C159.901 66.4743 159.258 66.3986 158.62 66.4534L158.347 66.4846L158.345 66.4856L157.658 66.5959C156.058 66.8659 154.475 67.2238 152.914 67.6682H152.913L152.259 67.8508C150.732 68.2607 149.18 68.5689 147.612 68.7747C145.849 68.8851 144.081 68.8918 142.317 68.7932L142.312 68.7922L140.958 68.7239C137.799 68.53 134.659 68.1013 131.562 67.4407L130.257 67.1487C128.956 66.8424 127.667 66.4928 126.39 66.1018L126.38 66.0989L125.762 65.926ZM122.439 67.4963C123.5 67.9233 124.584 68.2882 125.688 68.5881L125.688 68.5891C127.316 69.0851 128.96 69.5143 130.62 69.8772L131.333 70.0286C135.178 70.8246 139.086 71.283 143.011 71.3997L143.01 71.4006C144.751 71.4969 146.498 71.4623 148.234 71.2971L148.242 71.2961L148.251 71.2942C150.051 71.0134 151.834 70.6348 153.593 70.1604V70.1614C154.423 69.9657 155.302 69.7083 156.141 69.4963C156.994 69.2808 157.839 69.1019 158.67 69.0403L158.682 69.0393C159.181 68.9812 159.687 69.087 160.121 69.3401C160.556 69.5932 160.896 69.9806 161.092 70.4436L161.095 70.4504L161.099 70.4573C161.585 71.4518 161.97 72.4934 162.246 73.5657L162.248 73.5745L162.251 73.5823C162.555 74.5183 162.897 75.4418 163.275 76.3499L163.666 77.2522L163.668 77.2571C164.259 78.5158 164.695 79.8414 164.966 81.2053L164.965 81.2063C165.11 81.9489 165.132 82.7107 165.028 83.4602C164.971 83.7698 164.844 83.9575 164.669 84.1038C164.526 84.223 164.349 84.3182 164.129 84.4211L163.894 84.5276L163.89 84.5295L162.763 85.0627C157.153 87.7757 151.903 91.1796 147.135 95.1956H147.134C142.429 99.063 138.149 103.416 134.358 108.178C133.031 105.857 131.816 103.473 130.728 101.031L130.266 99.9758C125.849 89.6954 123.566 78.6188 122.439 67.4963Z" fill="#121229" stroke="#121229" stroke-width="0.567967"/>
<path d="M120.429 47.8291C119.856 47.8311 119.212 48.1817 119.067 48.9004L119.044 49.0488V49.0498L118.953 50.0771C118.523 55.215 118.551 60.3816 119.039 65.5156V65.5166C120.036 75.569 122.294 85.4568 125.758 94.9463L125.759 94.9453C129.138 104.351 133.408 113.412 138.511 122.006L138.515 122.013C138.694 122.297 138.976 122.5 139.302 122.58C139.628 122.66 139.972 122.611 140.262 122.441C140.552 122.272 140.765 121.996 140.855 121.673C140.945 121.35 140.906 121.004 140.746 120.709L140.741 120.699L139.704 118.923C137.312 114.763 135.109 110.496 133.101 106.137L133.1 106.136L132.327 104.442C128.517 95.9521 125.584 87.0933 123.574 78.0039L123.573 78.0029L123.376 77.1133C121.387 67.9192 120.797 58.4761 121.626 49.1025V49.1016C121.665 48.7 121.536 48.3701 121.292 48.1445C121.056 47.9256 120.738 47.8281 120.429 47.8291Z" fill="#121229" stroke="#121229" stroke-width="0.567967"/>
<path d="M2.5798 109.797C3.30036 106.649 5.04045 103.827 7.52988 101.769C9.73855 100.026 12.1666 99.3924 14.6774 98.8132C15.8526 98.5422 17.0459 98.283 18.2433 97.9278C22.8224 96.5693 27.344 94.936 31.8316 93.3043C32.6227 93.0166 33.4125 92.7253 34.201 92.4304C34.5695 97.3096 38.8827 113.852 39.5616 115.461C41.0088 118.702 42.7081 121.824 44.644 124.798C38.0251 125.725 31.4645 126.965 25.0083 128.508L20.9388 129.48C16.8352 130.461 12.2517 131.38 8.60715 129.254C5.04777 127.178 3.19889 123.212 2.48369 119.33C1.84177 116.181 1.87453 112.932 2.5798 109.797V109.797Z" fill="#FFEC18"/>
<path d="M34.0054 91.1553L33.8608 91.1836L33.8472 91.1875L33.8335 91.1924L31.6294 92.0078C29.4239 92.8175 27.2126 93.6114 24.9937 94.3809L23.0249 95.0605C21.0547 95.7348 19.0759 96.383 17.0737 96.9141L16.1851 97.1387C14.0967 97.6454 11.9198 98.0543 9.89404 98.9111L9.479 99.0947C5.24269 101.056 2.46357 105.012 1.33252 109.459L1.33154 109.465H1.33057C0.301222 113.91 0.568107 118.558 2.09814 122.857L2.09912 122.859C3.21567 125.92 5.17347 128.844 8.12256 130.465L8.41162 130.618C11.6833 132.285 15.4264 131.953 18.8403 131.271L19.5181 131.13C21.6117 130.681 23.6932 130.18 25.771 129.686C27.3303 129.315 28.8885 128.948 30.4517 128.607L32.0171 128.276C36.3069 127.403 40.6185 126.66 44.9517 126.051L44.9712 126.049L44.9897 126.043C45.1793 125.989 45.3547 125.893 45.5015 125.762C45.6482 125.63 45.7631 125.467 45.8374 125.284C45.9117 125.102 45.9434 124.904 45.9302 124.707C45.9169 124.51 45.8584 124.319 45.7603 124.148L45.7563 124.141L45.5142 124.29L45.7554 124.141C44.6316 122.323 43.5205 120.506 42.5161 118.631L42.5122 118.623L42.2495 118.156C41.6498 117.065 41.1259 115.935 40.6812 114.771L40.4653 114.134C39.4123 110.935 38.6804 107.594 37.8833 104.306L37.4692 102.577C37.0612 100.848 36.6714 99.1143 36.3149 97.375L36.314 97.3691L36.1782 96.7539C35.8733 95.316 35.6438 93.8625 35.4907 92.4004C35.4844 92.2119 35.438 92.027 35.353 91.8584C35.2641 91.682 35.1362 91.5279 34.979 91.4082C34.8218 91.2885 34.6395 91.2058 34.4458 91.167C34.3004 91.1379 34.1515 91.1344 34.0054 91.1553ZM33.1216 94.2021C33.3298 95.7074 33.6056 97.2033 33.9517 98.6836L33.9526 98.6826C34.9073 103.224 36.0226 107.738 37.2437 112.213C37.534 113.412 37.8854 114.596 38.2964 115.76L38.2993 115.768C39.3918 118.591 40.9427 121.239 42.519 123.808C38.5867 124.393 34.6746 125.089 30.7827 125.896L29.3198 126.209C25.9084 126.958 22.5032 127.832 19.1147 128.576L18.5132 128.705C15.4887 129.336 12.1814 129.733 9.47119 128.259L9.22412 128.118C6.69978 126.635 5.10547 123.973 4.25732 121.173V121.172L4.06201 120.497C3.14128 117.114 3.05903 113.554 3.82861 110.127V110.126C4.36854 107.837 5.4757 105.719 7.04736 103.969V103.968C8.67281 102.226 10.7135 101.281 12.9204 100.602C14.0256 100.261 15.1663 99.9891 16.3159 99.7158C17.1758 99.5114 18.0408 99.3062 18.8921 99.0713L19.7378 98.8262C24.2516 97.4411 28.6998 95.8393 33.1216 94.2021Z" fill="#121229" stroke="#121229" stroke-width="0.567967"/>
<path d="M190.929 58.2725L190.767 58.3492L189.169 59.1978L178.104 65.0775L177.954 65.1678C177.623 65.3902 177.426 65.6998 177.365 66.0456C177.298 66.4267 177.404 66.8078 177.599 67.1139C177.962 67.6828 178.72 68.1024 179.529 67.7723L179.692 67.6966L181.29 66.847L192.354 60.9673C192.777 60.7428 193.025 60.395 193.095 59.9999C193.162 59.6187 193.056 59.2367 192.861 58.9306C192.498 58.3617 191.739 57.9422 190.929 58.2725Z" fill="#121229" stroke="#121229" stroke-width="0.8"/>
<path d="M179.605 81.9662C179.213 81.8869 178.854 81.964 178.565 82.1633C178.246 82.3831 178.048 82.7266 177.965 83.081C177.813 83.7396 178.045 84.576 178.848 84.9192L179.016 84.9809L180.707 85.5086L192.689 89.248C193.145 89.3905 193.567 89.3224 193.898 89.0946C194.217 88.8747 194.415 88.5313 194.497 88.1769C194.66 87.4744 194.385 86.5699 193.447 86.277L191.756 85.7493L179.774 82.0099L179.605 81.9662Z" fill="#121229" stroke="#121229" stroke-width="0.8"/>
<path d="M172.258 42.1937C171.867 42.1135 171.459 42.1867 171.12 42.3978C170.789 42.6034 170.548 42.9252 170.44 43.2992L170.44 43.2995L169.859 44.9697L165.725 56.8646L165.718 56.8851L165.712 56.9072C165.622 57.3022 165.691 57.7171 165.904 58.0612C166.116 58.405 166.456 58.6515 166.848 58.7469L166.856 58.7486L166.862 58.7497C167.253 58.83 167.661 58.7567 168.001 58.5456C168.332 58.3397 168.573 58.0177 168.68 57.643L168.681 57.6439L169.261 55.9737L173.396 44.0788L173.404 44.058L173.408 44.0362C173.498 43.6412 173.429 43.2272 173.217 42.8831C173.004 42.5392 172.665 42.2929 172.273 42.1974L172.265 42.1957L172.258 42.1937Z" fill="#121229" stroke="#121229" stroke-width="0.8"/>
</svg>
