<svg width="100" height="100" viewBox="0 0 100 100" fill="none" xmlns="http://www.w3.org/2000/svg">
<path d="M77 46C83.7719 45.1023 88.9855 39.6248 89 32.9885C89 26.4484 83.9466 21.0259 77.3204 20" stroke="#121229" stroke-width="3" stroke-linecap="round" stroke-linejoin="round"/>
<path d="M86 60C91.8892 60.9331 96 63.1178 96 67.6212C96 70.7205 94.0645 72.7344 90.9346 74" stroke="#121229" stroke-width="3" stroke-linecap="round" stroke-linejoin="round"/>
<path fill-rule="evenodd" clip-rule="evenodd" d="M50.0022 63C35.4385 63 23 65.097 23 73.472C23 81.8427 35.3615 84 50.0022 84C64.566 84 77 81.9245 77 73.5452C77 65.1659 64.643 63 50.0022 63Z" fill="white" stroke="#121229" stroke-width="3" stroke-linecap="round" stroke-linejoin="round"/>
<path fill-rule="evenodd" clip-rule="evenodd" d="M50.0001 50C59.9404 50 68 42.3925 68 33C68 23.612 59.9404 16 50.0001 16C40.0598 16 32.0001 23.612 32.0001 33C31.9623 42.3569 39.9608 49.9689 49.8681 50H50.0001Z" fill="#FFEC18" stroke="#121229" stroke-width="3" stroke-linecap="round" stroke-linejoin="round"/>
<path d="M23 46C16.2233 45.1023 11.0145 39.6248 11 32.9885C11 26.4484 16.0534 21.0259 22.6796 20" stroke="#121229" stroke-width="3" stroke-linecap="round" stroke-linejoin="round"/>
<path d="M15 60C8.52178 60.9331 4 63.1178 4 67.6212C4 70.7205 6.12903 72.7344 9.57192 74" stroke="#121229" stroke-width="3" stroke-linecap="round" stroke-linejoin="round"/>
</svg>
