<svg width="100" height="100" viewBox="0 0 100 100" fill="none" xmlns="http://www.w3.org/2000/svg">
<rect x="43.3962" y="18.9571" width="54.7798" height="62.4171" rx="10.3696" transform="rotate(7.07165 43.3962 18.9571)" fill="white" stroke="#121229" stroke-width="2.5"/>
<mask id="mask0_1214_302" style="mask-type:alpha" maskUnits="userSpaceOnUse" x="47" y="28" width="42" height="35">
<rect x="51.695" y="29.606" width="36.323" height="28.0492" rx="4.11289" transform="rotate(7.07165 51.695 29.606)" fill="#FFC24D" stroke="#121229" stroke-width="2.5"/>
</mask>
<g mask="url(#mask0_1214_302)">
<rect x="51.695" y="29.606" width="36.323" height="28.0492" rx="4.11289" transform="rotate(7.07165 51.695 29.606)" fill="#B3F1FE" stroke="#121229" stroke-width="2.5"/>
<path d="M60.4639 38.5804C60.7045 38.6066 60.9376 38.6822 61.149 38.8018C61.3606 38.9216 61.5468 39.0835 61.6955 39.2786L69.4435 49.4503L70.2135 50.4608L71.2102 49.6781L77.604 44.6561C77.9774 44.3629 78.4478 44.2302 78.914 44.2846C79.3803 44.339 79.8086 44.5767 80.1056 44.9483L85.6714 51.9133L84.8999 58.1814C84.6223 60.4358 82.5699 62.0344 80.316 61.7526L50.6456 58.0429C49.445 57.8925 48.5652 56.8633 48.5772 55.6781L48.5919 55.4388L49.6224 47.0665L59.1128 38.998C59.2994 38.8393 59.5159 38.7208 59.748 38.6493C59.98 38.5779 60.2234 38.5542 60.4639 38.5804Z" fill="white" stroke="#121229" stroke-width="2.5"/>
</g>
<circle cx="50.2915" cy="69.5378" r="3.52332" transform="rotate(7.07165 50.2915 69.5378)" fill="#FFE4B0" stroke="#121229" stroke-width="2.5"/>
<line x1="59.4635" y1="70.3775" x2="82.8781" y2="73.2822" stroke="#121229" stroke-width="2.5" stroke-linecap="round"/>
<rect x="2.39766" y="18.306" width="54.7798" height="62.4171" rx="10.3696" transform="rotate(-7.24491 2.39766 18.306)" fill="white" stroke="#121229" stroke-width="2.5"/>
<mask id="mask1_1214_302" style="mask-type:alpha" maskUnits="userSpaceOnUse" x="12" y="21" width="42" height="35">
<rect x="13.072" y="26.5724" width="36.323" height="28.0492" rx="4.11289" transform="rotate(-7.24491 13.072 26.5724)" fill="#FFC24D" stroke="#121229" stroke-width="2.5"/>
</mask>
<g mask="url(#mask1_1214_302)">
<rect x="13.072" y="26.5724" width="36.323" height="28.0492" rx="4.11289" transform="rotate(-7.24491 13.072 26.5724)" fill="#01CFFD" stroke="#121229" stroke-width="2.5"/>
<path d="M23.6856 33.0745C23.9251 33.04 24.1695 33.0551 24.4038 33.1184C24.6381 33.1817 24.8583 33.2922 25.0502 33.4442L35.0531 41.369L36.0472 42.1562L36.8208 41.1494L41.7839 34.6899C42.0739 34.3125 42.4978 34.0666 42.9631 34.0032C43.4282 33.9399 43.9016 34.0633 44.2804 34.3493L51.3812 39.7111L52.1715 45.9768C52.4556 48.2303 50.8592 50.2909 48.6062 50.5796L18.9473 54.3797C17.7471 54.5333 16.6421 53.7552 16.363 52.6039L16.3185 52.3684L15.2629 43.9992L22.4789 33.816C22.6208 33.6157 22.8014 33.4469 23.0088 33.3198C23.2161 33.1928 23.4462 33.1091 23.6856 33.0745Z" fill="white" stroke="#121229" stroke-width="2.5"/>
</g>
<circle cx="21.5864" cy="65.6108" r="3.52332" transform="rotate(-7.24491 21.5864 65.6108)" fill="#B3F1FE" stroke="#121229" stroke-width="2.5"/>
<line x1="30.6813" y1="64.1563" x2="54.087" y2="61.1808" stroke="#121229" stroke-width="2.5" stroke-linecap="round"/>
</svg>
