<svg width="100" height="100" viewBox="0 0 100 100" fill="none" xmlns="http://www.w3.org/2000/svg">
<path d="M98.4507 20.6619C98.2025 20.1931 97.6217 19.8336 96.9694 20.1134L95.6372 20.6849L86.4128 24.6415C86.0926 24.779 85.8992 25.0121 85.828 25.2839C85.7587 25.5488 85.8109 25.8294 85.9356 26.0651C86.1838 26.5339 86.7646 26.8934 87.4168 26.6136L88.7491 26.0421L97.9687 22.0865L97.9735 22.0855C98.2937 21.9481 98.4871 21.7149 98.5583 21.4431C98.6276 21.1782 98.5754 20.8976 98.4507 20.6619Z" fill="#121229" stroke="#121229" stroke-width="0.4"/>
<path d="M86.5551 38.253C86.2311 38.1221 85.9283 38.1484 85.684 38.2883C85.4458 38.4249 85.2815 38.6584 85.2002 38.9125C85.0384 39.4179 85.1895 40.083 85.8476 40.3491L87.1644 40.8817L96.4966 44.6542C96.8204 44.7851 97.1224 44.759 97.3667 44.6191C97.605 44.4825 97.7691 44.249 97.8505 43.9949C98.0123 43.4895 97.8622 42.8242 97.204 42.5581L95.8872 42.0255L86.5551 38.253Z" fill="#121229" stroke="#121229" stroke-width="0.4"/>
<path d="M83.1473 6.01607C82.8694 5.9349 82.5704 5.96262 82.3126 6.0944C82.0596 6.22385 81.8656 6.44404 81.767 6.71016L81.1942 8.00376L77.117 17.2139L77.1122 17.2239L77.1095 17.2345C77.0216 17.5134 77.0463 17.8157 77.1794 18.076C77.2959 18.3039 77.4874 18.4833 77.7194 18.5863L77.8276 18.6285C78.1055 18.7097 78.4043 18.681 78.6621 18.5493C78.9155 18.4196 79.11 18.1991 79.2085 17.9323L79.2087 17.9333L79.7805 16.6399L83.6104 7.98802L83.6403 8.12442L83.8652 7.40915C83.953 7.1303 83.9284 6.82795 83.7953 6.56763C83.6788 6.3397 83.4873 6.16033 83.2553 6.05733L83.1471 6.01511L83.1473 6.01607Z" fill="#121229" stroke="#121229" stroke-width="0.4"/>
<path fill-rule="evenodd" clip-rule="evenodd" d="M8.21882 26.1253C4.94555 26.2898 2.42617 29.1244 2.59404 32.4493L2.77311 35.996C2.89746 38.4589 3.95342 40.7804 5.71835 42.4777L25.0602 61.078L25.0677 61.0652C28.7946 64.5158 31.0361 69.321 31.2943 74.4357L32.1689 91.7584C32.2274 92.916 33.4755 93.594 34.4529 92.9976L44.6187 86.7745C46.1533 85.8331 47.0536 84.1088 46.9618 82.2903L46.5243 73.6249C46.2675 68.5389 47.9864 63.5552 51.315 59.7582L68.6855 39.3125C70.2665 37.447 71.0833 35.0314 70.9589 32.5684L70.7799 29.0218C70.612 25.6968 67.8239 23.1291 64.5506 23.2936L8.21882 26.1253Z" fill="white" stroke="#121229" stroke-width="3" stroke-linecap="round" stroke-linejoin="round"/>
<path d="M9.11769 26.7492L63.7215 24.0033C66.4744 23.8649 68.9428 25.6888 69.6186 28.361L70.3101 31.0964L3.27663 34.4674L3.6902 31.6765C4.09358 28.9501 6.36508 26.8878 9.11769 26.7492Z" fill="#65D1FF" stroke="#121229" stroke-width="3"/>
</svg>
