<svg width="200" height="200" viewBox="0 0 200 200" fill="none" xmlns="http://www.w3.org/2000/svg">
<rect x="85.4773" y="56.0829" width="113.715" height="129.277" rx="10.1196" transform="rotate(7.07165 85.4773 56.0829)" fill="white" stroke="#121229" stroke-width="3"/>
<mask id="mask0_1035_384" style="mask-type:alpha" maskUnits="userSpaceOnUse" x="94" y="76" width="85" height="72">
<rect x="102.387" y="77.7814" width="76.1065" height="59.2478" rx="3.86289" transform="rotate(7.07165 102.387 77.7814)" fill="#FFC24D" stroke="#121229" stroke-width="3"/>
</mask>
<g mask="url(#mask0_1035_384)">
<rect x="102.387" y="77.7814" width="76.1065" height="59.2478" rx="3.86289" transform="rotate(7.07165 102.387 77.7814)" fill="#65D1FF" stroke="#121229" stroke-width="3"/>
<path d="M121.277 96.1952C121.909 96.264 122.521 96.4613 123.076 96.7754C123.561 97.0503 123.995 97.4096 124.356 97.837L124.506 98.0241L140.295 118.75L141.219 119.962L142.415 119.023L155.442 108.791C156.419 108.024 157.654 107.676 158.88 107.819C160.029 107.954 161.088 108.509 161.856 109.379L162.005 109.557L173.621 124.095L171.315 142.827C171.055 144.944 169.127 146.447 167.01 146.182L99.0837 137.689C97.05 137.435 95.5779 135.641 95.7002 133.618L95.7175 133.421L95.9342 131.469L98.0854 113.992L117.734 97.2875C118.222 96.8727 118.787 96.5619 119.396 96.3744C120.005 96.1869 120.645 96.1264 121.277 96.1952Z" fill="white" stroke="#121229" stroke-width="3"/>
</g>
<circle cx="100.438" cy="160.315" r="8.38549" transform="rotate(7.07165 100.438 160.315)" fill="#65D1FF" stroke="#121229" stroke-width="2.68145"/>
<line x1="117.958" y1="162.936" x2="167.747" y2="169.113" stroke="#121229" stroke-width="3" stroke-linecap="round"/>
<rect x="1.67719" y="35.0179" width="113.715" height="129.277" rx="10.1196" transform="rotate(-7.24491 1.67719 35.0179)" fill="white" stroke="#121229" stroke-width="3"/>
<mask id="mask1_1035_384" style="mask-type:alpha" maskUnits="userSpaceOnUse" x="22" y="41" width="86" height="71">
<rect x="23.4274" y="51.8618" width="76.1065" height="59.2478" rx="3.86289" transform="rotate(-7.24491 23.4274 51.8618)" fill="#FFC24D" stroke="#121229" stroke-width="3"/>
</mask>
<g mask="url(#mask1_1035_384)">
<rect x="23.6772" y="52.2989" width="76.1065" height="59.2478" rx="3.86289" transform="rotate(-7.24491 23.6772 52.2989)" fill="#65D1FF" stroke="#121229" stroke-width="3"/>
<path d="M46.5898 65.4834C46.2504 62.812 48.9491 60.7874 51.4188 61.8606L75.2097 72.2026C77.6251 73.2527 78.0383 76.5051 75.9621 78.1257L55.5129 94.0879C53.39 95.7446 50.2708 94.4591 49.9314 91.7877L46.5898 65.4834Z" fill="white" stroke="#121229" stroke-width="3"/>
</g>
<circle cx="41.9474" cy="132.314" r="8.22621" transform="rotate(-7.24491 41.9474 132.314)" fill="#65D1FF" stroke="#121229" stroke-width="3"/>
<line x1="59.5725" y1="130.521" x2="109.342" y2="124.194" stroke="#121229" stroke-width="3" stroke-linecap="round"/>
</svg>
