<svg width="102" height="104" viewBox="0 0 102 104" fill="none" xmlns="http://www.w3.org/2000/svg">
<path d="M91.6653 12.5516C91.2631 12.1555 90.5342 11.9605 89.9407 12.4746L88.9476 13.335L82.0723 19.2921C81.7864 19.5399 81.6518 19.8587 81.6686 20.1859C81.6848 20.4988 81.837 20.7759 82.0402 20.9762C82.4425 21.3723 83.1713 21.5673 83.7648 21.0532L84.7571 20.1932L91.6323 14.2362C91.9184 13.9883 92.0537 13.6691 92.0369 13.3419C92.0207 13.0291 91.8684 12.7518 91.6653 12.5516Z" fill="#121229" stroke="#121229" stroke-width="0.8"/>
<path d="M86.0829 30.9762C85.7058 30.9472 85.3846 31.0753 85.1633 31.3167C84.9516 31.5479 84.8599 31.851 84.8593 32.137C84.858 32.7029 85.2297 33.3603 86.012 33.4207L87.2945 33.5189L96.38 34.2205C96.7572 34.2497 97.0783 34.1215 97.2996 33.88C97.5114 33.6489 97.6029 33.3457 97.6037 33.0597C97.605 32.4938 97.2334 31.8364 96.4509 31.776L95.1687 31.6765L86.0829 30.9762Z" fill="#121229" stroke="#121229" stroke-width="0.8"/>
<path d="M74.2899 4.02097C73.9721 4.02844 73.6688 4.15738 73.4428 4.38159C73.2241 4.59864 73.0946 4.88904 73.0767 5.19606L72.9374 6.4728L71.9419 15.5606L71.9402 15.583L71.9393 15.605C71.9399 15.9278 72.0674 16.2377 72.2938 16.4672C72.5202 16.6967 72.828 16.8271 73.1502 16.8312L73.1643 16.8321C73.482 16.8247 73.7853 16.6955 74.0114 16.4715C74.2304 16.2543 74.36 15.9631 74.3778 15.6557L74.5176 14.3798L75.5126 5.2912L75.5148 5.26961L75.5152 5.24681C75.5145 4.92424 75.3874 4.61476 75.1612 4.38541C74.9348 4.15594 74.6265 4.02463 74.3043 4.02053L74.2977 4.02093L74.2899 4.02097Z" fill="#121229" stroke="#121229" stroke-width="0.8"/>
<rect x="-1.64987" y="-1.33603" width="70.3712" height="70.5015" rx="13.5" transform="matrix(0.994603 -0.103753 0.105308 0.994439 1.93648 33.9209)" fill="#01CFFD" stroke="#121229" stroke-width="3"/>
<path d="M45.2236 52.1204L51.9201 51.426C53.0164 51.3124 54.0315 52.135 54.1491 53.2389L54.8645 59.9558C54.9821 61.0597 54.1625 62.0725 53.0663 62.1864C51.9698 62.3001 50.9549 61.4775 50.8373 60.3734L50.3372 55.6783L45.6543 56.164C44.5579 56.2776 43.5429 55.455 43.4253 54.351C43.3151 53.3159 44.0286 52.3611 45.0217 52.1522L45.2236 52.1204Z" fill="white" stroke="white"/>
<path d="M50.5088 52.17C51.2029 51.3098 52.4948 51.1759 53.3549 51.8748C54.2162 52.5748 54.3546 53.875 53.6596 54.7365L41.094 70.3134C40.7057 70.7947 40.1687 71.0655 39.544 71.0761L39.5449 71.076C38.9577 71.0833 38.384 70.8202 37.9723 70.3349L33.7384 65.2063L33.3473 64.7334L32.9629 65.2092L25.3336 74.6669C24.9724 75.1147 24.4849 75.3549 23.9738 75.4079C23.4627 75.4609 22.9352 75.326 22.4876 74.9622C21.6264 74.2622 21.4881 72.9629 22.1829 72.1014L31.7573 60.2328C32.1454 59.7517 32.6817 59.48 33.3062 59.4693L33.3063 59.4703C33.8201 59.464 34.3229 59.6644 34.7163 60.0397L34.878 60.2115L39.1119 65.3401L39.503 65.813L39.8873 65.3362L50.5088 52.17Z" fill="white" stroke="white"/>
</svg>
