<svg width="100" height="100" viewBox="0 0 100 100" fill="none" xmlns="http://www.w3.org/2000/svg">
<path d="M90.7971 15.9488C90.4488 15.607 89.8124 15.435 89.2933 15.8833L88.4843 16.5816L82.8882 21.4182L82.8001 21.5018C82.6106 21.7034 82.5203 21.9497 82.5333 22.2038C82.5476 22.4803 82.682 22.7225 82.8583 22.8957C83.2065 23.2378 83.8433 23.4106 84.3626 22.9621L85.1711 22.263L90.7677 17.4272C91.0164 17.2123 91.1374 16.932 91.1226 16.6415C91.1084 16.365 90.9734 16.122 90.7971 15.9488Z" fill="#121229" stroke="#121229" stroke-width="0.8"/>
<path d="M86.2067 30.8864C85.8786 30.8612 85.5944 30.9726 85.3978 31.1866C85.2104 31.3904 85.1312 31.656 85.1306 31.9035C85.1296 32.3921 85.4534 32.9681 86.1388 33.0208L87.1818 33.1008L94.5785 33.6701C94.9066 33.6954 95.1908 33.584 95.3874 33.37C95.5747 33.1661 95.654 32.9005 95.6546 32.6531C95.6556 32.1645 95.3318 31.5885 94.6464 31.5358L93.6034 31.4557L86.2067 30.8864Z" fill="#121229" stroke="#121229" stroke-width="0.8"/>
<path d="M76.5985 9.00203C76.3209 9.00856 76.0562 9.12105 75.8587 9.31638C75.6684 9.50473 75.5557 9.75635 75.5393 10.0229L75.4247 11.0588L74.615 18.4376L74.6128 18.4592L74.6124 18.4819C74.6131 18.7636 74.7247 19.0339 74.9227 19.2342C75.121 19.4346 75.3906 19.5488 75.6725 19.5524L75.6795 19.5528L75.6869 19.5519C75.9646 19.5454 76.2297 19.4338 76.4272 19.2384C76.6174 19.0502 76.7301 18.7983 76.7466 18.5319L76.8607 17.4951L77.6709 10.1172L77.6726 10.0948L77.6721 10.0725C77.6715 9.79069 77.5609 9.52011 77.3627 9.31974C77.1644 9.1194 76.8948 9.00518 76.6129 9.0016L76.6064 9.00199L76.5985 9.00203Z" fill="#121229" stroke="#121229" stroke-width="0.8"/>
<path d="M16.193 68.1172L5.89837 85.5969C5.45394 86.6564 5.29442 87.818 5.43589 88.9649C5.57737 90.1117 6.01483 91.2031 6.7042 92.1292C7.35681 93.0349 8.22537 93.7593 9.22788 94.2342C10.2304 94.709 11.3338 94.9186 12.4338 94.8431L82.0959 90.2046C83.1963 90.1335 84.2583 89.7798 85.1815 89.1767C86.1047 88.5736 86.8587 87.7411 87.3724 86.7578C87.8673 85.7237 88.0833 84.5736 87.9987 83.4231C87.914 82.2727 87.5318 81.1624 86.8902 80.204L74.4605 64.2374" fill="white"/>
<path d="M16.193 68.1172L5.89837 85.5969C5.45394 86.6564 5.29442 87.818 5.43589 88.9649C5.57737 90.1117 6.01483 91.2031 6.7042 92.1292C7.35681 93.0349 8.22537 93.7593 9.22788 94.2342C10.2304 94.709 11.3338 94.9186 12.4338 94.8431L82.0959 90.2046C83.1963 90.1335 84.2583 89.7798 85.1815 89.1767C86.1047 88.5736 86.8587 87.7411 87.3724 86.7578C87.8673 85.7237 88.0833 84.5736 87.9987 83.4231C87.914 82.2727 87.5318 81.1624 86.8902 80.204L74.4605 64.2374" stroke="#121229" stroke-width="2.5" stroke-linecap="round" stroke-linejoin="round"/>
<path d="M19.9549 28.8182C18.2405 28.9322 16.6472 29.7283 15.5255 31.0314C14.4037 32.3344 13.8454 34.0377 13.9733 35.7665L16.3852 68.3588L74.5602 64.49L72.1484 31.8977C72.0204 30.1689 71.2167 28.5562 69.914 27.4143C68.6114 26.2725 66.9164 25.6951 65.2021 25.8091L19.9549 28.8182Z" fill="#01CFFD" stroke="#121229" stroke-width="2.5" stroke-linecap="round" stroke-linejoin="round"/>
</svg>
