<svg width="100" height="100" viewBox="0 0 100 100" fill="none" xmlns="http://www.w3.org/2000/svg">
<path d="M36.5001 83C55.0017 83 70.0003 68.0015 70.0003 49.5C70.0003 30.9985 55.0017 16 36.5001 16C17.9985 16 3 30.9985 3 49.5C3 68.0015 17.9985 83 36.5001 83Z" fill="#FFEC18" stroke="#121229" stroke-width="2.5"/>
<path d="M71.472 24.4701C70.7495 23.2877 69.5973 22.4308 68.2569 22.0794C66.9165 21.7279 65.492 21.9091 64.2823 22.585C52.6258 29.0634 43.0185 39.1458 35.0773 49.8339L27.7352 42.1054C25.8379 40.1083 22.1898 40.0506 20.3035 42.1054C19.3434 43.1041 18.8071 44.4357 18.8071 45.8211C18.8071 47.2065 19.3434 48.5382 20.3035 49.5369C24.1864 53.6241 28.0692 57.7112 31.9521 61.7983C34.3665 64.3398 38.4345 63.5077 40.2054 60.7347C40.6746 60.0001 41.172 59.2823 41.6718 58.5684C42.2284 57.7734 42.7954 56.9858 43.3729 56.2057C43.6799 55.7905 43.9898 55.3774 44.3027 54.9665C44.5844 54.6713 44.835 54.3478 45.0505 54.0012C49.3601 48.4735 54.1875 43.3698 59.4669 38.7594C60.322 38.0233 61.1918 37.3049 62.0764 36.6042C62.2456 36.4704 62.4178 36.34 62.5859 36.2049C62.2229 36.4968 62.0581 36.6289 62.0091 36.6682C62.0867 36.6061 62.4221 36.3384 62.5528 36.2406C62.9852 35.9168 63.4214 35.5979 63.8613 35.2841C65.7005 33.97 67.612 32.76 69.5867 31.6599C71.9917 30.3233 72.9869 26.8198 71.472 24.4701Z" fill="white" stroke="#121229" stroke-width="2.5"/>
<path d="M85.6343 12.0359C85.2674 11.6758 84.5994 11.4965 84.055 11.9666L83.1832 12.7203L77.1487 17.9342C76.8871 18.1602 76.7611 18.4537 76.7767 18.7567C76.7917 19.0454 76.933 19.2994 77.1186 19.4817C77.4855 19.842 78.1534 20.0214 78.6978 19.551L79.5701 18.7982L85.6042 13.5835C85.8655 13.3576 85.9912 13.065 85.9758 12.7623C85.9609 12.4734 85.8199 12.2183 85.6343 12.0359Z" fill="#121229" stroke="#121229" stroke-width="0.8"/>
<path d="M80.7046 28.1505C80.3596 28.124 80.0622 28.2407 79.8571 28.4639C79.6615 28.6769 79.5777 28.9549 79.5771 29.2153C79.5759 29.7299 79.9162 30.3331 80.6346 30.3887L81.7603 30.4751L89.735 31.0885C90.0798 31.1151 90.3765 30.9986 90.5816 30.7756C90.7774 30.5626 90.8618 30.2842 90.8624 30.0237C90.8636 29.509 90.5228 28.9061 89.8041 28.8508L88.6793 28.7639L80.7046 28.1505Z" fill="#121229" stroke="#121229" stroke-width="0.8"/>
<path d="M70.3488 4.55507C70.0573 4.56183 69.7791 4.68013 69.5718 4.88521C69.3722 5.08295 69.2537 5.34701 69.2366 5.6268L69.1129 6.74464L68.2403 14.6999L68.238 14.7215L68.2377 14.7443C68.2382 15.04 68.3558 15.3234 68.5637 15.5337C68.7717 15.7438 69.0542 15.8642 69.3499 15.868L69.3564 15.8676L69.3635 15.868C69.655 15.8613 69.9331 15.743 70.1404 15.5379C70.3405 15.3399 70.4591 15.0752 70.476 14.795L70.5988 13.6776L71.472 5.7232L71.4745 5.70029L71.4741 5.67801C71.4735 5.38249 71.3571 5.09913 71.1493 4.88897C70.9414 4.67877 70.6588 4.55842 70.3632 4.55464L70.3561 4.55418L70.3488 4.55507Z" fill="#121229" stroke="#121229" stroke-width="0.8"/>
</svg>
