<svg width="100" height="100" viewBox="0 0 100 100" fill="none" xmlns="http://www.w3.org/2000/svg">
<path d="M89.7968 15.949C89.4485 15.6073 88.8121 15.4352 88.2931 15.8835L87.484 16.5818L81.888 21.4184L81.7998 21.5021C81.6103 21.7036 81.52 21.9499 81.5331 22.2041C81.5473 22.4806 81.6818 22.7228 81.8581 22.896C82.2063 23.238 82.8431 23.4108 83.3623 22.9623L84.1709 22.2632L89.7674 17.4274C90.0161 17.2125 90.1372 16.9322 90.1224 16.6418C90.1081 16.3653 89.9732 16.1222 89.7968 15.949Z" fill="#121229" stroke="#121229" stroke-width="0.8"/>
<path d="M85.2069 30.8867C84.8788 30.8615 84.5947 30.9728 84.398 31.1868C84.2106 31.3907 84.1314 31.6563 84.1308 31.9037C84.1298 32.3924 84.4537 32.9683 85.139 33.021L86.182 33.1011L93.5788 33.6704C93.9068 33.6956 94.191 33.5842 94.3877 33.3702C94.575 33.1664 94.6542 32.9007 94.6548 32.6533C94.6558 32.1647 94.332 31.5887 93.6467 31.536L92.6036 31.456L85.2069 30.8867Z" fill="#121229" stroke="#121229" stroke-width="0.8"/>
<path d="M75.5985 9.00227C75.3209 9.0088 75.0562 9.12129 74.8587 9.31662C74.6684 9.50497 74.5557 9.7566 74.5393 10.0231L74.4247 11.0591L73.615 18.4378L73.6128 18.4594L73.6124 18.4822C73.6131 18.7639 73.7247 19.0342 73.9227 19.2345C74.121 19.4349 74.3906 19.549 74.6725 19.5526L74.6795 19.5531L74.6869 19.5522C74.9646 19.5457 75.2297 19.434 75.4272 19.2387C75.6174 19.0504 75.7301 18.7986 75.7466 18.5322L75.8607 17.4954L76.6709 10.1175L76.6726 10.095L76.6721 10.0728C76.6715 9.79093 76.5609 9.52035 76.3627 9.31998C76.1644 9.11964 75.8948 9.00542 75.6129 9.00184L75.6064 9.00224L75.5985 9.00227Z" fill="#121229" stroke="#121229" stroke-width="0.8"/>
<path d="M15.1935 68.1172L4.89886 85.5969C4.45443 86.6564 4.29491 87.818 4.43638 88.9649C4.57786 90.1117 5.01532 91.2031 5.70469 92.1292C6.3573 93.0349 7.22586 93.7593 8.22836 94.2342C9.23087 94.709 10.3342 94.9186 11.4343 94.8431L81.0964 90.2046C82.1968 90.1335 83.2588 89.7798 84.182 89.1767C85.1052 88.5736 85.8592 87.7411 86.3729 86.7578C86.8678 85.7237 87.0838 84.5736 86.9992 83.4231C86.9145 82.2727 86.5322 81.1624 85.8907 80.204L73.461 64.2374" fill="white"/>
<path d="M15.1935 68.1172L4.89886 85.5969C4.45443 86.6564 4.29491 87.818 4.43638 88.9649C4.57786 90.1117 5.01532 91.2031 5.70469 92.1292C6.3573 93.0349 7.22586 93.7593 8.22836 94.2342C9.23087 94.709 10.3342 94.9186 11.4343 94.8431L81.0964 90.2046C82.1968 90.1335 83.2588 89.7798 84.182 89.1767C85.1052 88.5736 85.8592 87.7411 86.3729 86.7578C86.8678 85.7237 87.0838 84.5736 86.9992 83.4231C86.9145 82.2727 86.5322 81.1624 85.8907 80.204L73.461 64.2374" stroke="#121229" stroke-width="2.5" stroke-linecap="round" stroke-linejoin="round"/>
<path d="M18.9551 28.8182C17.2408 28.9322 15.6475 29.7283 14.5257 31.0314C13.404 32.3344 12.8456 34.0377 12.9736 35.7665L15.3854 68.3588L73.5605 64.49L71.1486 31.8977C71.0207 30.1689 70.217 28.5562 68.9143 27.4143C67.6116 26.2725 65.9167 25.6951 64.2023 25.8091L18.9551 28.8182Z" fill="#FFEC18" stroke="#121229" stroke-width="2.5" stroke-linecap="round" stroke-linejoin="round"/>
<path d="M64.9629 43.2046C64.9629 40.4432 67.2015 38.2046 69.9629 38.2046H92.2029C94.9643 38.2046 97.2029 40.4432 97.2029 43.2046V92.7246C97.2029 95.486 94.9643 97.7246 92.2029 97.7246H69.9629C67.2015 97.7246 64.9629 95.486 64.9629 92.7246V43.2046Z" fill="#FFEC18" stroke="#121229" stroke-width="2.5"/>
<path d="M73.6426 38.8247H89.1426V39.5447C89.1426 41.2016 87.7994 42.5447 86.1426 42.5447H76.6426C74.9857 42.5447 73.6426 41.2016 73.6426 39.5447V38.8247Z" fill="white" stroke="#121229" stroke-width="2"/>
</svg>
