<svg width="100" height="100" viewBox="0 0 100 100" fill="none" xmlns="http://www.w3.org/2000/svg">
<path d="M91.638 54.3512C91.7488 53.8888 91.5637 53.3032 90.9614 53.0877L89.7423 52.6516L81.3015 49.633C81.0055 49.5272 80.7344 49.5581 80.5208 49.6936C80.3126 49.8257 80.1796 50.0438 80.124 50.2755C80.0131 50.738 80.1988 51.324 80.8014 51.5396L82.0205 51.9756L90.4605 54.9937C90.7566 55.0996 91.0276 55.0687 91.2413 54.9332C91.4496 54.801 91.5824 54.583 91.638 54.3512Z" fill="#121229" stroke="#121229" stroke-width="0.4"/>
<path d="M73.1723 58.7027C73.0296 58.4184 72.8076 58.2494 72.5582 58.1905C72.3146 58.133 72.0628 58.1845 71.8543 58.3011C71.4378 58.534 71.1405 59.0693 71.4328 59.6518L72.0044 60.7906L76.0536 68.8589C76.1963 69.143 76.4176 69.3117 76.6669 69.3706C76.9104 69.428 77.1623 69.3766 77.3708 69.26C77.7873 69.0271 78.0846 68.4918 77.7922 67.9092L77.2215 66.7709L73.1723 58.7027Z" fill="#121229" stroke="#121229" stroke-width="0.4"/>
<path d="M90.3435 35.5977C90.202 35.3736 89.9812 35.2093 89.7273 35.1367C89.4781 35.0656 89.2128 35.0883 88.9837 35.2022L87.834 35.6876L79.6522 39.144L79.6415 39.1491L79.6316 39.1546C79.4017 39.2845 79.2353 39.5014 79.1694 39.7583C79.1036 40.0154 79.1442 40.29 79.2794 40.5216L79.283 40.5271C79.4245 40.7513 79.6447 40.9164 79.8987 40.989C80.1478 41.06 80.4133 41.0373 80.6423 40.9235L81.7911 40.4376L89.4326 37.2095L89.3672 37.3247L89.9936 36.9705C90.2239 36.8406 90.3913 36.6238 90.4571 36.3665C90.5229 36.1095 90.4817 35.8357 90.3466 35.6041L90.3435 35.5977Z" fill="#121229" stroke="#121229" stroke-width="0.4"/>
<path d="M61.589 94.5273C61.8735 94.3867 62.1275 94.1915 62.3365 93.9527C62.5455 93.714 62.7055 93.4364 62.8072 93.1359C62.9089 92.8353 62.9505 92.5177 62.9295 92.2011C62.9085 91.8844 62.8253 91.5751 62.6847 91.2906L47.3559 61.0044L43.0234 63.1453L58.3523 93.4315C58.6362 94.0061 59.1367 94.4443 59.7437 94.6498C60.3507 94.8552 61.0145 94.8112 61.589 94.5273Z" fill="white"/>
<path d="M47.5413 60.2959L47.675 60.3457C47.7603 60.3868 47.8368 60.4438 47.9006 60.5137L47.9866 60.6279L47.9954 60.6426L48.0032 60.6582C48.0271 60.7065 48.0374 60.7291 48.054 60.7607C48.1053 60.8591 48.1548 60.9586 48.2053 61.0576L48.6614 61.1777L48.3459 61.333C48.6804 62.0002 49.0013 62.6771 49.3245 63.3311L51.8889 68.5215L51.9836 68.7129L51.9973 68.7402H51.9963L53.4045 71.5908L53.4895 71.5498L57.5081 79.6816L60.6702 86.082L62.6067 90C62.7338 90.2572 62.8649 90.5192 62.9924 90.7803C63.7401 92.3111 63.2538 94.2675 61.6252 95.0723C61.6231 95.0733 61.6206 95.0751 61.6184 95.0762L61.6174 95.0752C61.0423 95.3559 60.3965 95.4588 59.7629 95.3682C59.127 95.2772 58.533 94.9968 58.0588 94.5635L58.0569 94.5615C57.6944 94.2255 57.4275 93.7862 57.2112 93.3623C57.102 93.1484 57.0021 92.9304 56.9084 92.7246C56.8135 92.516 56.7265 92.3217 56.6379 92.1426L54.3713 87.5557L54.0012 86.8076L53.9172 86.8496L49.343 77.5928L45.1311 69.0684V69.0674L43.2502 65.2607L42.6907 64.1279L42.5823 64.1816L42.6292 64.0039L42.3752 63.4912L42.3772 63.4902C42.2918 63.327 42.2679 63.1386 42.3147 62.96L42.3645 62.8262C42.4261 62.6983 42.5238 62.5895 42.6467 62.5146L42.6614 62.5059L42.677 62.498L43.0754 62.3008L43.1975 61.8379L43.3567 62.1611L46.3723 60.6719L46.3196 60.5645L46.4954 60.6113L47.01 60.3564V60.3584C47.1311 60.2949 47.2657 60.2648 47.4006 60.2734L47.5413 60.2959ZM44.0237 63.4688C44.3614 64.1306 44.6679 64.8172 44.9788 65.4463L47.6145 70.7783H47.6125L48.8557 73.2939L48.9407 73.2529L52.969 81.4043L56.1721 87.8877L58.1848 91.96L58.6272 92.8555C58.6521 92.9058 58.667 92.938 58.6868 92.9766L58.6897 92.9824C58.8878 93.3817 59.234 93.6882 59.6545 93.8359C60.073 93.9829 60.532 93.9605 60.9348 93.7754C61.3334 93.5775 61.6389 93.2324 61.7864 92.8125C61.934 92.3919 61.9112 91.9304 61.7229 91.5264C61.4528 90.9462 61.1601 90.3872 60.8684 89.7969L58.5383 85.082L58.1887 84.375L58.1057 84.416L53.5647 75.2266L49.3782 66.7549V66.7539L47.5667 63.0879L47.0227 61.9873L44.0237 63.4688Z" fill="#121229" stroke="#121229" stroke-width="0.8"/>
<path d="M32.7613 68.1854C50.1162 68.1854 64.1852 54.1165 64.1852 36.7615C64.1852 19.4066 50.1162 5.33765 32.7613 5.33765C15.4064 5.33765 1.3374 19.4066 1.3374 36.7615C1.3374 54.1165 15.4064 68.1854 32.7613 68.1854Z" fill="white"/>
<path d="M32.54 4.60059C38.3165 4.55848 43.9978 6.07246 48.9873 8.9834C53.9768 11.8944 58.0904 16.0953 60.8965 21.1445C63.7026 26.1938 65.0974 31.9054 64.9346 37.6797C64.7718 43.4539 63.0577 49.0779 59.9717 53.9609C56.8856 58.8441 52.5411 62.8064 47.3955 65.4316C42.2499 68.0568 36.4924 69.2484 30.7275 68.8809C24.9627 68.5133 19.4034 66.6001 14.6328 63.3428C9.8622 60.0854 6.05627 55.6037 3.61523 50.3682V50.3672C2.19807 47.3091 1.26396 44.0497 0.847656 40.7051V40.7041L0.777344 40.0889C0.626283 38.651 0.571878 37.2044 0.614258 35.7588V35.7578C0.713819 32.459 1.32304 29.1954 2.4209 26.083L2.62988 25.5098C4.83965 19.6184 8.72368 14.4961 13.8096 10.7764C16.4606 8.83843 19.3945 7.31985 22.5078 6.27539C25.7428 5.19288 29.1288 4.62754 32.54 4.60059ZM50.1318 11.4424C43.5898 6.9497 35.5615 5.16542 27.7324 6.46484C19.9032 7.76433 12.8815 12.0467 8.1416 18.4121C3.40202 24.7772 1.31298 32.7308 2.31152 40.6035V40.6045L2.3916 41.1924C2.59161 42.562 2.88234 43.917 3.26367 45.248C4.9927 51.2667 8.52235 56.6121 13.3779 60.5664C18.2337 64.5207 24.1836 66.8947 30.4277 67.3691L31.0361 67.4082C34.0789 67.5735 37.1306 67.2898 40.0928 66.5654C43.1748 65.8107 46.1204 64.5806 48.8242 62.9199C54.1041 59.6678 58.2804 54.8991 60.8076 49.2363L60.8086 49.2354C62.0802 46.3901 62.9065 43.3661 63.2588 40.2695L63.3213 39.6621C63.6036 36.6217 63.4353 33.5547 62.8203 30.5615C61.2222 22.7878 56.6739 15.9352 50.1318 11.4424Z" fill="#121229" stroke="#121229" stroke-width="0.8"/>
<path d="M32.7612 62.7416C47.1095 62.7416 58.7411 51.11 58.7411 36.7616C58.7411 22.4133 47.1095 10.7817 32.7612 10.7817C18.4129 10.7817 6.78125 22.4133 6.78125 36.7616C6.78125 51.11 18.4129 62.7416 32.7612 62.7416Z" fill="#01CFFD"/>
<path d="M33.3501 10.051C37.2069 10.1341 41.0038 11.0516 44.4771 12.7444C48.1818 14.55 51.4188 17.1885 53.9341 20.4534C56.4494 23.7182 58.1751 27.5209 58.9761 31.5637C59.727 35.354 59.6461 39.2595 58.7427 43.01L58.5503 43.7581C57.1095 49.0494 54.0771 53.7703 49.8638 57.2805C45.7822 60.6808 40.7836 62.7863 35.5073 63.3342L34.9956 63.3821C29.5503 63.8453 24.0941 62.6254 19.3647 59.887C14.6353 57.1484 10.8602 53.023 8.55127 48.0696V48.0686C7.37234 45.5246 6.59555 42.813 6.24951 40.0305L6.17725 39.3918C5.5123 32.7893 7.34046 26.1669 11.3159 20.8342C12.9251 18.6731 14.8486 16.7647 17.022 15.1721L17.438 14.8743C19.5294 13.4068 21.8226 12.2486 24.2466 11.4358L24.7515 11.2717C27.2844 10.4795 29.9218 10.066 32.5776 10.0452L33.3501 10.051ZM32.6245 11.5334C29.0548 11.5532 25.5293 12.3298 22.2817 13.8118C19.0343 15.2938 16.1377 17.4477 13.7837 20.1311C11.4296 22.8146 9.67194 25.9672 8.62549 29.3801C7.57912 32.7928 7.26825 36.3883 7.71338 39.9299L7.77881 40.4133C7.94337 41.5379 8.18316 42.6505 8.49658 43.7434C9.91873 48.6936 12.8215 53.0903 16.8149 56.343C20.8084 59.5957 25.7017 61.5487 30.8374 61.9397H30.8364C33.5059 62.1376 36.1903 61.9142 38.7905 61.2786C41.3268 60.6576 43.7511 59.6461 45.9761 58.2795L46.3804 58.0247C50.5339 55.3567 53.8217 51.5325 55.8354 47.0178V47.0168C56.8797 44.68 57.5587 42.1967 57.8481 39.6536L57.9155 38.9875C58.2076 35.6583 57.8361 32.3019 56.8198 29.1135C55.7357 25.7124 53.9427 22.5794 51.5591 19.9221C49.1755 17.2649 46.2553 15.1435 42.9917 13.6975C39.7279 12.2515 36.1942 11.5137 32.6245 11.5334Z" fill="#121229" stroke="#121229" stroke-width="0.8"/>
</svg>
