<svg width="100" height="100" viewBox="0 0 100 100" fill="none" xmlns="http://www.w3.org/2000/svg">
<rect x="12.4287" y="2.75" width="42.9859" height="73.9628" rx="21.493" stroke="#121229" stroke-width="3.5"/>
<path d="M16 35.6436H52C59.8701 35.6436 66.25 42.0235 66.25 49.8936V70.7031C66.2499 85.3646 54.3646 97.2499 39.7031 97.25H28.2969C13.6355 97.2499 1.7501 85.3645 1.75 70.7031V49.8936C1.75 42.0235 8.12995 35.6436 16 35.6436Z" fill="#FFEC18" stroke="#121229" stroke-width="3.5"/>
<path d="M34.1157 50.95C35.0973 50.9681 36.0485 51.2166 36.8735 51.6609C37.6977 52.1047 38.3584 52.7231 38.8081 53.4382C39.2567 54.1519 39.4841 54.9443 39.4839 55.738H41.2339L39.4839 55.739C39.4842 56.5008 39.2751 57.2608 38.8608 57.9519C38.4456 58.6446 37.8331 59.2521 37.064 59.7048L36.0649 60.2927L36.2173 61.4421L37.8569 73.8582C37.881 74.0406 37.8633 74.228 37.8003 74.4099C37.7369 74.5925 37.6261 74.7745 37.4644 74.9392C37.302 75.1044 37.0919 75.247 36.8423 75.3484C36.5925 75.4498 36.3154 75.5046 36.0308 75.5046H31.9692C31.6846 75.5046 31.4074 75.4498 31.1577 75.3484C30.9082 75.247 30.6979 75.1044 30.5356 74.9392C30.374 74.7746 30.264 74.5925 30.2007 74.4099C30.1376 74.228 30.119 74.0406 30.1431 73.8582L31.7837 61.4421L31.9351 60.2937L30.937 59.7048C30.1361 59.2327 29.5057 58.5939 29.0903 57.866C28.676 57.1398 28.4843 56.3426 28.52 55.5496C28.5558 54.7562 28.8194 53.971 29.3022 53.2712C29.7862 52.5698 30.478 51.9737 31.3247 51.5593C32.1717 51.1448 33.1343 50.9318 34.1157 50.95Z" fill="white" stroke="#121229" stroke-width="3.5"/>
</svg>
