<svg width="100" height="77" viewBox="0 0 100 77" fill="none" xmlns="http://www.w3.org/2000/svg">
<rect x="1" y="1" width="98" height="74.9231" rx="7.79257" fill="white" stroke="#121229" stroke-width="2"/>
<rect x="9.50244" y="11.1216" width="42.9393" height="33.6275" rx="2.73684" fill="#01CFFD" stroke="#121229" stroke-width="2"/>
<path d="M24.887 22.1606C24.8872 21.0113 26.1365 20.2966 27.1272 20.8794L36.5999 26.4517C37.5768 27.0263 37.5768 28.4394 36.5999 29.0142L27.1272 34.5864C26.1364 35.1692 24.8871 34.4546 24.887 33.3052V22.1606Z" fill="white" stroke="#121229" stroke-width="2"/>
<circle cx="17.0045" cy="58.7044" r="7.50202" fill="#01CFFD" stroke="#121229" stroke-width="2"/>
<line x1="30.1501" y1="52.0364" x2="80.3769" y2="52.0364" stroke="#121229" stroke-width="2" stroke-linecap="round"/>
<line x1="30.1501" y1="57.7043" x2="87.6643" y2="57.7043" stroke="#121229" stroke-width="2" stroke-linecap="round"/>
<line x1="30.1501" y1="63.3726" x2="77.5429" y2="63.3726" stroke="#121229" stroke-width="2" stroke-linecap="round"/>
<rect x="58.085" y="11.1216" width="16.6235" height="13.7895" rx="1.61579" fill="#FFEC18" stroke="#121229" stroke-width="2"/>
<rect x="58.085" y="30.9597" width="16.6235" height="13.7895" rx="1.61579" fill="#FFEC18" stroke="#121229" stroke-width="2"/>
<line x1="78.3284" y1="15.1948" x2="90.9033" y2="15.1948" stroke="#121229" stroke-width="2" stroke-linecap="round"/>
<line x1="78.3284" y1="19.2434" x2="87.6644" y2="19.2434" stroke="#121229" stroke-width="2" stroke-linecap="round"/>
<line x1="78.3284" y1="35.0327" x2="90.9033" y2="35.0327" stroke="#121229" stroke-width="2" stroke-linecap="round"/>
<line x1="78.3284" y1="39.0813" x2="87.6644" y2="39.0813" stroke="#121229" stroke-width="2" stroke-linecap="round"/>
</svg>
