<svg width="100" height="100" viewBox="0 0 100 100" fill="none" xmlns="http://www.w3.org/2000/svg">
<path d="M48.2607 8.50098L54.6787 8.81152C54.983 8.82619 55.272 8.95057 55.4912 9.16211C55.7104 9.37363 55.8456 9.65744 55.8711 9.96094L56.6523 19.2725L56.6533 19.2744C56.7219 20.0728 57.0159 20.8356 57.502 21.4727C57.9873 22.1087 58.6441 22.593 59.3945 22.8701V22.8711C60.7701 23.3817 62.1042 23.9987 63.3838 24.7168V24.7158C64.088 25.1133 64.8906 25.3038 65.6982 25.2627C66.5075 25.2214 67.2882 24.9501 67.9492 24.4814L67.9531 24.4795L75.5371 19.0703C75.7851 18.8934 76.0895 18.8124 76.3926 18.8428C76.6955 18.8732 76.9767 19.0129 77.1846 19.2354L81.5723 23.9297C81.7802 24.1523 81.8994 24.4436 81.9092 24.748C81.9189 25.0523 81.8181 25.3496 81.625 25.585L75.7207 32.7773V32.7783C75.2058 33.4062 74.8794 34.1676 74.7812 34.9736C74.6831 35.7797 74.8169 36.597 75.166 37.3301C75.9033 38.8805 76.4976 40.4949 76.9414 42.1533V42.1543C77.1498 42.946 77.5796 43.6628 78.1797 44.2197C78.7796 44.7764 79.5254 45.1509 80.3301 45.2998L80.334 45.3008L89.4688 46.9648C89.7683 47.0194 90.0381 47.1805 90.2275 47.4189C90.4169 47.6574 90.5136 47.9566 90.499 48.2607L90.1895 54.6787C90.1748 54.983 90.0494 55.272 89.8379 55.4912C89.6264 55.7103 89.3426 55.8456 89.0391 55.8711L79.7275 56.6523L79.7256 56.6533C78.9272 56.7219 78.1644 57.0159 77.5273 57.502C76.9698 57.9274 76.5283 58.4846 76.2412 59.1211L76.1289 59.3945C75.6189 60.7685 75.0031 62.1008 74.2861 63.3789C73.8869 64.0842 73.6961 64.8888 73.7373 65.6982C73.7786 66.5075 74.0499 67.2882 74.5186 67.9492L74.5215 67.9531L79.9297 75.5371C80.1066 75.7851 80.1876 76.0895 80.1572 76.3926C80.1267 76.6955 79.9871 76.9767 79.7646 77.1846L75.0703 81.5713C74.8477 81.7793 74.5564 81.8994 74.252 81.9092C73.9477 81.9189 73.6504 81.8181 73.415 81.625L66.2227 75.7207H66.2217C65.5938 75.2058 64.8324 74.8794 64.0264 74.7812C63.321 74.6954 62.6069 74.7868 61.9482 75.0449L61.6699 75.166C60.3116 75.8119 58.9041 76.3482 57.4609 76.7695L56.8457 76.9414C56.054 77.1498 55.3382 77.5796 54.7812 78.1797C54.2244 78.7797 53.8491 79.5252 53.7002 80.3301L53.6992 80.334L52.0352 89.4688C51.9805 89.7683 51.8195 90.0381 51.5811 90.2275C51.3426 90.4169 51.0434 90.5136 50.7393 90.499L44.3213 90.1885C44.017 90.1738 43.728 90.0494 43.5088 89.8379C43.2897 89.6264 43.1544 89.3426 43.1289 89.0391L42.3477 79.7275L42.3467 79.7246C42.278 78.9264 41.984 78.1642 41.498 77.5273C41.0125 76.891 40.3554 76.406 39.6045 76.1289H39.6055C38.2299 75.6183 36.8958 75.0013 35.6162 74.2832H35.6152C34.9113 73.8862 34.109 73.6972 33.3018 73.7383C32.4926 73.7796 31.7117 74.0499 31.0508 74.5186L31.0479 74.5215L23.4629 79.9297C23.215 80.1064 22.9113 80.1875 22.6084 80.1572C22.3053 80.1268 22.0234 79.9872 21.8154 79.7646L17.4287 75.0703C17.2207 74.8477 17.1006 74.5564 17.0908 74.252C17.0812 73.9477 17.1819 73.6503 17.375 73.415L23.2793 66.2227V66.2217C23.7942 65.5938 24.1206 64.8324 24.2188 64.0264C24.3046 63.321 24.2132 62.6069 23.9551 61.9482L23.834 61.6699C23.0957 60.1174 22.5006 58.5006 22.0566 56.8398C21.8477 56.0504 21.4189 55.3368 20.8203 54.7812C20.2953 54.294 19.659 53.9457 18.9688 53.7666L18.6699 53.7002L18.666 53.6992L9.53125 52.0352C9.23164 51.9805 8.96186 51.8195 8.77246 51.5811C8.58309 51.3426 8.48639 51.0434 8.50098 50.7393L8.81152 44.3213C8.8262 44.017 8.95059 43.728 9.16211 43.5088C9.37363 43.2897 9.65746 43.1544 9.96094 43.1289L19.2725 42.3477L19.2744 42.3467C20.0728 42.2781 20.8356 41.9841 21.4727 41.498C22.1089 41.0125 22.593 40.3553 22.8701 39.6045L22.8711 39.6055C23.3817 38.2299 23.9987 36.8958 24.7168 35.6162L24.7158 35.6152C25.113 34.9112 25.3038 34.1091 25.2627 33.3018C25.2214 32.4925 24.9501 31.7118 24.4814 31.0508L24.4795 31.0479L19.0703 23.4629C18.8935 23.215 18.8125 22.9113 18.8428 22.6084C18.8732 22.3053 19.0128 22.0234 19.2354 21.8154L23.9297 17.4287C24.1523 17.2207 24.4436 17.1006 24.748 17.0908C25.0523 17.0811 25.3496 17.1819 25.585 17.375L32.7773 23.2793H32.7783C33.4062 23.7942 34.1676 24.1206 34.9736 24.2188C35.7797 24.3169 36.597 24.1831 37.3301 23.834L37.3291 23.833C38.8797 23.0956 40.4947 22.5015 42.1533 22.0576L42.1543 22.0586C42.946 21.8502 43.6618 21.4204 44.2188 20.8203C44.7756 20.2204 45.1509 19.4748 45.2998 18.6699L45.3008 18.666L46.9639 9.53125C47.0185 9.23158 47.1804 8.96191 47.4189 8.77246C47.6574 8.58309 47.9566 8.4864 48.2607 8.50098Z" fill="white" stroke="#121229" stroke-width="3"/>
<path d="M49.5 33.4797C58.3476 33.4799 65.5195 40.6526 65.5195 49.5002C65.5194 58.3478 58.3475 65.5196 49.5 65.5198C40.6523 65.5198 33.4796 58.3479 33.4795 49.5002C33.4795 40.6525 40.6523 33.4797 49.5 33.4797Z" fill="#FFEC18" stroke="#121229" stroke-width="3"/>
<path d="M49.4999 56.4238C53.3237 56.4238 56.4236 53.324 56.4236 49.5001C56.4236 45.6763 53.3237 42.5764 49.4999 42.5764C45.676 42.5764 42.5762 45.6763 42.5762 49.5001C42.5762 53.324 45.676 56.4238 49.4999 56.4238Z" fill="#121229" stroke="#121229" stroke-width="1.238" stroke-miterlimit="10" stroke-linecap="round"/>
</svg>
