<svg width="100" height="101" viewBox="0 0 100 101" fill="none" xmlns="http://www.w3.org/2000/svg">
<rect x="97.6087" y="75.4951" width="20.8052" height="106.568" rx="3.75" transform="rotate(135 97.6087 75.4951)" fill="#FFEE33" stroke="#121229" stroke-width="2.5"/>
<rect x="69.3701" y="54.7363" width="1.86442" height="5.59325" rx="0.932208" transform="rotate(-135 69.3701 54.7363)" fill="#121229"/>
<rect x="77.7603" y="63.126" width="1.86442" height="5.59325" rx="0.932208" transform="rotate(-135 77.7603 63.126)" fill="#121229"/>
<rect x="86.1499" y="71.5159" width="1.86442" height="5.59325" rx="0.932208" transform="rotate(-135 86.1499 71.5159)" fill="#121229"/>
<rect x="64.1074" y="52.5413" width="1.86442" height="7.76243" rx="0.932208" transform="rotate(-135 64.1074 52.5413)" fill="#121229"/>
<rect x="72.167" y="59.999" width="1.86442" height="7.76243" rx="0.932208" transform="rotate(-135 72.167 59.999)" fill="#121229"/>
<rect x="80.5566" y="68.3889" width="1.86442" height="7.76243" rx="0.932208" transform="rotate(-135 80.5566 68.3889)" fill="#121229"/>
<rect x="22.7588" y="8.12573" width="1.86442" height="5.59325" rx="0.932208" transform="rotate(-135 22.7588 8.12573)" fill="#121229"/>
<rect x="31.1489" y="16.5156" width="1.86442" height="5.59325" rx="0.932208" transform="rotate(-135 31.1489 16.5156)" fill="#121229"/>
<rect x="39.5386" y="24.9055" width="1.86442" height="5.59325" rx="0.932208" transform="rotate(-135 39.5386 24.9055)" fill="#121229"/>
<rect x="47.9287" y="33.2954" width="1.86442" height="5.59325" rx="0.932208" transform="rotate(-135 47.9287 33.2954)" fill="#121229"/>
<rect x="25.5557" y="13.3884" width="1.86442" height="7.76243" rx="0.932208" transform="rotate(-135 25.5557 13.3884)" fill="#121229"/>
<rect x="33.9453" y="21.7783" width="1.86442" height="7.76243" rx="0.932208" transform="rotate(-135 33.9453 21.7783)" fill="#121229"/>
<rect x="42.3354" y="30.1682" width="1.86442" height="7.76243" rx="0.932208" transform="rotate(-135 42.3354 30.1682)" fill="#121229"/>
<rect x="88.9468" y="76.7788" width="1.86442" height="7.76243" rx="0.932208" transform="rotate(-135 88.9468 76.7788)" fill="#121229"/>
<path d="M13.5421 72.2873L82.3925 3.43691C85.3082 0.521286 90.035 0.521464 92.9508 3.43691C95.8665 6.35268 95.8672 11.0801 92.9515 13.9959L24.1011 82.8462L13.5421 72.2873Z" fill="#01CFFD" stroke="#121229" stroke-width="2.5"/>
<rect x="47.957" y="50.7936" width="3.40352" height="49.0001" rx="1.70176" transform="rotate(-135 47.957 50.7936)" fill="white" stroke="#121229" stroke-width="2"/>
<path d="M10.2831 87.3723C9.5133 87.6136 8.78927 86.8912 9.02912 86.121L12.468 75.0974L21.2937 83.9217L10.2831 87.3723Z" fill="#121229" stroke="#121229" stroke-width="3"/>
</svg>
