<svg width="100" height="100" viewBox="0 0 100 100" fill="none" xmlns="http://www.w3.org/2000/svg">
<rect x="1.25" y="7.23364" width="78.963" height="85.5328" rx="10.75" fill="white" stroke="#121229" stroke-width="2.5"/>
<path d="M59.7324 37.2681C58.49 37.2683 57.4824 38.2756 57.4824 39.5181V78.3599C57.4824 79.6024 58.49 80.6096 59.7324 80.6099H65.3906C66.6333 80.6099 67.6406 79.6025 67.6406 78.3599V39.5181C67.6406 38.2754 66.6333 37.2681 65.3906 37.2681H59.7324Z" fill="#FFEC18" stroke="#121229" stroke-width="2.5"/>
<path d="M44.4167 46.6353C43.1743 46.6355 42.1667 47.6427 42.1667 48.8853V78.3608C42.167 79.6032 43.1744 80.6106 44.4167 80.6108H49.8279C51.0704 80.6108 52.0777 79.6033 52.0779 78.3608V48.8853C52.0779 47.6426 51.0705 46.6353 49.8279 46.6353H44.4167Z" fill="#FFEC18" stroke="#121229" stroke-width="2.5"/>
<path d="M28.854 54.5767C27.6115 54.5769 26.604 55.5841 26.604 56.8267V78.3599C26.604 79.6024 27.6115 80.6097 28.854 80.6099H34.2651C35.5078 80.6099 36.5151 79.6025 36.5151 78.3599V56.8267C36.5151 55.584 35.5078 54.5767 34.2651 54.5767H28.854Z" fill="#FFEC18" stroke="#121229" stroke-width="2.5"/>
<path d="M13.7866 63.5364C12.5442 63.5366 11.5366 64.5439 11.5366 65.7864V78.3606C11.5367 79.603 12.5442 80.6104 13.7866 80.6106H19.1978C20.4403 80.6106 21.4476 79.6031 21.4478 78.3606V65.7864C21.4478 64.5437 20.4404 63.5364 19.1978 63.5364H13.7866Z" fill="#FFEC18" stroke="#121229" stroke-width="2.5"/>
<path d="M13.4214 46.0036C38.8206 41.7867 53.7268 33.2549 64.1218 23.5464" stroke="#121229" stroke-width="3" stroke-linecap="round"/>
<path d="M67.2527 22.5886C66.8411 23.9264 65.1539 24.3455 64.1642 23.3558C63.0993 22.2909 63.6778 20.4681 65.1618 20.2122C66.5269 19.9767 67.66 21.2646 67.2527 22.5886Z" fill="#121229"/>
<path d="M65.8219 26.0612L61.6941 21.9334L61.106 21.3453C60.7413 20.9806 60.8677 20.2045 61.4329 20.1071L67.1234 19.1259L67.9453 18.9842C68.0712 18.9523 68.2033 18.9536 68.3286 18.988C68.4539 19.0225 68.5681 19.0889 68.66 19.1808C68.7519 19.2727 68.8183 19.3869 68.8528 19.5122C68.8872 19.6375 68.8886 19.7695 68.8566 19.8955L67.2824 25.0117L67.0601 25.7343C66.7805 26.6429 65.3499 26.2554 65.6314 25.3404L67.2056 20.2243L67.2526 20.0715C67.3321 19.813 67.6582 19.732 67.8494 19.9233C68.0552 20.129 67.9434 20.4812 67.6566 20.5307L62.6485 21.3942L62.4227 21.4331C62.1439 21.4812 61.9088 21.2246 61.981 20.951C62.0576 20.6613 62.4195 20.5636 62.6314 20.7755L66.2815 24.4255L66.8696 25.0134C67.5447 25.6886 66.4973 26.7366 65.8219 26.0612Z" fill="#121229"/>
<path d="M67.9992 20.128L66.5836 25.4169L62.5546 20.7053L67.9992 20.128Z" fill="#121229"/>
</svg>
