<svg width="100" height="100" viewBox="0 0 100 100" fill="none" xmlns="http://www.w3.org/2000/svg">
<path d="M97.294 22.9199C97.0206 22.5115 96.4497 22.2332 95.8732 22.5542L94.7153 23.199L86.6986 27.664C86.416 27.8214 86.2586 28.0558 86.2185 28.3153C86.1796 28.5679 86.2548 28.8226 86.3924 29.0282C86.6657 29.4365 87.2364 29.7137 87.8129 29.3929L88.9708 28.7481L96.9692 24.2933L96.9711 24.2927L96.9875 24.2831C97.2702 24.1256 97.4284 23.8912 97.4685 23.6316C97.5073 23.3792 97.4314 23.1252 97.294 22.9199Z" fill="#121229" stroke="#121229" stroke-width="0.4"/>
<path d="M88.1192 40.0271C87.8078 39.9372 87.5298 39.9898 87.3163 40.1432C87.1082 40.2927 86.9788 40.5251 86.928 40.7673C86.8271 41.2485 87.0288 41.85 87.663 42.0332L88.9112 42.3932L97.7517 44.948C98.063 45.0378 98.3412 44.9852 98.5547 44.8318C98.7627 44.6823 98.8921 44.45 98.943 44.2078C99.0439 43.7265 98.8421 43.1252 98.2079 42.9419L96.9597 42.5819L88.1192 40.0271Z" fill="#121229" stroke="#121229" stroke-width="0.4"/>
<path d="M81.9897 11.0303C81.7253 10.982 81.4521 11.0365 81.2266 11.1827C81.0053 11.3263 80.8465 11.5482 80.7805 11.8032L80.3808 13.0337L77.5387 21.7923L77.5349 21.8028L77.5334 21.8136C77.4787 22.0798 77.5304 22.3573 77.6783 22.5854C77.8263 22.8133 78.0584 22.9738 78.3238 23.0324L78.3306 23.0343L78.3672 22.837L78.3315 23.034C78.596 23.0823 78.8692 23.0279 79.0947 22.8816C79.316 22.7379 79.4748 22.5162 79.5407 22.2611L79.9396 21.0309L82.593 12.853L82.6368 12.9856L82.7879 12.2507C82.8425 11.9845 82.7899 11.7072 82.642 11.4792C82.5126 11.2799 82.319 11.1325 82.095 11.0593L81.9897 11.0303Z" fill="#121229" stroke="#121229" stroke-width="0.4"/>
<path fill-rule="evenodd" clip-rule="evenodd" d="M53.9456 25.0414L20.1461 27.0487C8.3795 27.7475 1.40018 35.1995 1.9665 45.1252L3.49407 71.8983C4.06039 81.824 11.8088 88.4013 23.6066 87.7007L57.3867 85.6945C69.204 84.9927 76.1482 77.5428 75.5819 67.6171L74.0543 40.844C73.5036 30.9174 65.7552 24.3401 53.9456 25.0414Z" fill="#01CFFD" stroke="#121229" stroke-width="3" stroke-linecap="round" stroke-linejoin="round"/>
<path d="M27.4842 47.3049C27.3301 44.6041 30.1673 42.7495 32.5744 43.9777L49.6784 52.7056C52.0566 53.9192 52.2465 57.247 50.0223 58.7339L34.0264 69.4275C31.7753 70.9324 28.7463 69.4261 28.5922 66.7254L27.4842 47.3049Z" fill="white" stroke="#121229" stroke-width="3"/>
</svg>
