<svg width="200" height="200" viewBox="0 0 200 200" fill="none" xmlns="http://www.w3.org/2000/svg">
<path d="M182.98 30.6215C182.383 30.0361 181.33 29.767 180.474 30.5063L178.826 31.9305L167.411 41.7943C166.993 42.1555 166.807 42.606 166.831 43.0608C166.853 43.5016 167.069 43.9025 167.37 44.1975C167.966 44.7828 169.02 45.052 169.875 44.3127L171.524 42.8885L182.938 33.0246C183.356 32.6635 183.542 32.213 183.519 31.7582C183.496 31.3174 183.28 30.9164 182.98 30.6215Z" fill="#121229" stroke="#121229" stroke-width="0.8"/>
<path d="M173.876 61.2048C173.325 61.1624 172.872 61.3473 172.564 61.683C172.265 62.0085 172.129 62.4436 172.128 62.8647C172.126 63.7007 172.672 64.642 173.8 64.7288L175.93 64.8919L191.014 66.0529C191.566 66.0953 192.017 65.9098 192.326 65.5743C192.625 65.2487 192.761 64.8133 192.762 64.3922C192.764 63.5563 192.218 62.6161 191.09 62.5294L188.961 62.3658L173.876 61.2048Z" fill="#121229" stroke="#121229" stroke-width="0.8"/>
<path d="M154.322 16.5718C153.862 16.5825 153.423 16.7688 153.096 17.0925C152.776 17.4091 152.587 17.8338 152.564 18.2826L152.332 20.3966L150.68 35.4449L150.678 35.4673L150.677 35.4892C150.678 35.9548 150.863 36.4015 151.19 36.7325C151.518 37.0636 151.963 37.253 152.429 37.2589L152.435 37.2585L152.442 37.2589C152.903 37.2482 153.342 37.0615 153.669 36.7377C153.989 36.4209 154.178 35.9959 154.201 35.5468L154.433 33.4337L156.084 18.385L156.087 18.3629L156.087 18.3407C156.086 17.875 155.902 17.4284 155.574 17.0974C155.247 16.7665 154.802 16.5773 154.337 16.5714L154.329 16.5714L154.322 16.5718Z" fill="#121229" stroke="#121229" stroke-width="0.8"/>
<path d="M31.1147 136.724L10.1187 172.374C9.21226 174.535 8.88692 176.904 9.17546 179.243C9.464 181.582 10.3562 183.808 11.7622 185.697C13.0932 187.544 14.8647 189.021 16.9093 189.99C18.9539 190.958 21.2043 191.386 23.4479 191.232L165.525 181.771C167.769 181.626 169.935 180.905 171.818 179.675C173.701 178.445 175.239 176.747 176.286 174.742C177.296 172.632 177.736 170.287 177.564 167.94C177.391 165.594 176.611 163.33 175.303 161.375L149.952 128.811" fill="white"/>
<path d="M31.1147 136.724L10.1187 172.374C9.21226 174.535 8.88692 176.904 9.17546 179.243C9.464 181.582 10.3562 183.808 11.7622 185.697C13.0932 187.544 14.8647 189.021 16.9093 189.99C18.9539 190.958 21.2043 191.386 23.4479 191.232L165.525 181.771C167.769 181.626 169.935 180.905 171.818 179.675C173.701 178.445 175.239 176.747 176.286 174.742C177.296 172.632 177.736 170.287 177.564 167.94C177.391 165.594 176.611 163.33 175.303 161.375L149.952 128.811" stroke="#121229" stroke-width="3" stroke-linecap="round" stroke-linejoin="round"/>
<path d="M38.7867 56.5722C35.2903 56.8048 32.0408 58.4284 29.7529 61.0861C27.4651 63.7437 26.3264 67.2176 26.5873 70.7435L31.5064 137.216L150.155 129.326L145.236 62.8529C144.975 59.327 143.336 56.0379 140.679 53.7091C138.023 51.3803 134.566 50.2026 131.069 50.4351L38.7867 56.5722Z" fill="#FFEE33" stroke="#121229" stroke-width="3" stroke-linecap="round" stroke-linejoin="round"/>
</svg>
